<svg width="40" height="40" viewBox="0 0 40 40" fill="none" xmlns="http://www.w3.org/2000/svg">
<path fill-rule="evenodd" clip-rule="evenodd" d="M3.85492 0.171981C2.82454 0.490976 1.89951 1.39399 1.57479 2.39779C1.41975 2.87715 1.39759 3.19287 1.39759 4.91958V6.89347H4.25703H7.11646V7.92641C7.11646 9.09807 7.23352 8.94659 6.17821 9.14066C5.31913 9.29869 4.29831 9.71951 3.45683 10.2626C1.85152 11.2985 0.775215 12.7485 0.216284 14.6279C-0.0736809 15.6032 -0.0718045 17.5002 0.220216 18.4894C0.617677 19.8358 1.47033 21.2026 2.50303 22.1489L2.82731 22.4459V27.0624V31.6789L4.97189 29.6111L7.11646 27.5433V32.2969C7.11646 36.7957 7.12594 37.0799 7.29366 37.5985C7.62339 38.6175 8.54931 39.5109 9.60552 39.829C10.1612 39.9963 10.461 40 23.5582 40C36.6554 40 36.9552 39.9963 37.5109 39.829C38.5672 39.5109 39.4931 38.6175 39.8228 37.5985C39.9778 37.1191 40 36.8034 40 35.0767V33.1028H38.5703H37.1406V18.0242C37.1406 3.22916 37.1373 2.93543 36.9634 2.39779C36.6336 1.37873 35.7077 0.485372 34.6515 0.167239C34.0945 -0.000448649 33.7993 -0.0036386 19.2374 0.00110322C4.83571 0.00584504 4.37498 0.0109317 3.85492 0.171981ZM4.43521 1.45124C3.80372 1.65074 3.34799 2.02026 3.0398 2.58272C2.90487 2.82887 2.86859 3.12674 2.84286 4.19925L2.81131 5.51403H4.97189H7.13246L7.10092 4.19925C7.06696 2.78352 7.0045 2.55755 6.50312 2.03595C6.0272 1.5409 5.0373 1.26105 4.43521 1.45124ZM8.01504 1.64117C8.1237 1.78834 8.28767 2.14147 8.37935 2.4259C8.52876 2.88904 8.54618 3.25675 8.54618 5.95114V8.95935L8.74724 8.99927C10.0053 9.24921 10.3837 9.35077 10.9613 9.59363C13.1434 10.511 14.7724 12.325 15.4269 14.5666C15.7153 15.5545 15.7592 16.9832 15.5334 18.0326C15.2113 19.5292 14.589 20.6684 13.4515 21.8435L12.8353 22.4801V27.0795V31.6789L10.6886 29.6104L8.5418 27.5419L8.56638 32.3269C8.5905 37.0423 8.59363 37.1168 8.7837 37.4567C9.19805 38.1975 9.83802 38.5717 10.6908 38.5717C11.5435 38.5717 12.1835 38.1975 12.5978 37.4567C12.7768 37.1365 12.7927 36.9679 12.8189 35.1073L12.8472 33.1028H24.28H35.7128L35.6895 17.9936C35.6671 3.44056 35.66 2.87335 35.4996 2.58272C35.2665 2.16036 34.9227 1.82265 34.5045 1.60487L34.1471 1.41882L20.9823 1.39615L7.81747 1.37347L8.01504 1.64117ZM29.8287 3.56764C28.2346 4.0689 27.4144 5.85855 28.0967 7.34679C28.33 7.85563 28.9873 8.49181 29.5277 8.73157C30.121 8.99496 31.2927 8.99496 31.886 8.73157C32.4233 8.49319 33.0797 7.85985 33.3268 7.34144C33.614 6.73906 33.6025 5.62947 33.3028 5.04209C33.0242 4.49583 32.4761 3.96647 31.9202 3.70679C31.3811 3.45505 30.3955 3.38944 29.8287 3.56764ZM12.1205 4.82431V5.51403H17.1245H22.1285V4.82431V4.13459H17.1245H12.1205V4.82431ZM30.0779 5.01829C29.6487 5.22711 29.2771 5.77724 29.2771 6.20375C29.2771 6.32592 29.3675 6.59896 29.4782 6.81053C29.6946 7.22462 30.2648 7.58319 30.7068 7.58319C31.1489 7.58319 31.7191 7.22462 31.9355 6.81053C32.0461 6.59896 32.1365 6.32592 32.1365 6.20375C32.1365 6.08158 32.0461 5.80854 31.9355 5.59697C31.7191 5.18288 31.1489 4.82431 30.7068 4.82431C30.5802 4.82431 30.2972 4.91165 30.0779 5.01829ZM6.7803 10.4378C5.45611 10.6506 4.26525 11.2609 3.2741 12.2344C2.5108 12.9842 2.10736 13.5933 1.7888 14.4772C0.963044 16.7681 1.53868 19.1996 3.31171 20.9102C5.77592 23.2878 9.64269 23.3552 12.2064 21.065C14.4012 19.1045 14.8768 15.9219 13.3514 13.4027C12.9194 12.6892 11.8322 11.6261 11.119 11.2196C9.85983 10.5022 8.21922 10.2065 6.7803 10.4378ZM18.5542 11.0318V11.7215H21.0562H23.5582V11.0318V10.3421H21.0562H18.5542V11.0318ZM6.75903 12.5348C4.88047 13.0398 3.54708 14.6759 3.54324 16.4807C3.53824 18.7917 5.49347 20.6913 7.87243 20.6868C8.95035 20.6848 9.89083 20.3114 10.7398 19.5482C12.1364 18.293 12.5044 16.4275 11.6887 14.739C11.3964 14.1341 10.3585 13.1197 9.75251 12.8469C8.79326 12.4148 7.64895 12.2955 6.75903 12.5348ZM7.07179 13.906C6.50973 14.0858 6.16811 14.2825 5.81238 14.6314C4.73598 15.6872 4.74117 17.442 5.82373 18.4865C6.91023 19.5347 8.75242 19.5347 9.83892 18.4865C10.9253 17.4382 10.9253 15.6608 9.83892 14.6126C9.15944 13.9571 7.91014 13.6381 7.07179 13.906ZM18.5542 15.1701V15.8598H23.5582H28.5622V15.1701V14.4804H23.5582H18.5542V15.1701ZM18.5542 19.3084V19.9981H23.5582H28.5622V19.3084V18.6187H23.5582H18.5542V19.3084ZM18.5542 23.4467V24.1365H23.5582H28.5622V23.4467V22.757H23.5582H18.5542V23.4467ZM4.25703 25.8292V28.3162L6.04418 26.5936L7.83132 24.8709L9.61847 26.5936L11.4056 28.3162V25.8292C11.4056 23.4935 11.3961 23.3459 11.2492 23.4061C11.1632 23.4413 10.7712 23.5793 10.378 23.7128C8.45477 24.3654 6.51205 24.2656 4.4134 23.4061C4.26659 23.3459 4.25703 23.4935 4.25703 25.8292ZM22.8434 29.6542V30.3439H27.8474H32.8514V29.6542V28.9645H27.8474H22.8434V29.6542ZM14.2651 35.7678C14.2651 37.1586 14.1294 37.8192 13.7338 38.3553L13.5362 38.6231L25.2714 38.6003L37.0065 38.5775L37.364 38.3914C37.783 38.1732 38.127 37.8348 38.3578 37.4136C38.4927 37.1674 38.529 36.8695 38.5547 35.797L38.5863 34.4822H26.4257H14.2651V35.7678Z" fill="#0D5EF4"/>
</svg>
