<svg width="40" height="40" viewBox="0 0 40 40" fill="none" xmlns="http://www.w3.org/2000/svg">
<path fill-rule="evenodd" clip-rule="evenodd" d="M23.0978 0.109245C22.8536 0.168874 22.249 0.418259 21.7543 0.663391L20.8548 1.10915L19.7742 1.16838C18.9217 1.21509 18.5717 1.27039 18.1164 1.43037C17.1163 1.78177 16.2472 2.49668 15.7048 3.41411C15.3014 4.09634 14.8646 4.52492 14.1972 4.89341C13.8549 5.08246 13.3954 5.43251 13.0935 5.73451C12.249 6.57877 11.8651 7.51968 11.8168 8.86278C11.7824 9.81716 11.7005 10.1374 11.3362 10.7413C11.1799 11.0004 10.9605 11.4427 10.8487 11.7243C10.6691 12.1764 10.6454 12.3471 10.6455 13.1816C10.6458 14.2434 10.7416 14.5863 11.3122 15.567C11.7045 16.2416 11.7818 16.5393 11.8175 17.5152C11.8816 19.2679 12.6064 20.5118 14.065 21.3727C14.8711 21.8485 15.3009 22.2578 15.6845 22.9154C15.8509 23.2008 16.2317 23.6662 16.5329 23.9524C17.4283 24.8033 18.4434 25.1902 19.7883 25.1933C20.6586 25.1952 20.9197 25.2652 21.8788 25.7532C23.5635 26.6103 24.8281 26.5951 26.6009 25.6963L27.4705 25.2553L28.5949 25.1906C29.8185 25.12 30.2977 24.9967 31.0647 24.5546C31.6641 24.2091 32.3297 23.5259 32.7124 22.8633C33.0927 22.2047 33.4625 21.8478 34.1421 21.4831C34.7673 21.1476 35.4838 20.4865 35.8664 19.892C36.3173 19.1913 36.4945 18.5553 36.5591 17.4045C36.6182 16.352 36.6236 16.3345 37.2068 15.269C37.6022 14.5466 37.7345 14.0232 37.7345 13.1816C37.7345 12.2814 37.6077 11.838 37.0493 10.7859L36.6139 9.96556L36.5586 8.96542C36.4946 7.80734 36.3189 7.17419 35.8664 6.47117C35.4838 5.87669 34.7673 5.2155 34.1421 4.8801C33.4628 4.51555 33.093 4.15872 32.7117 3.49981C32.3363 2.85107 31.6805 2.15994 31.1363 1.8395C30.3666 1.38634 29.8071 1.2392 28.5949 1.17098L27.4705 1.10781L26.6009 0.666857C26.1226 0.424403 25.5026 0.172891 25.223 0.107985C24.6007 -0.0364792 23.6921 -0.0359278 23.0978 0.109245ZM23.4636 1.59595C23.2485 1.65006 22.7559 1.85841 22.3688 2.05888C21.4961 2.51102 20.9164 2.6658 20.0953 2.6658C19.2818 2.6658 18.7449 2.76954 18.2372 3.02499C17.685 3.30273 17.3956 3.60001 16.8106 4.48995C16.2633 5.32286 15.7849 5.76169 14.8797 6.26156C14.2452 6.61193 13.8624 7.01311 13.5894 7.61373C13.4282 7.96843 13.3798 8.2312 13.3337 9.00165C13.2616 10.2078 13.193 10.4515 12.606 11.5885C12.1285 12.5135 12.125 12.5249 12.125 13.1816C12.125 13.8383 12.1285 13.8496 12.606 14.7746C13.1958 15.917 13.2647 16.1625 13.3309 17.3564C13.3742 18.139 13.4185 18.3788 13.5885 18.7503C13.8432 19.307 14.3387 19.815 14.9454 20.1414C15.7697 20.5848 16.2715 21.0526 16.8171 21.886C17.7397 23.2955 18.4669 23.6973 20.0953 23.6973C20.9243 23.6973 21.4937 23.8517 22.4192 24.327C23.7925 25.0323 24.5833 25.0344 25.9268 24.3363C26.9055 23.8276 27.106 23.7747 28.3509 23.6967C30.0544 23.59 30.6259 23.2844 31.4318 22.0493C32.0004 21.178 32.6049 20.5848 33.2999 20.2161C33.567 20.0745 33.9822 19.7627 34.2225 19.5233C34.8042 18.944 35.0006 18.4254 35.0406 17.3633C35.0793 16.3369 35.1789 15.8872 35.5049 15.2685C36.2209 13.9097 36.2097 13.9428 36.2097 13.1816C36.2097 12.4203 36.2209 12.4534 35.5049 11.0946C35.1789 10.4759 35.0793 10.0263 35.0406 8.99984C34.988 7.60459 34.545 6.86699 33.3386 6.16602C32.4908 5.67339 32.0268 5.22227 31.4314 4.31177C30.6237 3.07619 30.0454 2.7671 28.3509 2.66501C27.1106 2.59026 26.9101 2.5374 25.9268 2.02635C24.913 1.49945 24.2842 1.38957 23.4636 1.59595ZM28.26 5.38218C27.9495 5.55681 19.0981 19.8528 19.0593 20.2424C19.0225 20.6117 19.152 20.8487 19.4623 20.9793C19.7714 21.1094 20.0811 21.0545 20.2822 20.834C20.6236 20.4595 29.3035 6.34073 29.343 6.09552C29.4267 5.57587 28.7308 5.11751 28.26 5.38218ZM19.2073 5.81392C17.5119 6.44675 16.5264 8.45538 16.9737 10.3663C17.5003 12.6164 19.6069 13.8161 21.4373 12.9083C22.3414 12.46 23.1086 11.4741 23.3396 10.464C23.4437 10.0087 23.4439 8.87239 23.3401 8.4182C23.0996 7.36726 22.3368 6.3898 21.4195 5.95743C20.7233 5.6292 19.8533 5.5728 19.2073 5.81392ZM19.6825 7.24587C19.2813 7.36221 18.7032 7.99269 18.5331 8.49934C17.8731 10.4657 19.4887 12.4105 20.974 11.4375C22.3238 10.5532 22.2362 8.06618 20.8302 7.36048C20.404 7.14646 20.1223 7.11842 19.6825 7.24587ZM27.395 13.2536C26.5979 13.4856 25.7517 14.2148 25.3476 15.018C24.7602 16.1859 24.7774 17.7426 25.3906 18.9017C25.6987 19.4839 26.4182 20.177 26.9996 20.4513C27.3916 20.6364 27.5502 20.6647 28.1945 20.6647C28.8387 20.6647 28.9973 20.6364 29.3894 20.4513C29.9704 20.1771 30.6903 19.4839 30.9978 18.9025C31.8543 17.2838 31.5634 15.2628 30.299 14.0479C29.6884 13.4613 29.1404 13.2139 28.3661 13.1758C28.0017 13.1578 27.6187 13.1885 27.395 13.2536ZM27.696 14.7545C27.2897 14.9004 26.9038 15.2921 26.6467 15.8194C26.3592 16.4092 26.3488 17.3804 26.6234 18.0044C26.9159 18.6689 27.6185 19.2066 28.1945 19.2066C28.7696 19.2066 29.4711 18.6704 29.7676 18.0044C30.0277 17.4199 30.0277 16.4264 29.7676 15.8419C29.4617 15.1544 28.758 14.6311 28.1554 14.6427C28.0694 14.6444 27.8626 14.6947 27.696 14.7545ZM0.59628 25.0875C0.278488 25.3735 0.319385 24.7392 0.112945 32.5877C-0.00474163 37.0592 -0.0278879 38.8916 0.0315418 39.023C0.215539 39.4297 0.258469 39.4359 3.58246 39.5349C6.90607 39.634 7.0584 39.6227 7.2578 39.2633C7.30863 39.1718 7.36884 38.904 7.39167 38.6683L7.4332 38.2397L8.20273 37.8253C8.62601 37.5973 9.13218 37.3493 9.32767 37.2741C10.0524 36.9954 10.2857 37.0418 15.292 38.4629C17.851 39.1893 20.2086 39.8317 20.5312 39.8904C20.8537 39.9491 21.5617 39.9985 22.1044 40C23.5051 40.0039 24.6526 39.784 25.8877 39.2753C26.246 39.1277 34.0476 34.1031 39.3121 30.6293C40.0656 30.1321 40.1672 29.8192 39.7768 29.199C39.3096 28.4569 38.5113 27.8549 37.6616 27.6038C37.1169 27.4429 36.1604 27.4431 35.6215 27.6043C35.3899 27.6736 33.8296 28.3828 32.1542 29.1804C30.4789 29.9779 29.1018 30.6212 29.0941 30.61C29.0863 30.5988 28.9687 30.4237 28.8327 30.2209C28.2739 29.3879 27.2821 28.6432 26.3189 28.3333C25.8858 28.1941 25.4932 28.159 23.6982 28.0992C19.3556 27.9545 18.7529 27.91 18.0869 27.6844C17.7532 27.5714 17.1022 27.2882 16.6403 27.0548C15.1148 26.2846 13.8342 25.9758 12.1641 25.9756C10.7211 25.9753 9.49063 26.2283 8.28578 26.7728C8.00239 26.9009 7.75623 27.0057 7.73871 27.0057C7.72119 27.0057 7.70688 26.6662 7.70688 26.2513C7.70688 25.5314 7.69695 25.4869 7.4895 25.2779C7.2743 25.0612 7.25936 25.0585 5.98421 25.009C5.2759 24.9816 3.83121 24.9363 2.77391 24.9084L0.851515 24.8578L0.59628 25.0875ZM1.83062 26.4149C1.81772 26.4149 1.47998 37.9055 1.4921 37.9333C1.49633 37.9432 2.47871 37.9786 3.67505 38.012C5.10973 38.0521 5.85839 38.0461 5.87426 37.9941C5.88748 37.9508 5.95301 35.7354 6.01979 33.071C6.08664 30.4066 6.16093 27.8495 6.18486 27.3885L6.22842 26.5505L4.79772 26.5021C3.71994 26.4657 1.99202 26.4149 1.83062 26.4149ZM10.522 27.6459C9.69465 27.8202 8.67707 28.2106 8.04524 28.5964C7.63964 28.8439 7.62869 28.8601 7.6301 29.2082C7.63088 29.4049 7.58975 31.0987 7.53868 32.9723C7.4877 34.846 7.46737 36.4006 7.49356 36.427C7.51976 36.4534 7.73386 36.3639 7.96924 36.2283C9.00691 35.6302 10.047 35.4686 11.1475 35.7342C11.5131 35.8225 13.7652 36.4481 16.1522 37.1247C18.5391 37.8012 20.7208 38.3881 21.0004 38.4288C22.2178 38.6064 23.6705 38.4559 24.876 38.0273C25.4763 37.8139 26.3671 37.2595 31.7866 33.7272C35.2085 31.4969 38.0385 29.6424 38.0756 29.6062C38.1868 29.4973 37.5591 29.1366 37.0837 29.0362C36.7516 28.966 36.5364 28.9644 36.2292 29.0297C36.0035 29.0777 34.4225 29.7822 32.716 30.5954L29.6134 32.0738L29.6568 32.5961C29.7085 33.2163 29.577 33.5484 29.2214 33.6968C29.0372 33.7737 28.0544 33.7672 24.4281 33.6653C20.2839 33.5488 19.8486 33.524 19.671 33.3954C19.2327 33.0778 19.19 32.6031 19.5656 32.2247L19.7667 32.0222L21.8888 32.0747C23.056 32.1035 24.917 32.1502 26.0245 32.1784C28.3287 32.2371 28.2006 32.2837 27.8459 31.5163C27.6172 31.0214 27.0358 30.3752 26.5738 30.1025C25.8891 29.6984 25.6977 29.6746 22.2124 29.564C18.1847 29.436 17.899 29.3853 16.1131 28.4837C14.2108 27.5234 12.3957 27.2514 10.522 27.6459Z" fill="#0D5EF4"/>
</svg>
