<svg width="34" height="34" viewBox="0 0 34 34" fill="none" xmlns="http://www.w3.org/2000/svg">
<path fill-rule="evenodd" clip-rule="evenodd" d="M4.60521 0.156992C4.37285 0.313571 4.33135 0.393684 4.19604 0.945874C4.14353 1.16034 4.07119 1.2655 3.92397 1.34162C3.63084 1.49325 3.44439 1.4684 3.09717 1.23157C2.8359 1.05338 2.74023 1.02551 2.48565 1.05338C2.21778 1.0827 2.12225 1.14802 1.63517 1.63517C1.14802 2.12225 1.0827 2.21778 1.05338 2.48565C1.02551 2.74023 1.05338 2.8359 1.23157 3.09717C1.4684 3.44439 1.49325 3.63084 1.34162 3.92397C1.2655 4.07119 1.16034 4.14353 0.945874 4.19604C0.393684 4.33135 0.313571 4.37285 0.156992 4.60521C0.0185142 4.81066 0 4.92277 0 5.55411C0 6.05936 0.0306964 6.32937 0.104409 6.47191C0.21687 6.6894 0.523903 6.88259 0.757085 6.88259C0.836579 6.88259 0.992057 6.92939 1.10259 6.98652C1.50206 7.19313 1.55168 7.58228 1.23763 8.04575C0.876567 8.57867 0.964182 8.8676 1.70303 9.57995C2.34311 10.1971 2.60245 10.2494 3.15642 9.87301C3.65734 9.53259 4.13306 9.73377 4.23355 10.3286C4.3447 10.9861 4.60576 11.1498 5.54386 11.1498C6.53743 11.1498 6.798 10.9772 6.91576 10.2408C7.00104 9.70741 7.52061 9.55634 8.04575 9.91217C8.3629 10.127 8.64708 10.1699 8.90029 10.0408C9.11764 9.93006 9.90412 9.15192 10.0193 8.9336C10.1699 8.64825 10.1373 8.37797 9.91217 8.04575C9.55634 7.52061 9.70741 7.00104 10.2408 6.91576C10.9772 6.798 11.1498 6.53743 11.1498 5.54386C11.1498 4.60576 10.9861 4.3447 10.3286 4.23355C9.73377 4.13306 9.53259 3.65734 9.87301 3.15642C10.2494 2.60245 10.1971 2.34311 9.57995 1.70303C8.8676 0.964182 8.57867 0.876567 8.04575 1.23763C7.58228 1.55168 7.19313 1.50206 6.98652 1.10259C6.92939 0.992057 6.88259 0.836579 6.88259 0.757085C6.88259 0.523903 6.6894 0.21687 6.47191 0.104409C6.32937 0.0306964 6.05936 0 5.55411 0C4.92277 0 4.81066 0.0185142 4.60521 0.156992ZM28.7929 0.154858C28.7171 0.240065 28.4 0.752542 28.0885 1.29379C27.4608 2.38447 27.4146 2.59343 27.7469 2.84038C27.8919 2.94809 27.9691 2.96254 28.1254 2.91113C28.2841 2.85889 28.444 2.6361 28.9584 1.75017C29.341 1.09137 29.5951 0.578344 29.5951 0.464575C29.5952 0.04983 29.0679 -0.153826 28.7929 0.154858ZM21.9122 0.358721C20.9704 0.662105 20.3443 1.91536 20.6815 2.82186C20.8841 3.36641 20.8838 3.36758 20.392 4.14525C19.3842 5.73884 17.6814 7.60568 15.9974 8.96292C15.2743 9.54574 15.135 9.63115 14.921 9.62317C14.5353 9.60865 11.9734 11.1008 11.3546 11.7004C10.614 12.418 10.2538 13.2745 10.2567 14.3111C10.2598 15.3778 10.5444 16.1011 11.2595 16.859C12.3689 18.0351 13.9905 18.3503 15.4795 17.6793C15.722 17.57 15.9258 17.4886 15.9322 17.4984C16.2724 18.0152 19.6494 22.454 19.7815 22.558C20.0356 22.7578 20.3921 22.8179 20.7273 22.7174C21.0414 22.6234 22.0385 21.7789 22.1967 21.473C22.3198 21.2351 22.3278 20.6716 22.2112 20.4664C22.1652 20.3856 21.3532 19.277 20.4069 18.0029C19.4605 16.7288 18.6782 15.6635 18.6683 15.6356C18.6298 15.5265 20.7448 14.7825 22.1275 14.4188C23.4997 14.0578 24.5479 13.8955 25.7778 13.8533L26.8815 13.8156L27.2987 14.2328C27.637 14.5711 27.7918 14.672 28.1172 14.7667C29.3771 15.1329 30.5763 14.3256 30.6794 13.0417C30.7025 12.7528 30.6794 12.5075 30.6098 12.303C30.5524 12.1346 30.0526 11.2154 29.499 10.2602L28.4925 8.52354L28.789 8.23536C29.9245 7.13174 29.5971 5.22925 28.1625 4.59461C27.7218 4.3997 27.0722 4.35874 26.6436 4.49894C26.4546 4.56075 26.2854 4.61134 26.2676 4.61134C26.2498 4.61134 25.7942 3.84482 25.2553 2.90789C24.7163 1.97097 24.1858 1.09013 24.0764 0.950486C23.9632 0.805883 23.6961 0.605806 23.4561 0.485911C23.106 0.310955 22.9579 0.276474 22.5811 0.282324C22.3317 0.286178 22.0306 0.320591 21.9122 0.358721ZM5.19994 1.0496C5.18534 1.09695 5.15623 1.21492 5.13524 1.31189C5.11425 1.4088 5.00137 1.62016 4.88451 1.78149C4.45641 2.37243 3.5382 2.58551 2.87238 2.24847L2.55544 2.08797L2.3217 2.3217L2.08797 2.55544L2.24847 2.87238C2.69295 3.75032 2.14991 4.9673 1.2304 5.15417C1.00617 5.19973 0.997219 5.21398 0.977328 5.55659L0.956611 5.91187L1.22503 5.98414C1.59951 6.08497 1.92059 6.31746 2.16437 6.66428C2.33987 6.91404 2.37594 7.03711 2.39576 7.45474C2.41593 7.87719 2.39466 7.99461 2.25019 8.25911L2.08109 8.56883L2.31978 8.81873L2.55853 9.06864L2.86405 8.89788C3.22174 8.69794 3.81812 8.66628 4.20134 8.82679C4.68987 9.03147 5.06194 9.47279 5.18789 9.99696C5.22981 10.1712 5.25995 10.1862 5.56726 10.1862H5.90113L5.98806 9.87583C6.0999 9.4763 6.52463 8.99541 6.89732 8.84626C7.33175 8.67248 7.84684 8.68961 8.25484 8.89155L8.59581 9.06031L8.83153 8.82458L9.06726 8.58885L8.89719 8.28457C8.69037 7.91443 8.66883 7.33891 8.84544 6.8987C8.99548 6.52463 9.47595 6.10004 9.87583 5.98806L10.1862 5.90113V5.56726C10.1862 5.25995 10.1712 5.22981 9.99696 5.18789C9.47279 5.06194 9.03147 4.68987 8.82678 4.20134C8.66628 3.81812 8.69794 3.22174 8.89788 2.86405L9.06864 2.55853L8.81873 2.31978L8.56883 2.08109L8.26551 2.24503C8.04162 2.36596 7.85352 2.40891 7.54731 2.40891C6.8139 2.40891 6.25917 2.01219 6.00947 1.30907L5.88675 0.963563H5.55659C5.35252 0.963563 5.21632 0.996393 5.19994 1.0496ZM22.1014 1.35656C21.6456 1.58114 21.4515 2.15157 21.6673 2.63273C21.9551 3.27453 27.8904 13.4676 28.0753 13.6375C28.3595 13.8986 28.7502 13.9481 29.1458 13.7732C29.4052 13.6584 29.4887 13.5744 29.6053 13.3109C29.7004 13.0959 29.7351 12.9113 29.7097 12.7551C29.6793 12.5677 24.259 3.04988 23.4588 1.77867C23.1384 1.26977 22.6108 1.10569 22.1014 1.35656ZM4.92105 2.71319C3.42856 3.08664 2.42081 4.55366 2.67306 5.98572C2.84636 6.96972 3.45802 7.80665 4.28503 8.19152C6.81294 9.36776 9.36776 6.81294 8.19152 4.28503C7.81897 3.48452 6.98996 2.86123 6.06418 2.68566C5.60195 2.59797 5.3581 2.60382 4.92105 2.71319ZM31.621 3.54557C30.5844 4.13788 30.3522 4.32006 30.3522 4.54086C30.3522 4.74899 30.6208 5.02429 30.8238 5.02429C31.0075 5.02429 32.7581 4.07174 33.0351 3.82108C33.2087 3.66388 33.219 3.29552 33.0536 3.15037C32.7823 2.91216 32.6801 2.94038 31.621 3.54557ZM4.8313 3.7634C4.42826 3.90594 3.90009 4.44602 3.75913 4.85966C3.57702 5.39416 3.61171 5.96246 3.85632 6.45209C4.08034 6.90035 4.35351 7.15087 4.86489 7.37704C5.27427 7.55819 6.0202 7.52735 6.43522 7.31227C6.76283 7.14241 7.1643 6.7351 7.33347 6.40081C7.52708 6.01834 7.54876 5.25307 7.37704 4.86489C7.15087 4.35351 6.90035 4.08034 6.45208 3.85632C6.10789 3.68439 5.95509 3.64874 5.58109 3.65321C5.33167 3.65617 4.99421 3.70579 4.8313 3.7634ZM21.0408 4.9501C19.8952 6.69298 17.6473 9.03147 15.937 10.2597L15.6257 10.4833L15.7541 10.6961C15.8247 10.8132 16.3716 11.7606 16.9694 12.8016C17.5673 13.8426 18.066 14.7067 18.0777 14.7219C18.0894 14.737 18.4754 14.6031 18.9354 14.4243C21.195 13.5459 23.2781 13.042 25.3623 12.8695C25.8923 12.8257 26.3316 12.7843 26.3385 12.7775C26.3572 12.7589 21.5672 4.47079 21.4983 4.40245C21.4656 4.36996 21.2615 4.61423 21.0408 4.9501ZM26.9281 5.41357C26.8429 5.43188 26.7733 5.46622 26.7733 5.4899C26.7733 5.51364 27.0443 6.0052 27.3755 6.58237L27.9777 7.63176L28.1654 7.45233C28.7036 6.93765 28.5424 5.88585 27.8722 5.53925C27.6512 5.42506 27.1721 5.36126 26.9281 5.41357ZM31.0417 7.65709C30.6732 7.84836 30.7028 8.39291 31.0895 8.53999C31.2028 8.58307 31.7676 8.6031 32.5075 8.59023C33.7045 8.56938 33.7406 8.56449 33.8685 8.40633C34.0358 8.19964 34.0358 7.97444 33.8685 7.76776C33.7402 7.60905 33.7079 7.60485 32.4748 7.58682C31.5479 7.57326 31.1671 7.59191 31.0417 7.65709ZM13.456 11.4518C12.0739 12.2593 11.8452 12.4566 11.5135 13.1276C11.2643 13.632 11.253 13.6848 11.253 14.3466C11.253 14.9532 11.2757 15.087 11.4375 15.432C12.0471 16.7326 13.5498 17.3591 14.8729 16.8643C15.2107 16.738 17.2507 15.5814 17.3127 15.481C17.3602 15.4041 14.7171 10.8083 14.6255 10.8086C14.5877 10.8086 14.0614 11.0981 13.456 11.4518ZM7.98381 13.5532C6.02357 14.0644 4.43679 14.8152 3.06165 15.8824C-1.20728 19.1953 -0.980218 24.241 3.57847 27.3633C3.91406 27.5933 4.38449 27.8843 4.62372 28.0103C4.86296 28.1362 5.06896 28.2475 5.08155 28.2575C5.09415 28.2676 4.8386 29.4196 4.51374 30.8176C4.18888 32.2157 3.92308 33.4417 3.92308 33.5421C3.92308 33.7753 4.14649 34 4.37836 34C4.50307 34 5.4707 33.3605 7.52714 31.9191L10.496 29.8382L12.1478 29.8287C13.7705 29.8194 14.7517 29.7324 15.8633 29.4995L16.3117 29.4055V31.314C16.3117 33.1799 16.3152 33.2276 16.4666 33.4501C16.5517 33.5752 16.7089 33.7424 16.8158 33.8216C17.0072 33.9635 17.0716 33.9659 21.1725 33.9844C25.8141 34.0053 25.6278 34.0228 26.0028 33.5312L26.1883 33.2882L26.2087 30.22C26.22 28.5325 26.2105 27.0493 26.1876 26.924C26.1313 26.6157 25.7191 26.1734 25.4072 26.0867C25.269 26.0484 24.6022 26.0168 23.9254 26.0166L22.6949 26.0162L22.877 25.7925C23.6681 24.8211 24.1911 23.8725 24.4444 22.9497C24.6567 22.1764 24.6589 20.7094 24.4488 19.9459C24.1247 18.768 23.5088 17.7377 22.5405 16.7534C21.8319 16.0331 21.3864 15.6923 21.1536 15.6923C20.9198 15.6923 20.7166 15.9263 20.7166 16.1956C20.7166 16.3972 20.7849 16.4816 21.3033 16.9207C22.9892 18.3488 23.872 20.3125 23.6087 22.0491C23.5071 22.7198 23.2673 23.4292 22.9512 23.9945C22.6434 24.5448 21.965 25.3932 21.5654 25.7275L21.2613 25.9818L19.177 26.0162L17.0928 26.0506L16.8162 26.2338C16.4046 26.5064 16.3117 26.763 16.3117 27.6285C16.3117 28.4925 16.4145 28.4042 15.1358 28.6383C14.3887 28.7751 14.0295 28.7963 12.2759 28.8074L10.2705 28.8201L7.73968 30.5847C6.34768 31.5551 5.20124 32.3412 5.19195 32.3315C5.18266 32.3217 5.40173 31.3382 5.67883 30.1457C6.10603 28.3076 6.17038 27.9516 6.10217 27.8057C6.04925 27.6924 5.79679 27.5154 5.36415 27.2879C4.46267 26.814 4.05901 26.5477 3.35237 25.9605C1.33398 24.2834 0.523559 21.9354 1.24217 19.8467C2.09114 17.3792 4.74328 15.3778 8.35209 14.4815C9.09183 14.2978 9.2915 14.1652 9.2915 13.8577C9.2915 13.659 9.00546 13.3496 8.83002 13.3585C8.76209 13.3619 8.38127 13.4495 7.98381 13.5532ZM31.1082 15.1992C30.8278 15.3469 30.4883 15.8224 30.0366 16.7001C29.746 17.2648 29.7176 17.36 29.7603 17.6292C29.8286 18.0616 30.0805 18.3979 30.528 18.654C30.907 18.8708 30.9167 18.8837 30.8783 19.1207C30.7782 19.7373 29.4905 21.933 29.0657 22.2114C28.9245 22.3039 28.881 22.2951 28.5479 22.1068C28.0856 21.8455 27.819 21.7904 27.4704 21.8842C27.0475 21.9981 26.8272 22.2301 26.3396 23.0746C25.8363 23.9464 25.7689 24.1637 25.8772 24.566C26.0827 25.329 27.2348 25.9463 28.2883 25.858C29.299 25.7733 30.0301 25.373 31.0794 24.33C33.0821 22.3392 34.3305 19.2665 33.9233 17.3303C33.8018 16.7526 33.5241 16.2397 33.1062 15.8207C32.4146 15.1275 31.6789 14.8987 31.1082 15.1992ZM31.5516 16.0891C31.4159 16.1819 30.7652 17.3549 30.7652 17.5066C30.7652 17.6143 30.87 17.7188 31.1404 17.8805C31.694 18.2116 31.832 18.4411 31.832 19.0304C31.832 19.457 31.7951 19.5935 31.5098 20.223C30.9088 21.5493 29.9923 22.839 29.4594 23.1083C29.0431 23.3187 28.7253 23.3051 28.253 23.0567C28.0371 22.9431 27.8035 22.8502 27.7339 22.8502C27.5708 22.8502 26.8237 24.0965 26.855 24.3163C26.8702 24.423 26.9965 24.5276 27.2839 24.6711C27.6207 24.8394 27.7728 24.8739 28.1625 24.8703C28.5645 24.8666 28.7122 24.8274 29.1661 24.6037C29.5937 24.3931 29.834 24.205 30.3882 23.6475C31.668 22.3597 32.6297 20.5875 32.938 18.9486C33.1802 17.6611 32.8931 16.7483 32.0848 16.2357C31.7569 16.0277 31.6744 16.0051 31.5516 16.0891ZM17.3556 16.6194C17.078 16.7846 16.8341 16.9365 16.8137 16.9569C16.7811 16.9895 19.7667 21.0597 20.2422 21.6311L20.4216 21.8467L20.8788 21.4453C21.1303 21.2245 21.3351 21.009 21.334 20.9663C21.3318 20.8803 17.986 16.3542 17.9088 16.3326C17.8821 16.3252 17.6332 16.4542 17.3556 16.6194ZM6.28484 19.2022C5.92453 19.3492 5.91435 19.8824 6.26839 20.0654C6.44155 20.155 7.05872 20.1665 10.8457 20.1503L15.2227 20.1316L15.3543 19.9691C15.5216 19.7624 15.5216 19.5372 15.3543 19.3305L15.2227 19.168L10.829 19.1544C8.37839 19.1468 6.36874 19.1679 6.28484 19.2022ZM6.27981 22.7832C5.86596 22.951 5.94064 23.5483 6.39186 23.6791C6.56062 23.7281 8.53655 23.7449 12.4807 23.7311L18.3197 23.7105L18.4908 23.5116C18.6184 23.3632 18.6507 23.2669 18.6179 23.133C18.5175 22.7229 18.9116 22.7482 12.4035 22.7335C8.91419 22.7257 6.37066 22.7463 6.27981 22.7832ZM17.2918 30.0248L17.3097 33.002H21.2672H25.2247V30.0425V27.083L21.2492 27.0652L17.2739 27.0475L17.2918 30.0248ZM19.5903 28.086L19.4089 28.2286V29.9978C19.4089 31.4876 19.4258 31.7911 19.5161 31.9199C19.7221 32.2141 19.9639 32.1319 21.5043 31.2442C22.2952 30.7884 22.9825 30.3626 23.0317 30.2979C23.1572 30.1327 23.1465 29.9108 23.0051 29.7421C22.8574 29.5662 20.0424 27.9433 19.8848 27.9433C19.8225 27.9433 19.69 28.0075 19.5903 28.086ZM20.3725 30.0406V30.773L20.665 30.5952C20.8258 30.4974 21.1037 30.3363 21.2824 30.2373C21.4611 30.1382 21.592 30.0325 21.5733 30.0022C21.5454 29.9571 20.6141 29.4128 20.4256 29.3313C20.3964 29.3187 20.3725 29.6379 20.3725 30.0406Z" fill="#0D5EF4"/>
</svg>
