<svg width="34" height="34" viewBox="0 0 34 34" fill="none" xmlns="http://www.w3.org/2000/svg">
<path fill-rule="evenodd" clip-rule="evenodd" d="M5.09623 0.0432238C4.75101 0.124809 4.25078 0.440598 4.04392 0.707504C3.70166 1.14911 3.66815 1.35297 3.66483 3.01482L3.66173 4.55973H2.65153C1.17449 4.55973 0.678422 4.75575 0.222149 5.5196L0.0281966 5.84427L0.00978203 17.6105C-0.0108903 30.7648 -0.04906 29.7682 0.496887 30.3219C1.07924 30.9125 0.553541 30.8722 7.70094 30.8739L14.0332 30.8754V32.2673C14.0332 33.6525 14.034 33.66 14.2064 33.8295L14.3795 34H18.8308H23.2822L23.4553 33.8295C23.6277 33.66 23.6285 33.6525 23.6285 32.2673V30.8754H26.2957H28.9629L29.328 30.6964C29.5288 30.5979 29.7894 30.3977 29.9072 30.2514C30.2914 29.7739 30.3311 29.5525 30.3311 27.8883V26.3768L31.4424 26.3521C32.4921 26.3289 32.5759 26.3166 32.9579 26.1321C33.1802 26.0247 33.4571 25.8233 33.5732 25.6847C34.0282 25.1415 34 25.97 33.9995 13.1746C33.9993 5.37358 33.9751 1.45413 33.9261 1.28069C33.8152 0.887618 33.4387 0.451916 33.0096 0.220074L32.6241 0.0117699L18.9719 0.001077C11.4632 -0.00482494 5.21913 0.0141307 5.09623 0.0432238ZM5.07958 1.03697C4.98631 1.08412 4.84343 1.21091 4.76209 1.3186C4.62055 1.50614 4.61329 1.60689 4.59367 3.66202L4.57314 5.80956H6.09294H7.61275L7.61324 4.92427C7.61374 3.96774 7.68507 3.74173 8.04948 3.54273C8.27758 3.41809 13.1501 3.41386 13.3734 3.53801C13.4568 3.58439 14.0075 4.11452 14.5973 4.71596L15.6695 5.80956H24.3761H33.0827V3.75902C33.0827 1.48024 33.0594 1.33783 32.646 1.08981C32.4139 0.950525 32.3297 0.949692 18.8308 0.950387C8.19178 0.951011 5.21243 0.969759 5.07958 1.03697ZM23.946 2.18743C23.6028 2.34804 23.3887 2.56821 23.2438 2.90941C23.0913 3.26867 23.107 3.50634 23.3098 3.90386C23.5191 4.31428 23.865 4.5639 24.2897 4.61098C25.0845 4.69916 25.7451 4.12445 25.7451 3.34463C25.7451 2.43427 24.7653 1.80402 23.946 2.18743ZM27.0878 2.17001C26.545 2.40171 26.2791 2.84845 26.3236 3.45392C26.3728 4.12396 26.9161 4.62375 27.5994 4.62764C28.1494 4.63077 28.6931 4.21562 28.8453 3.67632C28.9364 3.35331 28.9364 3.33602 28.8464 3.01697C28.6409 2.28881 27.7804 1.87435 27.0878 2.17001ZM30.2253 2.15681C29.9313 2.2836 29.5737 2.66202 29.4778 2.94781C29.1929 3.79769 29.9233 4.69874 30.8279 4.6132C31.82 4.51939 32.3424 3.44323 31.7927 2.6257C31.4701 2.14605 30.7499 1.93059 30.2253 2.15681ZM24.2676 3.07876C24.0399 3.23583 24.0906 3.59682 24.3532 3.68715C24.5154 3.74291 24.575 3.72853 24.7025 3.60307C24.8285 3.47912 24.8441 3.41837 24.7892 3.26693C24.7013 3.02468 24.4682 2.94059 24.2676 3.07876ZM30.5917 3.01704C30.4221 3.05273 30.3097 3.349 30.4016 3.51808C30.5491 3.78943 30.9758 3.747 31.0711 3.45149C31.159 3.17889 30.9072 2.95073 30.5917 3.01704ZM27.3114 3.1155C27.1826 3.24228 27.2102 3.4819 27.37 3.62424C27.6782 3.89879 28.125 3.44843 27.8582 3.13216C27.7558 3.01079 27.428 3.00079 27.3114 3.1155ZM8.52995 5.25512V6.15874L8.28858 6.41815L8.04715 6.67749L6.31307 6.69832L4.57893 6.71908V15.675C4.57893 25.2837 4.56468 24.8965 4.92937 25.2165C5.08381 25.3521 5.1979 25.3557 9.75441 25.3696L14.4212 25.3837L14.0527 25.2181C13.8157 25.1116 13.6333 24.9702 13.5415 24.822C13.2295 24.3186 13.1891 24.4086 15.8378 19.715C17.1796 17.3372 18.3455 15.3449 18.4287 15.2875C18.6233 15.1534 19.0387 15.1536 19.2337 15.288C19.3173 15.3457 20.4832 17.3388 21.8246 19.7172C23.908 23.4114 24.2635 24.0828 24.2635 24.3237C24.2635 24.7382 24.025 25.044 23.5553 25.2317L23.1699 25.3859L27.7912 25.3878C32.3039 25.3896 32.418 25.3863 32.646 25.2494C33.1083 24.972 33.0827 25.5344 33.0827 15.6715V6.71221L24.2458 6.71193C15.7805 6.71172 15.4 6.70631 15.1955 6.58355C15.0781 6.51307 14.5247 5.98203 13.9657 5.40343L12.9494 4.35143H10.7397H8.52995V5.25512ZM1.29916 5.68235C0.887544 6.00099 0.910121 5.2997 0.910121 17.7523C0.910121 30.3677 0.880629 29.5524 1.34685 29.8321C1.57643 29.9699 1.68614 29.9723 7.80677 29.9725L14.0332 29.9728V29.098C14.0332 27.7766 14.2001 27.5356 15.1584 27.4731L15.6912 27.4384L15.6773 27.1383C15.6697 26.9732 15.6278 26.7319 15.5844 26.6022L15.5053 26.3664L10.2714 26.347L5.03753 26.3275L4.64948 26.1121C4.21332 25.8699 3.84453 25.4449 3.73553 25.0586C3.68684 24.8862 3.66236 21.5884 3.66215 15.1659L3.66173 5.53182H2.57766C1.57241 5.53182 1.47942 5.54279 1.29916 5.68235ZM17.4248 10.0973C17.0437 10.2885 16.9128 10.5213 16.8722 11.0803L16.8363 11.5726H13.6806H10.5249L10.304 11.1311C9.77177 10.0672 8.40994 9.79149 7.49485 10.5624C6.93508 11.034 6.72024 11.9195 7.00563 12.5794C7.60527 13.9658 9.61542 14.0616 10.3023 12.7366L10.4378 12.4753H12.5882C13.771 12.4753 14.7387 12.4886 14.7387 12.5049C14.7387 12.5212 14.5624 12.6338 14.3468 12.7552C12.3979 13.8525 10.7836 15.8271 10.1408 17.8998L9.97666 18.4292L9.47156 18.4668C9.16874 18.4894 8.89175 18.5526 8.77985 18.6247C8.42673 18.8524 8.38877 19.0252 8.38934 20.4047C8.38969 21.5437 8.40387 21.6965 8.52614 21.879C8.76623 22.2374 8.87517 22.2604 10.3417 22.2631L11.6949 22.2656L11.9401 22.0379C12.25 21.7502 12.2905 21.5086 12.2583 20.1361C12.2385 19.2908 12.2111 19.0653 12.1096 18.913C11.9292 18.6423 11.6996 18.5171 11.2977 18.4703L10.9433 18.429L11.1054 17.9599C11.7817 16.003 13.2782 14.317 15.178 13.3716C15.6836 13.12 16.6755 12.753 16.8501 12.753C16.8918 12.753 16.9259 12.8629 16.9259 12.9971C16.9259 13.178 16.9882 13.3081 17.1672 13.5005L17.4086 13.7598L18.7293 13.7816C19.6398 13.7965 20.1132 13.7775 20.2536 13.7203C20.5104 13.6157 20.7095 13.3437 20.7728 13.011C20.7999 12.8691 20.831 12.753 20.842 12.753C21.0006 12.753 21.9788 13.1168 22.4823 13.3629C24.0308 14.12 25.3745 15.4358 26.1504 16.9551C26.321 17.2892 26.7329 18.3159 26.7329 18.4071C26.7329 18.419 26.5776 18.449 26.3879 18.4738C26.1981 18.4986 25.9561 18.5859 25.8501 18.668C25.5177 18.9253 25.4629 19.1691 25.4629 20.3908C25.4629 21.614 25.5176 21.8562 25.8519 22.115C26.0359 22.2574 26.1186 22.2656 27.3842 22.2656C29.3532 22.2656 29.3434 22.2749 29.3434 20.394C29.3434 18.7009 29.2593 18.5534 28.2409 18.4605L27.7088 18.4119L27.5141 17.8217C27.2308 16.9634 26.9298 16.3544 26.4177 15.604C25.6056 14.4138 24.6371 13.5071 23.4557 12.831L22.8949 12.51L25.0781 12.4916C26.5396 12.4793 27.2694 12.497 27.2857 12.5453C27.2991 12.5849 27.4133 12.765 27.5394 12.9456C28.1681 13.8456 29.5926 13.934 30.3404 13.1194C31.2378 12.1418 30.7919 10.5796 29.5109 10.2131C28.583 9.94765 27.7261 10.3363 27.3169 11.2081L27.1458 11.5726H23.9408H20.7358V11.0612C20.7358 10.6418 20.7083 10.5154 20.5828 10.3585C20.3191 10.0285 20.0748 9.97563 18.8154 9.97577C17.8612 9.97584 17.6257 9.99639 17.4248 10.0973ZM17.8431 11.9198V12.8919H18.8761H19.9092L19.8639 12.4651C19.839 12.2304 19.8186 11.7929 19.8186 11.493V10.9477H18.8308H17.8431V11.9198ZM8.27363 11.1503C7.96404 11.3361 7.82441 11.5596 7.82441 11.8693C7.82441 12.4006 8.17612 12.753 8.70633 12.753C9.0893 12.753 9.34245 12.591 9.47707 12.2598C9.6694 11.7868 9.48377 11.2915 9.04697 11.1119C8.73427 10.9833 8.53552 10.9931 8.27363 11.1503ZM28.5721 11.1388C28.0501 11.4006 27.946 12.0468 28.3536 12.4957C28.5389 12.6998 28.5912 12.7183 28.9832 12.7183C29.5436 12.7183 29.7691 12.524 29.8206 11.9965C29.8605 11.5882 29.7478 11.3662 29.3925 11.153C29.1134 10.9855 28.8856 10.9815 28.5721 11.1388ZM16.3092 20.7858L14.3275 24.3053L14.6995 24.4541C15.7442 24.8719 16.5306 25.9052 16.6221 26.9806L16.6641 27.4731H18.8411H21.018V27.1669C21.018 26.7903 21.2235 26.1213 21.4625 25.72C21.728 25.2742 22.3029 24.7819 22.8486 24.5331L23.332 24.3128L21.4145 20.911C20.3599 19.04 19.4593 17.4468 19.413 17.3704C19.3457 17.259 19.3286 17.455 19.3268 18.3599C19.3253 19.1683 19.3478 19.4882 19.4063 19.4882C19.5646 19.4882 19.9628 19.8468 20.1014 20.1143C20.1943 20.2934 20.2419 20.523 20.2419 20.791C20.2419 22.2479 18.2304 22.724 17.5578 21.4264C17.3728 21.0695 17.3739 20.4738 17.5602 20.1143C17.6989 19.8468 18.0971 19.4882 18.2554 19.4882C18.3137 19.4882 18.337 19.1713 18.337 18.3772C18.337 17.7662 18.3266 17.2663 18.314 17.2663C18.3013 17.2663 17.3991 18.8501 16.3092 20.7858ZM9.26322 19.5286C9.28678 19.589 9.30604 20.0264 9.30604 20.5007V21.3629H10.3373H11.3685L11.326 21.2067C11.3026 21.1207 11.283 20.6833 11.2825 20.2346L11.2816 19.4187H10.251C9.34019 19.4187 9.2254 19.4315 9.26322 19.5286ZM26.3801 20.3908V21.3629H27.4031H28.4262V20.3908V19.4187H27.4031H26.3801V20.3908ZM18.5229 20.3959C18.2086 20.6391 18.3135 21.2075 18.6771 21.232C19.0724 21.2588 19.3247 21.0755 19.3247 20.7619C19.3247 20.5605 19.0335 20.252 18.8435 20.252C18.7694 20.252 18.6251 20.3167 18.5229 20.3959ZM22.078 26.6001C22.0341 26.731 21.992 26.9732 21.9844 27.1383L21.9705 27.4384L22.5032 27.4731C23.4616 27.5356 23.6285 27.7766 23.6285 29.098V29.9728L26.1861 29.9725C29.62 29.9722 29.4139 30.1117 29.4139 27.7878V26.3622H25.7859H22.1578L22.078 26.6001ZM15.0203 30.3373C15.02 31.4162 14.9997 32.4629 14.9752 32.6634L14.9307 33.0279H18.821H22.7113V30.7019V28.3758H18.8661H15.0209L15.0203 30.3373Z" fill="#0D5EF4"/>
</svg>
