<svg width="35" height="34" viewBox="0 0 35 34" fill="none" xmlns="http://www.w3.org/2000/svg">
<path fill-rule="evenodd" clip-rule="evenodd" d="M5.08917 0.0853279C4.4712 0.282915 4.38874 0.413465 2.17245 4.70685C1.04997 6.88124 0.0987438 8.795 0.0585081 8.9596C0.00643443 9.17242 -0.00906131 12.2267 0.0048383 19.5339C0.0267851 31.1212 -0.0256211 30.0305 0.566675 31.2389C0.831366 31.779 0.968833 31.9632 1.51398 32.5083C2.05872 33.0532 2.24367 33.1912 2.78343 33.456C3.99569 34.0507 2.63632 33.9989 17.0156 33.9989C31.3948 33.9989 30.0354 34.0507 31.2477 33.456C31.7875 33.1912 31.9724 33.0532 32.5172 32.5083C33.062 31.9636 33.2 31.7786 33.4648 31.2389C33.9073 30.337 34.0061 29.9089 34.0026 28.9112C33.9992 27.9464 33.8974 27.4871 33.5092 26.6833C32.876 25.3724 31.67 24.3856 30.1953 23.9715C29.6955 23.8312 29.5742 23.8277 24.4021 23.8059L19.1193 23.7836L23.8116 19.0817C28.1673 14.717 28.509 14.3582 28.5759 14.0798C28.6277 13.864 28.6276 13.696 28.5755 13.4812C28.509 13.2072 28.2292 12.9078 25.1701 9.83581C23.337 7.99507 21.7261 6.43133 21.5905 6.3609C21.2904 6.20521 20.8735 6.1961 20.5869 6.33902C20.4699 6.39742 18.3481 8.46819 15.8719 10.9407L11.3697 15.4364L11.3496 12.2146C11.331 9.25315 11.3195 8.97017 11.2065 8.71193C10.8165 7.8207 7.06558 0.712673 6.88574 0.524197C6.43537 0.0521417 5.73115 -0.119841 5.08917 0.0853279ZM6.00295 1.26161C6.14973 1.39262 7.4388 3.78329 7.4388 3.92455C7.4388 3.95408 7.2069 4.08902 6.92339 4.22435C6.42473 4.46251 6.38416 4.47042 5.67641 4.46909C4.90429 4.46763 4.43389 4.3434 4.04703 4.03874L3.88077 3.90779L4.54582 2.60541C5.21892 1.28728 5.34655 1.12088 5.68931 1.11463C5.76959 1.11317 5.91071 1.17927 6.00295 1.26161ZM3.84752 5.21907C4.45032 5.51276 4.97704 5.63433 5.64648 5.63433C6.33295 5.63433 7.09869 5.45444 7.62435 5.16973C7.82739 5.05979 8.00111 4.97739 8.01035 4.98664C8.01959 4.99588 8.4832 5.88293 9.04065 6.95792C9.88939 8.59488 10.0384 8.92428 9.95743 8.98587C9.90429 9.0263 9.473 9.371 8.99895 9.75194C8.52497 10.1329 8.09787 10.4748 8.04985 10.5117C7.98428 10.5622 7.75317 10.3714 7.11878 9.74316C6.65471 9.28355 6.20959 8.87434 6.12971 8.83377C5.94543 8.74033 5.44225 8.7386 5.20017 8.83065C5.09808 8.86948 4.63733 9.2745 4.17625 9.73073L3.33795 10.5602L2.32913 9.75361C1.77428 9.30995 1.32031 8.91783 1.32031 8.88219C1.32031 8.84654 1.72034 8.04881 2.20922 7.10949C2.6981 6.1701 3.14874 5.3024 3.21073 5.18117C3.27264 5.05999 3.34394 4.97154 3.36928 4.98464C3.39455 4.99774 3.60976 5.10329 3.84752 5.21907ZM24.281 10.5388C26.0278 12.2853 27.4569 13.7443 27.4569 13.7812C27.4569 13.8179 25.2199 16.0846 22.4856 18.8183L17.5144 23.7884L11.08 23.806C7.54102 23.8156 4.64558 23.809 4.64558 23.7913C4.64558 23.7735 4.99526 23.4084 5.42263 22.9799L6.19974 22.2008L6.45366 22.4303C6.77235 22.7182 7.09617 22.7423 7.34204 22.4964C7.58352 22.255 7.55765 21.9865 7.26157 21.6587L7.01782 21.3889L7.40934 20.9933L7.80086 20.5976L8.235 21.0265C8.84007 21.6243 9.06606 21.6908 9.41734 21.3746C9.51916 21.283 9.56697 21.1644 9.56697 21.0036C9.56697 20.7994 9.5018 20.7018 9.08601 20.2832L8.60497 19.799L9.01937 19.3846L9.4337 18.9702L10.3159 19.8506C11.1172 20.6503 11.2198 20.731 11.435 20.731C11.6759 20.731 11.8943 20.5651 11.9826 20.3148C12.0632 20.0867 11.8783 19.8234 11.0595 19.0004L10.2309 18.1676L10.6288 17.7738L11.0267 17.38L11.5201 17.8584C12.0769 18.3983 12.2784 18.458 12.6027 18.1791C12.7461 18.0558 12.7845 17.9668 12.779 17.7715C12.7729 17.5567 12.7103 17.4596 12.3333 17.0796C12.092 16.8366 11.8947 16.6074 11.8947 16.5705C11.8947 16.5336 12.0591 16.341 12.26 16.1426L12.6253 15.7818L13.5125 16.6603C14.3067 17.4468 14.4235 17.5386 14.6269 17.5367C14.8787 17.5343 15.0261 17.4459 15.1426 17.2273C15.3076 16.9172 15.2417 16.807 14.3554 15.9119C13.8798 15.4316 13.4908 15.0092 13.4908 14.973C13.4908 14.9368 13.654 14.7461 13.8535 14.549L14.2162 14.1908L14.7183 14.6677C15.147 15.075 15.2547 15.1446 15.4559 15.1446C15.7753 15.1446 16.018 14.9019 16.018 14.5825C16.018 14.3813 15.9484 14.2736 15.5411 13.8449L15.0642 13.3428L15.4224 12.9801C15.6195 12.7806 15.8102 12.6174 15.8464 12.6174C15.8826 12.6174 16.305 13.0064 16.7853 13.482C17.7005 14.3882 17.7827 14.4347 18.1414 14.2492C18.3537 14.1394 18.4122 14.0277 18.4122 13.7314C18.4122 13.5573 18.2792 13.3919 17.5337 12.6391L16.6552 11.7519L17.016 11.3866C17.2144 11.1857 17.407 11.0213 17.4439 11.0213C17.4808 11.0213 17.7131 11.2218 17.9601 11.4668C18.3421 11.8461 18.4437 11.9124 18.6416 11.9124C18.96 11.9124 19.2102 11.6729 19.2102 11.3684C19.2102 11.1752 19.1366 11.0642 18.7318 10.6467L18.2534 10.1533L18.6472 9.7554L19.041 9.3575L19.8738 10.1861C20.6968 11.0049 20.9601 11.1898 21.1882 11.1093C21.4385 11.0209 21.6044 10.8025 21.6044 10.5616C21.6044 10.3465 21.5237 10.2439 20.7244 9.44289L19.8444 8.56103L20.4404 7.96222C20.7682 7.63295 21.0518 7.36347 21.0707 7.36347C21.0897 7.36347 22.5343 8.7924 24.281 10.5388ZM6.53812 10.7492L7.3723 11.5745V15.5048V19.4352L5.67641 21.1301L3.98053 22.825V21.5741C3.98053 20.3114 3.95126 20.1291 3.72029 19.9517C3.53847 19.8121 3.19257 19.8503 3.01321 20.0297L2.84994 20.1929V22.0757V23.9585L1.98537 24.8211L1.1208 25.6838V17.9812C1.1208 13.7448 1.14527 10.2886 1.1752 10.3008C1.20519 10.313 1.59219 10.6073 2.03525 10.9548L2.84089 11.5866L2.84541 14.9834L2.84994 18.3801L2.99957 18.5149C3.21232 18.7064 3.34926 18.7404 3.58163 18.6593C3.98292 18.5195 3.98053 18.5422 3.98053 14.8662V11.522L4.79449 10.7061C5.24213 10.2573 5.62992 9.89779 5.65619 9.90703C5.68246 9.91634 6.0793 10.2953 6.53812 10.7492ZM10.232 13.433V16.5764L9.36746 17.439L8.50289 18.3017L8.50448 14.9441L8.50608 11.5866L9.31917 10.9416C9.76636 10.5869 10.1547 10.295 10.1821 10.2932C10.2095 10.2912 10.232 11.7042 10.232 13.433ZM29.9447 25.0731C31.6926 25.596 32.908 27.1703 32.908 28.9112C32.908 30.7461 31.546 32.4247 29.7513 32.8015C29.0512 32.9485 4.9799 32.9485 4.2798 32.8015C3.52796 32.6436 2.89303 32.2916 2.31184 31.7105C-0.0429127 29.3557 1.31646 25.439 4.64558 24.9865C4.84676 24.9592 10.533 24.941 17.2816 24.9462C28.805 24.955 29.5758 24.9628 29.9447 25.0731ZM4.2798 26.2076C3.79218 26.3688 3.42354 26.5973 3.07526 26.954C1.46815 28.6001 2.39258 31.3401 4.68302 31.7197C5.8742 31.917 7.12703 31.2469 7.65641 30.1292C7.85958 29.7003 7.87109 29.635 7.87109 28.9112C7.87109 28.1755 7.86258 28.1294 7.6471 27.7001C7.3699 27.1477 6.79004 26.5776 6.2604 26.3366C5.94383 26.1925 5.75848 26.1579 5.21088 26.1407C4.78345 26.1272 4.45079 26.1511 4.2798 26.2076ZM28.0203 26.2395C27.2984 26.5076 26.6529 27.0937 26.3393 27.766C26.1797 28.1083 26.1618 28.2231 26.161 28.9112C26.1601 29.6343 26.1716 29.7005 26.3724 30.1243C26.7627 30.9483 27.5478 31.5411 28.4748 31.7119C30.3355 32.0547 32.0635 30.3266 31.7207 28.466C31.5505 27.5423 30.9847 26.7897 30.152 26.3799C29.7357 26.1749 29.6297 26.1518 29.0236 26.1345C28.4994 26.1196 28.2824 26.1423 28.0203 26.2395ZM5.6687 27.3294C6.06141 27.4455 6.5896 27.9894 6.70246 28.3939C6.92325 29.1858 6.64001 29.9597 5.98573 30.352C5.26913 30.7818 4.49095 30.6915 3.91083 30.1115C2.63133 28.832 3.90923 26.8096 5.6687 27.3294ZM29.8243 27.4845C30.2192 27.7281 30.5515 28.2435 30.616 28.7123C30.7252 29.5062 30.1931 30.3184 29.4158 30.5443C28.3289 30.8603 27.2574 30.0792 27.2574 28.9709C27.2574 28.4256 27.3825 28.1167 27.7539 27.7444C28.1547 27.3427 28.4006 27.251 29.0262 27.2694C29.421 27.2811 29.5516 27.3163 29.8243 27.4845Z" fill="#0D5EF4"/>
</svg>
