<svg width="36" height="36" viewBox="0 0 36 36" fill="none" xmlns="http://www.w3.org/2000/svg">
<path fill-rule="evenodd" clip-rule="evenodd" d="M16.9784 0.138485C14.8355 0.773314 12.9328 2.88572 11.4828 6.24041C11.1767 6.94824 11.1174 6.98512 10.4765 6.86398C7.41663 6.28584 4.09619 6.67062 2.517 7.78613C1.16757 8.73915 0.782463 9.49667 0.773239 11.2152C0.767369 12.2985 0.666115 12.8094 0.377654 13.2115C-0.0640507 13.8271 -0.129877 15.0109 0.2416 15.6539C0.603433 16.2798 1.70885 16.8436 2.57591 16.8444C3.15912 16.845 3.42263 16.9706 3.77985 17.4179L4.23686 17.9904L3.13543 19.412C1.42961 21.6137 0.804475 23.0525 0.791687 24.8048C0.779109 26.5239 1.15562 27.2723 2.517 28.2338C4.09619 29.3493 7.41663 29.7341 10.4765 29.156C11.1171 29.035 11.1771 29.0719 11.4855 29.7795C12.6075 32.3536 13.8779 34.0836 15.3921 35.0995C17.1499 36.2787 18.8135 36.2993 20.6347 35.1643C21.4535 34.6541 21.8451 34.5225 22.2816 34.6112C23.6025 34.8799 25.2022 33.6025 25.2022 32.2791C25.2022 31.9587 25.0201 31.4202 24.7976 31.0824C24.4515 30.5567 24.4274 30.3655 24.6301 29.7533C24.8601 29.0595 24.8907 29.0418 25.667 29.1569C30.3088 29.8442 33.4596 29.1082 34.8698 27.0075C35.2858 26.3878 35.3692 26.0133 35.3604 24.8048C35.3476 23.0525 34.7225 21.6137 33.0167 19.412L31.9152 17.9904L32.3722 17.4179C32.7399 16.9572 32.9865 16.8452 33.6317 16.8452C34.2529 16.8452 34.6107 16.6951 35.217 16.1806C35.918 15.5856 36 15.4159 36 14.5604C36 13.9962 35.8711 13.4608 35.6855 13.2536C35.4627 13.0047 35.3711 12.441 35.3711 11.3169C35.3711 9.91096 35.3055 9.63956 34.7927 8.92183C33.9963 7.80671 32.8907 7.18605 31.0576 6.82476C29.5631 6.53006 27.6256 6.54288 25.623 6.86087C24.8947 6.97639 24.8863 6.96959 24.4962 5.94396C22.979 1.95639 19.6139 -0.64214 16.9784 0.138485ZM16.5807 1.50987C15.46 2.05831 14.1659 3.52715 13.2359 5.30642C12.7848 6.16936 12.4158 6.95697 12.4158 7.05676C12.4158 7.15655 13.0999 7.42251 13.9357 7.64791C14.7715 7.8733 16.0453 8.26138 16.7658 8.51026L18.076 8.96299L19.3863 8.51026C20.107 8.26138 21.3797 7.87349 22.2145 7.64849C23.9608 7.17771 23.9343 7.29574 22.7866 5.08627C21.1015 1.84243 18.7133 0.466189 16.5807 1.50987ZM4.83726 7.97658C2.82433 8.50677 1.9361 9.48309 1.93484 11.1666C1.934 12.1663 1.94595 12.1859 2.55306 12.1859C4.00228 12.1859 4.97373 13.1321 4.97373 14.5437C4.97373 15.135 4.84565 15.5765 4.60142 15.8263C4.24441 16.1917 4.24546 16.2259 4.62406 16.659L5.01902 17.1105L5.64604 16.6382C5.99089 16.3783 7.01707 15.5697 7.92647 14.8415L9.57988 13.5171L10.1622 10.7832C10.4824 9.27963 10.7044 8.0123 10.6553 7.96707C10.4033 7.73352 5.73073 7.74109 4.83726 7.97658ZM26.1995 7.85059C25.7672 7.89873 25.4165 7.99852 25.4203 8.0721C25.4242 8.14587 25.6848 9.40097 25.9995 10.8615L26.5718 13.5169L28.1413 14.7659C29.0046 15.453 29.9396 16.2457 30.2191 16.5272C30.8021 17.1146 31.1184 17.1659 31.5041 16.7353C31.7299 16.4835 31.7163 16.3369 31.4251 15.8803C31.2306 15.5753 31.0735 14.9222 31.0735 14.4177C31.0735 13.6398 31.1781 13.4091 31.7863 12.8459C32.3651 12.3099 32.6607 12.1859 33.3586 12.1859H34.2181V11.1468C34.2181 9.8038 33.6233 8.94882 32.2509 8.31865C31.4008 7.92824 30.8687 7.84146 29.1065 7.80574C27.9401 7.78205 26.632 7.80225 26.1995 7.85059ZM11.8127 8.93406C11.5559 9.68305 10.967 12.5741 11.0712 12.5741C11.1113 12.5741 11.7064 12.2373 12.3943 11.8257C13.0819 11.4142 14.2638 10.7809 15.021 10.4182C15.778 10.0558 16.3977 9.70401 16.3981 9.63665C16.3989 9.52871 12.5081 8.30312 12.1641 8.30312C12.0899 8.30312 11.9318 8.58695 11.8127 8.93406ZM21.6923 8.92436C20.6256 9.24876 19.7536 9.56928 19.754 9.63665C19.7544 9.70401 20.3741 10.0558 21.1311 10.4182C21.8883 10.7809 23.0702 11.4142 23.7578 11.8257C24.4457 12.2373 25.0408 12.5741 25.0809 12.5741C25.185 12.5741 24.5962 9.68305 24.3394 8.93406C24.2203 8.58695 24.0123 8.3103 23.8771 8.31884C23.7421 8.32758 22.7589 8.59996 21.6923 8.92436ZM15.8338 11.2944C14.6583 11.8675 13.0454 12.737 12.2496 13.2268L10.8027 14.1177L10.6746 16.0638C10.6042 17.1342 10.6042 18.8857 10.6746 19.9562L10.8027 21.9022L12.2561 22.797C13.0554 23.2892 14.6921 24.167 15.8927 24.7477L18.076 25.8036L20.2594 24.7477C21.46 24.167 23.0966 23.2892 23.896 22.797L25.3494 21.9022L25.4775 19.9562C25.5479 18.8857 25.5479 17.1342 25.4775 16.0638L25.3494 14.1177L23.9025 13.2268C22.6097 12.4311 18.3425 10.2528 18.076 10.2528C18.0184 10.2528 17.0094 10.7215 15.8338 11.2944ZM1.61011 13.6332C1.01516 14.1839 0.961912 14.6407 1.42186 15.2488C2.1015 16.1476 3.82513 15.6089 3.81759 14.5002C3.8136 13.9215 3.63961 13.6679 3.04843 13.3798C2.39394 13.0608 2.18913 13.0968 1.61011 13.6332ZM32.6364 13.6332C32.0414 14.1839 31.9882 14.6407 32.4481 15.2488C33.1278 16.1476 34.8514 15.6089 34.8439 14.5002C34.8399 13.9215 34.6659 13.6679 34.0747 13.3798C33.4202 13.0608 33.2154 13.0968 32.6364 13.6332ZM17.1327 13.9164C14.9596 14.4206 13.6053 15.9929 13.6066 18.01C13.6081 20.3794 15.5193 22.1496 18.076 22.1496C22.8096 22.1496 24.3056 16.2307 20.0676 14.2699C19.2502 13.8919 17.9257 13.7322 17.1327 13.9164ZM16.6463 15.2193C15.048 15.9739 14.3108 17.8285 15.042 19.2554C16.4893 22.0799 20.891 21.4551 21.3491 18.3604C21.6933 16.0352 18.8873 14.1612 16.6463 15.2193ZM7.69901 16.5209L6.02192 18.01L7.69901 19.499L9.37611 20.9879L9.43732 19.499C9.47108 18.6799 9.47108 17.34 9.43732 16.5209L9.37611 15.0321L7.69901 16.5209ZM26.6712 18.01V20.9502L27.2477 20.5322C28.213 19.832 30.0253 18.1835 30.0253 18.0053C30.0253 17.83 28.2365 16.2099 27.2466 15.4889L26.6712 15.0698V18.01ZM19.3406 18.2868C19.1144 18.7753 18.8318 19.1748 18.7125 19.1748C18.383 19.1748 18.453 19.9484 18.7934 20.0694C19.558 20.3412 20.6778 19.0533 20.5519 18.0473C20.4397 17.1509 19.8085 17.2758 19.3406 18.2868ZM4.28319 19.785C2.0906 22.4903 1.35435 25.1191 2.38786 26.552C2.66731 26.9395 3.32829 27.4402 3.92576 27.7168C4.87856 28.1581 5.21545 28.2022 7.63612 28.2022C9.13335 28.2022 10.3893 28.1171 10.5056 28.008C10.6423 27.8801 10.517 26.8953 10.1379 25.1177L9.56311 22.4216L8.52624 21.658C7.95603 21.2381 6.95753 20.4109 6.30765 19.8197L5.12593 18.745L4.28319 19.785ZM30.1302 19.5897C29.7843 19.9158 28.8449 20.6918 28.0426 21.3142L26.584 22.446L26.0116 25.13C25.6343 26.8995 25.5098 27.8801 25.6465 28.008C25.7628 28.1171 27.0187 28.2022 28.516 28.2022C30.9366 28.2022 31.2735 28.1581 32.2263 27.7168C34.1376 26.8316 34.6613 25.3435 33.8651 23.0603C33.4621 21.905 31.502 19.0981 31.0559 19.0374C30.8926 19.0152 30.4761 19.2637 30.1302 19.5897ZM11.2976 24.9504C11.6385 26.6666 11.9674 27.7168 12.1641 27.7168C12.5081 27.7168 16.3989 26.4912 16.3981 26.3833C16.3977 26.3159 15.778 25.9642 15.021 25.6017C14.2638 25.2391 13.0819 24.6058 12.3943 24.1942C11.7064 23.7826 11.1113 23.4458 11.0712 23.4458C11.0314 23.4458 11.1333 24.123 11.2976 24.9504ZM23.9216 24.0874C23.3895 24.4285 22.2348 25.0572 21.3558 25.4843C20.4768 25.9114 19.7567 26.3161 19.7554 26.3835C19.7542 26.4511 20.5315 26.7291 21.4826 27.0012C24.3356 27.8174 24.0909 27.8094 24.3366 27.0935C24.666 26.1333 25.1723 23.4443 25.0213 23.4565C24.9486 23.4623 24.4538 23.7463 23.9216 24.0874ZM16.2904 27.637C15.2793 27.9894 13.9938 28.3864 13.4338 28.5192C12.8739 28.6522 12.4158 28.8473 12.4158 28.9527C12.4158 29.0581 12.7848 29.8506 13.2359 30.7135C14.6003 33.3237 16.4459 34.9044 18.1201 34.8968C19.0955 34.8921 20.508 34.1092 20.4124 33.626C20.0881 31.9882 20.1393 31.4716 20.6856 30.8704C21.2523 30.2468 22.486 29.739 22.9952 29.9199C23.1813 29.9861 23.3658 29.8077 23.5115 29.4208C23.6362 29.0896 23.714 28.803 23.6849 28.784C23.6555 28.765 23.1597 28.632 22.5832 28.4887C22.0067 28.3453 20.7686 27.951 19.832 27.6122L18.1289 26.9966L16.2904 27.637ZM21.6552 31.5287C21.4162 31.81 21.2206 32.1476 21.2206 32.2791C21.2206 32.7211 22.0856 33.541 22.5518 33.541C23.3553 33.541 23.9459 33.0063 23.9459 32.2791C23.9459 31.075 22.4552 30.5868 21.6552 31.5287Z" fill="#0D5EF4"/>
</svg>
