<svg width="37" height="36" viewBox="0 0 37 36" fill="none" xmlns="http://www.w3.org/2000/svg">
<path fill-rule="evenodd" clip-rule="evenodd" d="M5.38853 0.0903472C4.73421 0.299557 4.6469 0.437787 2.30024 4.98372C1.11173 7.28602 0.104552 9.31235 0.0619497 9.48663C0.00681292 9.71197 -0.00959433 12.9459 0.00512291 20.683C0.0283607 32.9518 -0.0271282 31.797 0.600009 33.0765C0.88027 33.6484 1.02582 33.8434 1.60303 34.4206C2.17982 34.9975 2.37565 35.1436 2.94716 35.424C4.23073 36.0537 2.7914 35.9988 18.0165 35.9988C33.2416 35.9988 31.8022 36.0537 33.0858 35.424C33.6573 35.1436 33.8531 34.9975 34.4299 34.4206C35.0068 33.8438 35.1529 33.648 35.4333 33.0765C35.9018 32.1215 36.0065 31.6683 36.0028 30.6119C35.9991 29.5903 35.8914 29.1039 35.4803 28.2529C34.8099 26.8649 33.533 25.82 31.9715 25.3816C31.4423 25.233 31.3139 25.2294 25.8375 25.2063L20.244 25.1826L25.2123 20.2042C29.8242 15.5827 30.186 15.2028 30.2568 14.908C30.3116 14.6795 30.3116 14.5016 30.2564 14.2742C30.186 13.9841 29.8898 13.667 26.6507 10.4144C24.7098 8.46537 23.0042 6.80965 22.8605 6.73507C22.5428 6.57023 22.1014 6.56058 21.7979 6.71191C21.674 6.77373 19.4274 8.96632 16.8056 11.5843L12.0385 16.3444L12.0172 12.9331C11.9976 9.79746 11.9853 9.49783 11.8657 9.2244C11.4527 8.28074 7.4812 0.754595 7.29079 0.555032C6.81392 0.0552089 6.06827 -0.126891 5.38853 0.0903472ZM6.35607 1.33582C6.51148 1.47454 7.87638 4.00584 7.87638 4.1554C7.87638 4.18667 7.63084 4.32955 7.33065 4.47284C6.80266 4.72501 6.7597 4.73339 6.01032 4.73198C5.19277 4.73043 4.69471 4.59889 4.28509 4.27631L4.10905 4.13766L4.81322 2.75867C5.52592 1.363 5.66105 1.18682 6.02398 1.1802C6.10897 1.17865 6.2584 1.24864 6.35607 1.33582ZM4.07384 5.52608C4.7121 5.83704 5.26981 5.96576 5.97863 5.96576C6.70548 5.96576 7.51627 5.77529 8.07285 5.47383C8.28783 5.35743 8.47176 5.27018 8.48155 5.27997C8.49134 5.28976 8.98221 6.22898 9.57245 7.36721C10.4711 9.10047 10.6289 9.44924 10.5432 9.51445C10.4869 9.55726 10.0302 9.92224 9.5283 10.3256C9.02644 10.7289 8.57422 11.091 8.52338 11.13C8.45394 11.1835 8.20924 10.9815 7.53753 10.3163C7.04616 9.82964 6.57486 9.39636 6.49028 9.3534C6.29516 9.25447 5.76238 9.25264 5.50606 9.35009C5.39797 9.39122 4.91012 9.82006 4.42191 10.3031L3.5343 11.1814L2.46614 10.3273C1.87865 9.85759 1.39798 9.44241 1.39798 9.40467C1.39798 9.36692 1.82154 8.52227 2.33918 7.52769C2.85682 6.53305 3.33396 5.61431 3.39959 5.48594C3.46515 5.35764 3.54064 5.26398 3.56747 5.27786C3.59423 5.29173 3.8221 5.40348 4.07384 5.52608ZM25.7093 11.1588C27.5588 13.0079 29.072 14.5528 29.072 14.5918C29.072 14.6308 26.7034 17.0308 23.8083 19.9252L18.5446 25.1877L11.7317 25.2063C7.98461 25.2165 4.91885 25.2096 4.91885 25.1908C4.91885 25.172 5.2891 24.7854 5.74161 24.3317L6.56443 23.5067L6.83329 23.7497C7.17073 24.0546 7.51359 24.0801 7.77392 23.8197C8.02961 23.5641 8.00222 23.2798 7.68872 22.9328L7.43064 22.6471L7.84519 22.2282L8.25973 21.8093L8.71942 22.2634C9.36007 22.8963 9.59935 22.9668 9.9713 22.6319C10.0791 22.5349 10.1297 22.4094 10.1297 22.2392C10.1297 22.0229 10.0607 21.9196 9.62048 21.4763L9.11115 20.9636L9.54992 20.5248L9.98862 20.0861L10.9227 21.0183C11.7712 21.865 11.8798 21.9505 12.1077 21.9505C12.3627 21.9505 12.5939 21.7748 12.6875 21.5098C12.7728 21.2682 12.577 20.9895 11.71 20.118L10.8327 19.2363L11.254 18.8193L11.6753 18.4024L12.1978 18.9089C12.7873 19.4806 13.0007 19.5438 13.344 19.2485C13.4958 19.1179 13.5365 19.0237 13.5307 18.8169C13.5243 18.5895 13.458 18.4866 13.0587 18.0843C12.8033 17.8269 12.5943 17.5844 12.5943 17.5453C12.5943 17.5062 12.7684 17.3023 12.9811 17.0922L13.368 16.7102L14.3073 17.6403C15.1483 18.4731 15.2719 18.5703 15.4873 18.5682C15.7539 18.5658 15.91 18.4721 16.0333 18.2406C16.2081 17.9124 16.1382 17.7956 15.1998 16.8479C14.6963 16.3394 14.2844 15.8921 14.2844 15.8538C14.2844 15.8155 14.4572 15.6135 14.6684 15.4049L15.0525 15.0256L15.5841 15.5305C16.038 15.9617 16.152 16.0355 16.3651 16.0355C16.7033 16.0355 16.9602 15.7785 16.9602 15.4403C16.9602 15.2273 16.8865 15.1133 16.4553 14.6593L15.9504 14.1277L16.3296 13.7436C16.5383 13.5324 16.7402 13.3596 16.7785 13.3596C16.8169 13.3596 17.2641 13.7715 17.7726 14.275C18.7417 15.2346 18.8288 15.2838 19.2085 15.0874C19.4334 14.9712 19.4953 14.8529 19.4953 14.5392C19.4953 14.3548 19.3544 14.1797 18.5651 13.3825L17.635 12.4432L18.017 12.0564C18.227 11.8436 18.431 11.6696 18.47 11.6696C18.5091 11.6696 18.755 11.8819 19.0166 12.1414C19.4211 12.5429 19.5286 12.6132 19.7381 12.6132C20.0753 12.6132 20.3403 12.3596 20.3403 12.0371C20.3403 11.8326 20.2623 11.715 19.8337 11.273L19.3272 10.7506L19.7441 10.3292L20.161 9.90794L21.0428 10.7853C21.9142 11.6523 22.193 11.848 22.4345 11.7627C22.6996 11.6692 22.8753 11.438 22.8753 11.1829C22.8753 10.9551 22.7898 10.8465 21.9435 9.99836L21.0117 9.06462L21.6428 8.43058C21.9899 8.08195 22.2902 7.79662 22.3102 7.79662C22.3303 7.79662 23.8599 9.3096 25.7093 11.1588ZM6.92272 11.3815L7.80596 12.2553V16.4168V20.5784L6.01032 22.373L4.21468 24.1676V22.8432C4.21468 21.5062 4.18369 21.3132 3.93913 21.1254C3.74661 20.9776 3.38037 21.018 3.19045 21.208L3.01758 21.3808V23.3743V25.3678L2.10215 26.2812L1.18673 27.1946V19.0389C1.18673 14.5533 1.21264 10.8938 1.24433 10.9067C1.27609 10.9196 1.68585 11.2312 2.15497 11.5992L3.008 12.2681L3.01279 15.8648L3.01758 19.4613L3.17602 19.604C3.40128 19.8068 3.54627 19.8428 3.79231 19.7569C4.21721 19.6089 4.21468 19.6329 4.21468 15.7407V12.1997L5.07651 11.3359C5.55049 10.8607 5.9611 10.48 5.98891 10.4898C6.01673 10.4997 6.43691 10.9009 6.92272 11.3815ZM10.8339 14.2232V17.5515L9.91849 18.4649L9.00306 19.3782L9.00475 15.8232L9.00644 12.2681L9.86736 11.5852C10.3408 11.2096 10.7521 10.9006 10.7811 10.8986C10.8101 10.8966 10.8339 12.3927 10.8339 14.2232ZM31.7062 26.548C33.5568 27.1017 34.8438 28.7685 34.8438 30.6119C34.8438 32.5547 33.4016 34.332 31.5014 34.731C30.7601 34.8866 5.27284 34.8866 4.53155 34.731C3.73549 34.5638 3.06321 34.1911 2.44783 33.5758C-0.045437 31.0825 1.3939 26.9354 4.91885 26.4563C5.13186 26.4274 11.1526 26.4081 18.2982 26.4136C30.4994 26.4229 31.3155 26.4312 31.7062 26.548ZM4.53155 27.7492C4.01525 27.9199 3.62493 28.1618 3.25615 28.5395C1.55452 30.2824 2.53332 33.1836 4.95849 33.5855C6.21974 33.7945 7.54626 33.085 8.10679 31.9016C8.32191 31.4474 8.33409 31.3783 8.33409 30.6119C8.33409 29.8329 8.32508 29.784 8.09693 29.3296C7.80343 28.7447 7.18946 28.141 6.62865 27.8858C6.29347 27.7333 6.09721 27.6966 5.5174 27.6783C5.06482 27.664 4.7126 27.6894 4.53155 27.7492ZM29.6686 27.783C28.9041 28.0668 28.2207 28.6874 27.8887 29.3993C27.7197 29.7617 27.7007 29.8832 27.6999 30.6119C27.6989 31.3775 27.7111 31.4476 27.9237 31.8963C28.337 32.7687 29.1683 33.3964 30.1498 33.5773C32.1199 33.9403 33.9496 32.1105 33.5866 30.1405C33.4064 29.1624 32.8073 28.3656 31.9257 27.9316C31.4849 27.7146 31.3726 27.6902 30.7309 27.6719C30.1758 27.656 29.9461 27.6801 29.6686 27.783ZM6.00215 28.937C6.41797 29.0599 6.97722 29.6359 7.09672 30.0641C7.3305 30.9026 7.0306 31.722 6.33783 32.1375C5.57908 32.5925 4.75513 32.4969 4.14088 31.8827C2.78612 30.528 4.13919 28.3866 6.00215 28.937ZM31.5787 29.1013C31.9968 29.3591 32.3487 29.9049 32.4169 30.4013C32.5325 31.2418 31.9691 32.1018 31.1462 32.341C29.9953 32.6756 28.8608 31.8485 28.8608 30.6751C28.8608 30.0977 28.9932 29.7706 29.3865 29.3764C29.8108 28.9511 30.0712 28.854 30.7337 28.8735C31.1517 28.8859 31.29 28.9231 31.5787 29.1013Z" fill="#0D5EF4"/>
</svg>
