<svg width="36" height="36" viewBox="0 0 36 36" fill="none" xmlns="http://www.w3.org/2000/svg">
<path fill-rule="evenodd" clip-rule="evenodd" d="M17.05 0.115893C15.9856 0.570999 15.8505 2.48649 16.833 3.19088C17.2103 3.46145 17.3637 3.72103 17.3637 4.08955C17.3637 4.72233 17.3447 4.73388 16.0647 4.89009L15.0345 5.01581L15.0335 4.41658C15.0318 3.43584 14.6945 2.50506 14.198 2.11183C13.832 1.82195 13.4699 1.74295 12.5083 1.74295C11.4702 1.74295 11.2557 1.68847 11.0939 1.38399C10.9889 1.18665 10.6537 0.895328 10.3491 0.736771C8.82169 -0.0585371 7.15238 1.61884 7.9418 3.15571C8.29978 3.85271 8.7219 4.08792 9.61415 4.08792C10.1524 4.08792 10.4252 3.96599 10.8241 3.54678C11.2799 3.06768 11.458 3.00563 12.3742 3.00563C13.5838 3.00563 13.7804 3.21794 13.7804 4.52517V5.347L12.636 5.86939C9.61129 7.25022 7.2477 9.62821 5.87886 12.6675L5.35587 13.8286H4.53958C3.25046 13.8286 3.03027 13.6271 3.03027 12.4481C3.03027 11.5864 3.10784 11.3521 3.56777 10.8247C4.95363 9.23569 3.41709 7.00562 1.60964 7.98311C0.395777 8.63953 0.241872 9.91123 1.25292 10.9291C1.72628 11.4057 1.77609 11.5704 1.77609 12.6561C1.77609 13.7422 1.8259 13.9065 2.2998 14.3836C2.76563 14.8526 2.94588 14.9109 3.92987 14.9109H5.03623L4.90866 16.0383C4.75207 17.4222 4.74401 17.4363 4.09882 17.4363C3.74479 17.4363 3.48517 17.2966 3.29436 17.0035C2.61997 15.9672 0.948332 15.9369 0.33486 16.9499C-0.0817056 17.6379 -0.107147 18.1778 0.244739 18.8629C0.799443 19.9429 2.50745 20.0522 3.21427 19.0529C3.48302 18.673 3.74085 18.5186 4.10689 18.5186C4.74329 18.5186 4.75243 18.5346 4.90866 19.9165L5.03623 21.0439H3.92987C2.94588 21.0439 2.76563 21.1022 2.2998 21.5712C1.82016 22.0541 1.77609 22.2052 1.77609 23.3687C1.77609 24.4714 1.72682 24.6655 1.40252 24.8401C0.906944 25.1072 0.464936 26.2009 0.611675 26.7967C0.894581 27.9446 2.15664 28.5367 3.18238 28.0027C3.87164 27.6439 4.10527 27.2181 4.10527 26.3207C4.10527 25.7788 3.98416 25.5041 3.56777 25.1025C3.09548 24.6471 3.03027 24.4611 3.03027 23.5716C3.03027 23.0148 3.12702 22.4617 3.24527 22.3427C3.36352 22.2236 3.88687 22.1262 4.40807 22.1262H5.35587L5.89176 23.316C7.23552 26.2999 9.64497 28.7199 12.627 30.0813L13.7804 30.6078V31.4296C13.7804 32.7374 13.5842 32.9492 12.3719 32.9492C11.5031 32.9492 11.2675 32.8774 10.923 32.5082C10.0298 31.551 8.66259 31.6138 8.04088 32.6404C7.84792 32.9591 7.68989 33.3821 7.68989 33.5805C7.68989 34.1621 8.31841 35.0339 8.91809 35.2839C9.64049 35.5851 10.309 35.4047 10.9233 34.7427C11.3702 34.2611 11.5232 34.2119 12.5738 34.2119C13.4693 34.2119 13.8377 34.1282 14.198 33.843C14.6945 33.4498 15.0318 32.519 15.0335 31.5382L15.0345 30.939L16.0647 31.0647C17.3465 31.2211 17.3637 31.2318 17.3637 31.8734C17.3637 32.2298 17.225 32.4912 16.9339 32.6833C15.9046 33.3623 15.8745 35.0452 16.8807 35.6629C17.564 36.0823 18.1003 36.1079 18.7808 35.7536C19.8534 35.1951 19.962 33.4756 18.9694 32.7639C18.5921 32.4934 18.4387 32.2338 18.4387 31.8653C18.4387 31.2246 18.4547 31.2154 19.8273 31.0581L20.9471 30.9296V32.0435C20.9471 33.0342 21.0049 33.2156 21.4708 33.6846C21.9493 34.1664 22.1022 34.2119 23.2419 34.2119C24.3529 34.2119 24.5193 34.258 24.7648 34.6352C25.1091 35.1645 26.0018 35.5494 26.5583 35.4087C27.7788 35.1003 28.4008 33.8509 27.859 32.796C27.2785 31.6659 25.9344 31.4753 24.9968 32.39C24.4971 32.8778 24.2977 32.9492 23.4379 32.9492C22.8957 32.9492 22.3553 32.8518 22.2371 32.7327C22.1188 32.6137 22.0221 32.0868 22.0221 31.562V30.6078L23.1754 30.0813C26.1575 28.7199 28.5669 26.2999 29.9107 23.316L30.4466 22.1262H31.3944C31.9156 22.1262 32.4389 22.2236 32.5572 22.3427C32.6754 22.4617 32.7722 22.9989 32.7722 23.5364C32.7722 24.3651 32.6905 24.6076 32.2347 25.1301C31.2485 26.261 31.6663 27.8379 33.0443 28.186C34.1666 28.4696 35.4876 27.1306 35.2049 25.996C35.1367 25.7223 34.8435 25.2753 34.5536 25.0026C34.0719 24.5497 34.0263 24.4028 34.0263 23.3027C34.0263 22.2123 33.9769 22.0487 33.5026 21.5712C33.0368 21.1022 32.8566 21.0439 31.8726 21.0439H30.7662L30.8938 19.9165C31.0504 18.5326 31.0584 18.5186 31.7036 18.5186C32.0544 18.5186 32.3171 18.6578 32.5018 18.9417C33.264 20.113 34.8978 20.0132 35.6378 18.7503C36.002 18.1289 36.1361 17.1482 35.8309 17.3381C35.7396 17.395 35.6129 17.2772 35.5495 17.0762C35.421 16.6689 34.5948 16.1736 34.0437 16.1736C33.4897 16.1736 32.8059 16.5459 32.5018 17.0131C32.3171 17.297 32.0544 17.4363 31.7036 17.4363C31.0584 17.4363 31.0504 17.4222 30.8938 16.0383L30.7662 14.9109H31.8726C32.8566 14.9109 33.0368 14.8526 33.5026 14.3836C33.9823 13.9008 34.0263 13.7496 34.0263 12.5861C34.0263 11.5027 34.0788 11.2877 34.3829 11.1239C34.5789 11.0182 34.8683 10.6807 35.0257 10.3741C35.8157 8.83632 34.1496 7.1557 32.6231 7.95046C31.9308 8.31087 31.6972 8.73585 31.6972 9.63416C31.6972 10.176 31.8183 10.4508 32.2347 10.8523C32.7105 11.3112 32.7722 11.4905 32.7722 12.413C32.7722 13.6307 32.5613 13.8286 31.2629 13.8286H30.4466L29.9277 12.6765C28.5562 9.63127 26.1942 7.25166 23.1754 5.87353L22.0221 5.347V4.39277C22.0221 3.86804 22.1188 3.34114 22.2371 3.22209C22.3553 3.10303 22.9047 3.00563 23.4578 3.00563C24.3412 3.00563 24.526 3.07129 24.9784 3.54678C25.3772 3.96599 25.6501 4.08792 26.1883 4.08792C27.0805 4.08792 27.5027 3.85271 27.8606 3.15571C28.65 1.61884 26.9807 -0.0585371 25.4533 0.736771C25.1487 0.895328 24.8135 1.18665 24.7085 1.38399C24.5458 1.69009 24.3323 1.74295 23.2562 1.74295C22.1006 1.74295 21.9504 1.78732 21.4708 2.27021C21.0049 2.7392 20.9471 2.92067 20.9471 3.91133V5.02519L19.8273 4.89676C18.4527 4.73911 18.4387 4.73099 18.4387 4.08143C18.4387 3.72499 18.5774 3.46362 18.8685 3.27151C19.757 2.68545 19.9222 1.08888 19.1658 0.399635C18.7587 0.0287682 17.6133 -0.124918 17.05 0.115893ZM17.4334 1.45975C17.255 1.92784 17.5049 2.31458 17.9453 2.25163C18.2413 2.20924 18.3491 2.07359 18.3491 1.74295C18.3491 1.41231 18.2413 1.27666 17.9453 1.23427C17.7029 1.19963 17.4981 1.28983 17.4334 1.45975ZM9.15781 1.95941C8.84409 2.27526 8.89444 2.60608 9.28878 2.81857C9.78042 3.08355 10.2744 2.58624 10.0112 2.09127C9.80013 1.69424 9.47154 1.64356 9.15781 1.95941ZM25.7912 2.09127C25.528 2.58624 26.022 3.08355 26.5136 2.81857C26.908 2.60608 26.9583 2.27526 26.6446 1.95941C26.3309 1.64356 26.0023 1.69424 25.7912 2.09127ZM14.7244 6.41072C10.629 7.62163 7.55229 10.7132 6.44718 14.7282C5.98421 16.4099 5.94336 19.3 6.35939 20.9278C7.41128 25.0432 10.6576 28.3949 14.6726 29.5104C16.3451 29.975 19.2174 30.0156 20.8317 29.5975C24.9208 28.5381 28.2675 25.2281 29.3773 21.1453C29.7098 19.9223 29.7546 19.3824 29.6851 17.4474C29.617 15.5514 29.5258 14.9791 29.1275 13.9424C27.7626 10.3909 25.0294 7.69432 21.6637 6.57847C20.0107 6.03029 16.3131 5.941 14.7244 6.41072ZM15.6616 7.41166C14.2181 7.82402 13.7832 8.02677 12.5025 8.88395C10.5397 10.1977 9.04368 12.4137 8.5705 14.7085C8.26735 16.1781 8.44401 18.7491 8.93744 20.0518C9.16301 20.6471 9.40453 21.6673 9.47404 22.319C9.68976 24.3364 10.5139 25.1927 12.2397 25.1927H13.0637V25.92C13.0637 26.8358 13.4157 27.6789 14.0405 28.2592C14.5225 28.7069 14.5497 28.7102 17.9012 28.7102C21.2527 28.7102 21.28 28.7069 21.7619 28.2592C22.3822 27.6831 22.7388 26.8371 22.7388 25.9417V25.236L23.8113 25.1579C24.6326 25.0982 24.9932 24.9768 25.3507 24.6402C26.0276 24.0029 26.1888 23.6182 26.3293 22.3066C26.3984 21.6617 26.6403 20.6471 26.8668 20.0518C27.4324 18.5653 27.5611 15.7513 27.1314 14.2633C26.2485 11.2055 24.0633 8.81937 21.1524 7.73455C19.6617 7.17897 17.0194 7.02366 15.6616 7.41166ZM15.863 8.60634C14.8795 8.85472 13.4643 9.60151 12.5538 10.3526C9.77129 12.648 8.83818 16.6774 10.2866 20.1422C10.582 20.8487 10.7345 21.553 10.7345 22.211C10.7345 23.5579 11.0977 23.93 12.4124 23.93C13.1137 23.93 13.5014 24.0312 13.8457 24.304C14.2609 24.6326 14.3179 24.8067 14.3179 25.747C14.3179 27.4789 14.4356 27.5377 17.9012 27.5377C21.3669 27.5377 21.4846 27.4789 21.4846 25.747C21.4846 24.8067 21.5416 24.6326 21.9567 24.304C22.301 24.0312 22.6888 23.93 23.39 23.93C24.7048 23.93 25.0679 23.5579 25.0679 22.211C25.0679 21.5571 25.2199 20.85 25.5089 20.1586C26.9342 16.7494 26.1259 12.9234 23.4798 10.5539C23.0229 10.1448 22.0568 9.52467 21.333 9.17562C20.1539 8.60706 19.8364 8.53526 18.2871 8.48602C17.3358 8.45572 16.245 8.50983 15.863 8.60634ZM1.99109 9.17472C1.67737 9.49057 1.72771 9.8214 2.12206 10.0339C2.6137 10.2989 3.10767 9.80155 2.84447 9.30658C2.63341 8.90956 2.30481 8.85887 1.99109 9.17472ZM33.0769 9.07226C32.8562 9.2945 32.9424 9.99853 33.2027 10.099C33.3408 10.1524 33.603 10.0848 33.785 9.94857C34.0482 9.75159 34.0754 9.63416 33.9176 9.37477C33.7029 9.02176 33.2789 8.86915 33.0769 9.07226ZM13.506 16.8964C12.3508 17.2559 11.8625 18.1067 12.0413 19.4492C12.2766 21.2147 14.4902 22.1762 16.0647 21.1963C16.7108 20.7944 17.3526 19.664 17.3598 18.9154C17.3659 18.2684 16.8733 17.47 16.276 17.159C15.5944 16.8042 14.2204 16.674 13.506 16.8964ZM19.9616 16.9761C18.5573 17.4978 18.1225 18.6834 18.8221 20.0832C19.3811 21.2016 20.1623 21.6327 21.4527 21.5351C22.2566 21.4743 22.5053 21.363 23.0398 20.8249C24.1277 19.7298 24.0633 17.8757 22.914 17.192C22.1753 16.7528 20.8283 16.6543 19.9616 16.9761ZM0.0259745 17.9774C0.0259745 18.3246 0.0628831 18.4668 0.107854 18.2931C0.153005 18.1194 0.153005 17.8354 0.107854 17.6617C0.0628831 17.488 0.0259745 17.6302 0.0259745 17.9774ZM1.30828 17.6942C1.12983 18.1623 1.37977 18.549 1.82016 18.4861C2.39422 18.404 2.39422 17.5508 1.82016 17.4687C1.57775 17.4341 1.37296 17.5243 1.30828 17.6942ZM33.5585 17.6942C33.3801 18.1623 33.63 18.549 34.0704 18.4861C34.3664 18.4437 34.4743 18.3081 34.4743 17.9774C34.4743 17.6468 34.3664 17.5111 34.0704 17.4687C33.828 17.4341 33.6232 17.5243 33.5585 17.6942ZM13.6709 18.1542C12.9632 18.4421 12.9585 19.1329 13.6591 19.9165C14.4177 20.7649 16.1095 20.1238 16.1095 18.9879C16.1095 18.1582 14.7792 17.7032 13.6709 18.1542ZM20.0912 18.2583C19.5644 18.6297 19.5822 19.3254 20.1328 19.8795C20.6233 20.3736 21.5478 20.4681 22.0599 20.0765C22.4331 19.791 22.6997 19.0859 22.6017 18.6436C22.458 17.9958 20.8199 17.7444 20.0912 18.2583ZM17.1227 21.7894C16.6839 22.0463 16.1183 23.3294 16.1135 24.0792C16.1076 24.9764 16.9258 25.7339 17.9012 25.7339C18.8766 25.7339 19.6949 24.9764 19.689 24.0792C19.6839 23.3003 19.1065 22.0286 18.6449 21.7801C18.1895 21.5346 17.5515 21.5385 17.1227 21.7894ZM17.544 23.2958C17.2962 23.9521 17.3173 24.2078 17.6414 24.4788C17.8706 24.6702 17.9697 24.6599 18.2076 24.4203C18.4333 24.193 18.46 24.0035 18.3303 23.548C18.1171 22.7994 17.7731 22.689 17.544 23.2958ZM2.03319 25.9907C1.84077 26.1325 1.76247 26.34 1.83253 26.5236C2.00901 26.9868 2.51139 27.101 2.77513 26.7377C3.208 26.1419 2.62499 25.5549 2.03319 25.9907ZM33.0536 26.0173C32.8417 26.2306 32.8182 26.3854 32.958 26.6482C33.169 27.0453 33.4976 27.0959 33.8113 26.7801C34.1251 26.4642 34.0747 26.1334 33.6804 25.9209C33.4193 25.7802 33.2656 25.8039 33.0536 26.0173ZM9.19992 33.2061C8.83907 33.4716 8.95249 33.9774 9.41259 34.1551C9.75856 34.2887 10.2212 33.7638 10.0812 33.3965C9.94239 33.0323 9.55091 32.9477 9.19992 33.2061ZM25.8869 33.2326C25.675 33.446 25.6515 33.6007 25.7912 33.8636C26.0023 34.2606 26.3309 34.3113 26.6446 33.9954C26.9583 33.6796 26.908 33.3487 26.5136 33.1362C26.2526 32.9955 26.0989 33.0192 25.8869 33.2326ZM17.4334 33.9287C17.255 34.3968 17.5049 34.7835 17.9453 34.7206C18.2413 34.6782 18.3491 34.5425 18.3491 34.2119C18.3491 33.8812 18.2413 33.7456 17.9453 33.7032C17.7029 33.6686 17.4981 33.7587 17.4334 33.9287Z" fill="#0D5EF4"/>
</svg>
