<svg width="36" height="36" viewBox="0 0 36 36" fill="none" xmlns="http://www.w3.org/2000/svg">
<path fill-rule="evenodd" clip-rule="evenodd" d="M13.3915 0.199051C9.57236 1.60858 8.38565 5.89022 11.0148 8.77383C14.3472 12.4286 20.3977 10.1392 20.3675 5.2349C20.3548 3.18194 19.2443 1.42777 17.3546 0.476314C16.3759 -0.016682 14.3583 -0.157673 13.3915 0.199051ZM25.8338 1.04651C25.3448 1.4776 25.2143 1.75995 25.1367 2.55551C25.0334 3.61605 25.2656 4.10244 25.8752 4.10244C26.2467 4.10244 26.3824 3.76025 26.4737 2.5925L26.5254 1.9319H30.5449H34.5645V5.8955V9.8591H30.5449H26.5254L26.4297 7.70838C26.3491 5.89946 26.2791 5.52462 25.9877 5.34909C25.7102 5.18186 25.5846 5.21527 25.3532 5.51801C25.1266 5.81453 25.0778 6.34999 25.1253 8.01508C25.1829 10.0433 25.2083 10.1571 25.7163 10.6575L26.2469 11.1803H30.565H34.883L35.4415 10.5639L36 9.94743V5.99572C36 3.33388 35.9254 1.88245 35.7713 1.54913C35.3389 0.612964 34.8416 0.516328 30.4617 0.516328H26.4358L25.8338 1.04651ZM13.3119 1.53554C12.5441 1.86527 11.5092 2.90242 11.1855 3.66607C10.8199 4.529 10.8686 6.13049 11.2881 7.04136C11.918 8.40899 13.5381 9.39007 15.1589 9.38536C15.9075 9.38328 17.5708 8.6636 18.0451 8.13663C18.6073 7.51208 19.1476 6.11539 19.152 5.27605C19.1599 3.76497 18.2632 2.36393 16.8192 1.63142C15.9818 1.20675 14.1912 1.15786 13.3119 1.53554ZM13.3503 3.09588C13.2801 3.16496 13.2227 4.17851 13.2227 5.34796C13.2227 8.06472 13.2493 8.07812 15.9431 6.70804C18.6353 5.33909 18.645 5.1762 16.1095 3.92144C14.2702 3.01132 13.6302 2.81975 13.3503 3.09588ZM30.0071 3.35313C29.6685 3.61549 29.451 4.00618 29.372 4.49352C29.2853 5.0286 29.1586 5.2349 28.917 5.2349C28.7327 5.2349 28.4687 5.36947 28.3304 5.53387C28.0128 5.91135 28.3051 6.43625 28.8801 6.52081C29.2181 6.57044 29.2906 6.73163 29.3391 7.53945C29.4447 9.30363 30.6406 9.25814 30.6406 7.48981C30.6406 6.70615 30.6967 6.57422 31.0518 6.52213C31.635 6.43644 31.9309 5.91381 31.6111 5.53387C31.4727 5.36947 31.1919 5.2349 30.9873 5.2349C30.6942 5.2349 30.628 5.12449 30.6758 4.71586C30.7321 4.23343 30.8106 4.19021 31.7891 4.10244C32.7589 4.01543 32.8418 3.97089 32.8418 3.53621C32.8418 3.09097 32.7765 3.06134 31.6817 3.00906C30.7359 2.96395 30.4266 3.02755 30.0071 3.35313ZM14.3711 5.32927C14.3711 6.08443 14.4192 6.09953 15.317 5.62805L15.9759 5.28209L15.3745 4.97538C14.5135 4.53636 14.3711 4.58657 14.3711 5.32927ZM0.245335 6.02762C-0.0817783 6.35018 -0.0817783 16.0104 0.245335 16.333C0.569768 16.6529 7.8834 16.6529 8.20783 16.333C8.53494 16.0104 8.53494 6.35018 8.20783 6.02762C7.8834 5.7077 0.569768 5.7077 0.245335 6.02762ZM1.35549 11.1803V15.2383H4.32229H7.28908V11.1803V7.12233H4.32229H1.35549V11.1803ZM3.72165 8.5379C3.48948 9.13433 3.80204 9.38724 4.77132 9.38724C5.84913 9.38724 6.35617 9.02146 5.94924 8.5379C5.79669 8.35652 5.37311 8.25479 4.77132 8.25479C4.1127 8.25479 3.79879 8.33953 3.72165 8.5379ZM21.4876 10.6805C20.2917 12.2663 20.2046 12.4677 20.5807 12.7756C21.0232 13.1378 21.3303 12.9281 22.4029 11.5308C23.4336 10.1883 23.5818 9.5254 22.8737 9.42556C22.5744 9.38328 22.2322 9.69301 21.4876 10.6805ZM2.74318 10.6446C2.40019 10.7813 2.44765 11.5904 2.80673 11.7263C2.97326 11.7894 3.70232 11.8409 4.42698 11.8409C5.49312 11.8409 5.77908 11.7769 5.92627 11.5057C6.04169 11.2932 6.04073 11.0516 5.92359 10.8451C5.77391 10.5816 5.47666 10.5225 4.36057 10.5346C3.6026 10.5427 2.87487 10.5924 2.74318 10.6446ZM23.5586 13.3769C22.2247 14.3929 21.9133 15.0877 22.7396 15.2035C23.3092 15.2834 25.9292 13.2463 25.773 12.845C25.7131 12.691 25.6641 12.5294 25.6641 12.486C25.6641 12.4426 25.4704 12.412 25.2334 12.4181C24.9964 12.4241 24.2429 12.8556 23.5586 13.3769ZM2.57322 13.2565C2.3085 13.9363 2.63255 14.1058 4.19711 14.1058C5.30918 14.1058 5.7741 14.0307 5.94924 13.8227C6.1393 13.5968 6.1393 13.4824 5.94924 13.2565C5.7741 13.0485 5.30918 12.9734 4.19711 12.9734C3.028 12.9734 2.6582 13.0379 2.57322 13.2565ZM13.6922 16.3856C11.3812 18.2623 8.80942 20.1945 7.97738 20.6795C6.22065 21.7033 5.71725 22.2793 5.69027 23.297C5.67438 23.8912 5.5626 24.0998 5.09901 24.3999C4.7807 24.606 4.44938 25.0387 4.35119 25.377C3.89698 26.9409 5.73793 28.3112 7.06322 27.3958C7.3911 27.1695 7.56049 27.1483 7.75726 27.3093C8.32593 27.7748 9.21463 27.8757 10.1085 27.5764C11.0898 27.248 11.0096 27.1951 11.8011 28.6922C12.6123 30.2265 14.0212 30.5557 15.0573 29.4533C15.6807 28.7898 15.6466 28.1953 14.9053 26.812C14.5616 26.1706 14.3223 25.6101 14.3736 25.5667C14.4249 25.5233 16.3947 24.7753 18.7509 23.9044C21.1071 23.0337 23.1727 22.222 23.341 22.1008C23.7211 21.8265 23.5561 21.4547 21.6158 18.21C20.4938 16.3339 20.2094 15.98 19.862 16.0291C19.6338 16.0614 19.4179 16.2392 19.3821 16.4243C19.3463 16.6095 19.8976 17.7561 20.6073 18.9724C21.3169 20.1886 21.9238 21.2348 21.9563 21.2975C21.9887 21.36 19.8536 22.2006 17.2114 23.1655C14.5694 24.1303 11.7297 25.2985 10.9007 25.7616C8.96197 26.8446 8.70587 26.791 7.67936 25.0874C6.86512 23.7359 6.75314 23.244 7.14553 22.7442C7.35205 22.4811 9.27377 21.278 9.48738 21.278C9.5293 21.278 9.83631 21.7829 10.1699 22.3999C10.8714 23.6979 11.3643 24.2009 11.78 24.0437C12.2587 23.8625 12.1077 23.15 11.3136 21.8443C10.6132 20.6926 10.5874 20.5978 10.8902 20.2958C11.0676 20.119 12.7202 18.7487 14.5625 17.2508L17.9121 14.5273L18.3372 14.9104C18.6881 15.2269 18.8133 15.2519 19.055 15.0541C19.216 14.9223 19.3477 14.6864 19.3477 14.5297C19.3477 14.0488 18.5702 12.9734 18.2226 12.9734C18.0421 12.9734 16.0034 14.5088 13.6922 16.3856ZM25.9454 16.1595C24.1508 16.5404 23.9414 16.6433 23.9414 17.1427C23.9414 17.7189 24.3799 17.7638 26.29 17.3833C27.885 17.0655 28.063 16.9875 28.1212 16.5808C28.1568 16.333 28.0706 16.0584 27.9297 15.9702C27.6246 15.7796 27.8264 15.7603 25.9454 16.1595ZM1.9389 18.6187C1.81085 18.8546 1.7383 21.2071 1.7383 25.1241V31.2597L0.924827 31.3178L0.111351 31.3758V32.7121C0.111351 33.8723 0.1793 34.136 0.626999 34.7145C1.63341 36.0149 1.51436 36 10.8301 36C20.1458 36 20.0268 36.0149 21.0332 34.7145C21.4809 34.136 21.5488 33.8723 21.5488 32.7121V31.3758L20.7354 31.3178L19.9219 31.2597V28.3812C19.9219 25.3309 19.7776 24.7551 19.0479 24.8932C18.7021 24.9587 18.6743 25.1711 18.6253 28.1224L18.5729 31.2814H10.8255H3.07815V25.3411V19.401L5.80568 19.3485L8.53322 19.2962V18.8244V18.3525L5.33636 18.3008C2.32917 18.2521 2.12762 18.271 1.9389 18.6187ZM25.8107 19.3748L25.1856 19.9251L25.127 23.8936C25.0405 29.77 24.9095 29.6433 30.9706 29.5491L34.8837 29.4884L35.4419 28.8719C35.9137 28.3508 36 28.0966 36 27.227C36 26.429 35.9227 26.1578 35.6547 26.0164C35.0924 25.7197 34.7763 26.087 34.6665 27.1655L34.5645 28.1672H30.5449H26.5254V24.2036V20.24L30.5928 20.189L34.6602 20.138L34.663 22.1708C34.6648 23.2889 34.739 24.3172 34.8282 24.4559C34.9176 24.5948 35.1961 24.6798 35.4474 24.6447C35.8934 24.5826 35.9056 24.5314 35.959 22.5132C35.9927 21.2361 35.9278 20.2407 35.7891 19.9104C35.3515 18.8686 35.1404 18.8244 30.601 18.8244H26.4358L25.8107 19.3748ZM28.9991 22.4579C27.7753 23.5637 27.9464 25.3443 29.358 26.1929C30.8877 27.1128 32.9375 26.0076 32.9375 24.263C32.9375 22.7676 31.9902 21.8443 30.4559 21.8443C29.8451 21.8443 29.5322 21.976 28.9991 22.4579ZM29.9229 23.2649C29.421 23.6137 29.3272 24.683 29.7669 25.0427C30.2456 25.4345 31.2644 25.2075 31.5877 24.6369C31.8545 24.166 31.8461 24.0856 31.4788 23.5988C31.0018 22.9665 30.5053 22.8599 29.9229 23.2649ZM5.80568 25.3666C5.67419 25.4191 5.56643 25.6671 5.56643 25.9179C5.56643 26.2758 5.66711 26.3741 6.03365 26.3741C6.62126 26.3741 6.79181 26.1136 6.52556 25.6231C6.31367 25.2328 6.22314 25.2005 5.80568 25.3666ZM12.493 26.3409L12.0503 26.6767L12.6768 27.7521C13.1517 28.5673 13.4095 28.8278 13.7416 28.8278C14.3592 28.8278 14.3116 28.2517 13.5915 27.0105C13.2678 26.4528 12.988 25.9985 12.9694 26.0008C12.9507 26.003 12.7363 26.1561 12.493 26.3409ZM1.35549 33.083C1.35549 34.1067 2.03862 34.6788 3.26094 34.6788C4.07805 34.6788 4.22658 34.6242 4.22658 34.3243C4.22658 33.8744 4.70912 33.4712 5.07968 33.6115C5.23587 33.6705 5.41866 33.935 5.48584 34.1988L5.60796 34.6788H10.8301H16.0522L16.1743 34.1988C16.2415 33.935 16.4243 33.6705 16.5805 33.6115C16.9511 33.4712 17.4336 33.8744 17.4336 34.3243C17.4336 34.6242 17.5821 34.6788 18.3992 34.6788C19.6216 34.6788 20.3047 34.1067 20.3047 33.083V32.4139H10.8301H1.35549V33.083Z" fill="#0D5EF4"/>
</svg>
