<svg width="36" height="36" viewBox="0 0 36 36" fill="none" xmlns="http://www.w3.org/2000/svg">
<path fill-rule="evenodd" clip-rule="evenodd" d="M5.39601 0.0457664C5.03048 0.132151 4.50083 0.466515 4.28179 0.749122C3.9194 1.2167 3.88392 1.43255 3.88041 3.19216L3.87712 4.82795H2.80751C1.24357 4.82795 0.718329 5.0355 0.235217 5.84428L0.0298552 6.18806L0.0103574 18.6464C-0.0115309 32.5745 -0.0519459 31.5193 0.526115 32.1056C1.14272 32.7308 0.586102 32.6882 8.15394 32.69L14.8586 32.6916V34.1653C14.8586 35.632 14.8595 35.64 15.042 35.8195L15.2254 36H19.9385H24.6517L24.835 35.8195C25.0175 35.64 25.0184 35.632 25.0184 34.1653V32.6916H27.8425H30.6666L31.0532 32.502C31.2658 32.3978 31.5417 32.1858 31.6664 32.0309C32.0732 31.5253 32.1153 31.2909 32.1153 29.5288V27.9284L33.2919 27.9023C34.4034 27.8776 34.4922 27.8647 34.8965 27.6693C35.1319 27.5555 35.4252 27.3423 35.5481 27.1955C36.0299 26.6204 36 27.4976 35.9995 13.9496C35.9993 5.68967 35.9736 1.53967 35.9218 1.35602C35.8044 0.939831 35.4057 0.478499 34.9514 0.233019L34.5432 0.0124623L20.0879 0.00114035C12.1375 -0.00510876 5.52614 0.0149619 5.39601 0.0457664ZM5.37838 1.09797C5.27962 1.14789 5.12834 1.28213 5.04221 1.39616C4.89235 1.59474 4.88466 1.70141 4.86389 3.87743L4.84215 6.1513H6.45135H8.06056L8.06108 5.21393C8.0616 4.20113 8.13713 3.96183 8.52298 3.75112C8.76449 3.61916 13.9236 3.61467 14.1601 3.74612C14.2484 3.79523 14.8315 4.35655 15.456 4.99337L16.5913 6.1513H25.81H35.0288V3.98013C35.0288 1.56731 35.0041 1.41653 34.5664 1.15392C34.3206 1.00644 34.2315 1.00556 19.9385 1.00629C8.67366 1.00695 5.51904 1.0268 5.37838 1.09797ZM25.3546 2.31611C24.9912 2.48616 24.7645 2.71928 24.6111 3.08056C24.4496 3.46094 24.4663 3.7126 24.681 4.13349C24.9026 4.56807 25.2688 4.83237 25.7185 4.88221C26.5601 4.97558 27.2595 4.36706 27.2595 3.54137C27.2595 2.57747 26.222 1.91013 25.3546 2.31611ZM28.6812 2.29765C28.1065 2.54299 27.8249 3.01601 27.872 3.65709C27.9242 4.36655 28.4994 4.89574 29.2229 4.89986C29.8052 4.90316 30.3809 4.46359 30.542 3.89257C30.6386 3.55056 30.6386 3.53226 30.5432 3.19444C30.3256 2.42344 29.4145 1.98461 28.6812 2.29765ZM32.0033 2.28368C31.692 2.41793 31.3133 2.81861 31.2118 3.12121C30.9101 4.02108 31.6835 4.97514 32.6413 4.88456C33.6918 4.78524 34.2449 3.64577 33.6628 2.78016C33.3213 2.27229 32.5587 2.04416 32.0033 2.28368ZM25.6952 3.25987C25.454 3.42617 25.5077 3.80839 25.7858 3.90404C25.9574 3.96308 26.0206 3.94786 26.1556 3.81501C26.289 3.68378 26.3056 3.61945 26.2474 3.45911C26.1543 3.2026 25.9075 3.11357 25.6952 3.25987ZM32.3912 3.19451C32.2116 3.2323 32.0926 3.546 32.1899 3.72502C32.3461 4.01234 32.7979 3.96742 32.8988 3.65452C32.9919 3.36588 32.7253 3.1243 32.3912 3.19451ZM28.918 3.29876C28.7816 3.43301 28.8108 3.68672 28.98 3.83743C29.3064 4.12813 29.7794 3.65128 29.4969 3.3164C29.3885 3.18789 29.0414 3.17731 28.918 3.29876ZM9.03171 5.56425V6.52102L8.77615 6.79569L8.52051 7.07028L6.68443 7.09234L4.84828 7.11432V16.597C4.84828 26.771 4.83319 26.361 5.21933 26.6998C5.38286 26.8434 5.50366 26.8473 10.3282 26.8619L15.2695 26.8769L14.8793 26.7015C14.6284 26.5888 14.4352 26.439 14.338 26.2821C14.0078 25.7491 13.965 25.8444 16.7694 20.8747C18.1901 18.3571 19.4246 16.2475 19.5127 16.1868C19.7188 16.0447 20.1586 16.045 20.3651 16.1873C20.4536 16.2484 21.6881 18.3588 23.1084 20.8771C25.3144 24.7885 25.6907 25.4994 25.6907 25.7545C25.6907 26.1934 25.4382 26.5172 24.9409 26.716L24.5328 26.8792L29.426 26.8811C34.2041 26.8831 34.3249 26.8796 34.5664 26.7347C35.0559 26.441 35.0288 27.0364 35.0288 16.5933V7.10704L25.6721 7.10675C16.7088 7.10653 16.3059 7.10079 16.0893 6.97081C15.965 6.89619 15.3791 6.33392 14.7872 5.72128L13.7112 4.6074H11.3714H9.03171V5.56425ZM1.37558 6.01661C0.939752 6.35399 0.963658 5.61145 0.963658 18.7966C0.963658 32.154 0.932431 31.2908 1.42608 31.5869C1.66916 31.7328 1.78533 31.7354 8.26599 31.7356L14.8586 31.7359V30.8096C14.8586 29.4106 15.0354 29.1553 16.0501 29.0892L16.6142 29.0525L16.5995 28.7346C16.5914 28.5598 16.5471 28.3044 16.5011 28.1671L16.4173 27.9174L10.8756 27.8968L5.33385 27.8762L4.92298 27.6481C4.46116 27.3917 4.07068 26.9417 3.95526 26.5326C3.90372 26.35 3.87779 22.8583 3.87757 16.058L3.87712 5.85722H2.72929C1.66491 5.85722 1.56645 5.86884 1.37558 6.01661ZM18.4497 10.6912C18.0463 10.8937 17.9077 11.1402 17.8647 11.732L17.8267 12.2534H14.4853H11.144L10.9101 11.7859C10.3466 10.6594 8.90464 10.3675 7.93573 11.1837C7.34302 11.683 7.11555 12.6207 7.41773 13.3194C8.05264 14.7873 10.181 14.8888 10.9084 13.4858L11.0518 13.2091H13.3287C14.581 13.2091 15.6057 13.2232 15.6057 13.2405C15.6057 13.2577 15.419 13.377 15.1908 13.5055C13.1272 14.6674 11.4179 16.7581 10.7374 18.9527L10.5635 19.5133L10.0287 19.5531C9.70808 19.577 9.41479 19.6439 9.29631 19.7203C8.92242 19.9614 8.88223 20.1443 8.88283 21.605C8.8832 22.811 8.89821 22.9727 9.02768 23.166C9.2819 23.5454 9.39724 23.5699 10.95 23.5727L12.3828 23.5753L12.6425 23.3342C12.9706 23.0296 13.0134 22.7738 12.9794 21.3205C12.9584 20.4255 12.9294 20.1868 12.8219 20.0256C12.6309 19.7389 12.3878 19.6064 11.9623 19.5568L11.587 19.5131L11.7586 19.0164C12.4748 16.9444 14.0593 15.1592 16.0708 14.1582C16.6061 13.8917 17.6565 13.5032 17.8413 13.5032C17.8854 13.5032 17.9215 13.6195 17.9215 13.7616C17.9215 13.9532 17.9875 14.0909 18.1771 14.2946L18.4326 14.5692L19.831 14.5922C20.7951 14.6081 21.2963 14.588 21.445 14.5274C21.7169 14.4166 21.9277 14.1286 21.9948 13.7764C22.0234 13.6261 22.0564 13.5032 22.068 13.5032C22.2359 13.5032 23.2717 13.8884 23.8048 14.149C25.4444 14.9506 26.8671 16.3438 27.6886 17.9525C27.8693 18.3063 28.3054 19.3933 28.3054 19.4899C28.3054 19.5025 28.141 19.5342 27.9401 19.5605C27.7391 19.5867 27.4829 19.6792 27.3707 19.7661C27.0187 20.0386 26.9607 20.2966 26.9607 21.5903C26.9607 22.8854 27.0186 23.1418 27.3726 23.4159C27.5674 23.5667 27.655 23.5753 28.995 23.5753C31.0798 23.5753 31.0695 23.5852 31.0695 21.5937C31.0695 19.801 30.9804 19.6447 29.9021 19.5464L29.3388 19.495L29.1326 18.8701C28.8327 17.9612 28.5139 17.3164 27.9717 16.5219C27.1118 15.2617 26.0863 14.3017 24.8355 13.5858L24.2416 13.2459L26.5533 13.2264C28.1008 13.2134 28.8734 13.2321 28.8908 13.2832C28.905 13.3252 29.0258 13.5159 29.1593 13.7071C29.825 14.6601 31.3333 14.7537 32.1252 13.8911C33.0753 12.856 32.6032 11.202 31.2468 10.8139C30.2644 10.5328 29.357 10.9444 28.9238 11.8674L28.7426 12.2534H25.3491H21.9555V11.7119C21.9555 11.2678 21.9264 11.134 21.7936 10.9678C21.5143 10.6185 21.2556 10.5624 19.9222 10.5626C18.9119 10.5627 18.6625 10.5844 18.4497 10.6912ZM18.8927 12.621V13.6502H19.9865H21.0804L21.0323 13.1983C21.006 12.9498 20.9844 12.4866 20.9844 12.169V11.5917H19.9385H18.8927V12.621ZM8.76031 11.8062C8.43251 12.0029 8.28467 12.2395 8.28467 12.5674C8.28467 13.13 8.65707 13.5032 9.21847 13.5032C9.62397 13.5032 9.892 13.3317 10.0345 12.981C10.2382 12.4802 10.0416 11.9557 9.57914 11.7655C9.24805 11.6293 9.03761 11.6398 8.76031 11.8062ZM30.2529 11.794C29.7001 12.0712 29.5899 12.7554 30.0215 13.2307C30.2177 13.4469 30.273 13.4664 30.6881 13.4664C31.2815 13.4664 31.5202 13.2607 31.5748 12.7022C31.617 12.2698 31.4977 12.0348 31.1214 11.809C30.8259 11.6317 30.5848 11.6275 30.2529 11.794ZM17.2686 22.0085L15.1703 25.735L15.5641 25.8925C16.6704 26.335 17.5029 27.429 17.5999 28.5677L17.6444 29.0892H19.9494H22.2544V28.7649C22.2544 28.3662 22.472 27.6578 22.725 27.2329C23.0061 26.7609 23.6148 26.2397 24.1926 25.9763L24.7045 25.7429L22.6742 22.1411C21.5575 20.16 20.6039 18.4731 20.555 18.3922C20.4836 18.2743 20.4656 18.4818 20.4637 19.4399C20.4621 20.2958 20.486 20.6345 20.5478 20.6345C20.7155 20.6345 21.1371 21.0143 21.2839 21.2975C21.3822 21.4871 21.4326 21.7302 21.4326 22.014C21.4326 23.5565 19.3028 24.0607 18.5906 22.6867C18.3947 22.3089 18.3959 21.6781 18.5932 21.2975C18.74 21.0143 19.1616 20.6345 19.3292 20.6345C19.3909 20.6345 19.4156 20.299 19.4156 19.4582C19.4156 18.8113 19.4046 18.2819 19.3912 18.2819C19.3778 18.2819 18.4226 19.9589 17.2686 22.0085ZM9.80811 20.6773C9.83306 20.7413 9.85346 21.2045 9.85346 21.7066V22.6195H10.9454H12.0373L11.9922 22.4541C11.9675 22.3631 11.9467 21.8999 11.9462 21.4249L11.9452 20.561H10.854C9.88961 20.561 9.76807 20.5745 9.80811 20.6773ZM27.9319 21.5903V22.6195H29.0151H30.0983V21.5903V20.561H29.0151H27.9319V21.5903ZM19.6124 21.5956C19.2797 21.8532 19.3907 22.455 19.7757 22.481C20.1943 22.5093 20.4615 22.3153 20.4615 21.9832C20.4615 21.77 20.1532 21.4432 19.952 21.4432C19.8735 21.4432 19.7207 21.5118 19.6124 21.5956ZM23.3767 28.1649C23.3302 28.3034 23.2856 28.5598 23.2776 28.7346L23.2629 29.0525L23.827 29.0892C24.8417 29.1553 25.0184 29.4106 25.0184 30.8096V31.7359L27.7264 31.7356C31.3624 31.7352 31.1442 31.8829 31.1442 29.4224V27.9129H27.3027H23.4612L23.3767 28.1649ZM15.9038 32.1219C15.9035 33.2642 15.882 34.3725 15.8561 34.5848L15.809 34.9707H19.9281H24.0473V32.5078V30.045H19.9759H15.9045L15.9038 32.1219Z" fill="#0D5EF4"/>
</svg>
