<svg width="36" height="36" viewBox="0 0 36 36" fill="none" xmlns="http://www.w3.org/2000/svg">
<path fill-rule="evenodd" clip-rule="evenodd" d="M24.4518 0.216516C24.1415 0.573957 23.6117 5.90582 23.8454 6.31826C24.0679 6.71087 24.6487 6.77453 24.9411 6.43837C25.049 6.31448 25.2824 4.93196 25.46 3.3664C25.7144 1.12202 25.7335 0.463948 25.5503 0.25547C25.2658 -0.0682465 24.7159 -0.0877237 24.4518 0.216516ZM12.5617 5.08579C11.7145 5.48922 11.6912 5.52619 8.55832 11.4705L5.40713 17.4494L3.36095 18.7558C1.2678 20.0922 0.611969 20.7703 0.161061 22.0641C-0.151766 22.9618 0.00464756 24.434 0.512849 25.3746C1.01227 26.2991 2.48683 27.527 3.37833 27.7609C4.43962 28.0392 5.897 27.9721 6.75164 27.6055L7.52301 27.2746L10.3556 31.2152C13.1784 35.1419 13.6967 35.6804 14.9157 35.9516C16.1777 36.2326 17.8555 35.253 18.3024 33.9743C18.6897 32.8661 18.3923 32.2259 15.7826 28.5494C14.4119 26.6186 13.3225 25.0084 13.3619 24.9714C13.401 24.9342 15.7526 24.7341 18.5873 24.5263C24.8943 24.0643 24.8317 24.0736 25.5773 23.4812C26.4754 22.7674 26.8834 21.7663 26.8883 20.2635C26.9067 14.7053 20.7093 6.44667 15.4039 4.95883C14.0679 4.58426 13.568 4.60662 12.5617 5.08579ZM30.2653 6.90636C28.8117 7.82125 27.5413 8.70637 27.4424 8.87355C27.3098 9.09682 27.3679 9.2768 27.6618 9.55435L28.0613 9.93163L28.9571 9.43965C30.7861 8.43514 33.7921 6.45316 33.904 6.17796C34.058 5.79887 33.7211 5.31952 33.2709 5.27714C33.0716 5.25838 31.719 5.99148 30.2653 6.90636ZM12.9169 6.64C12.365 7.10564 12.2956 7.27841 12.2219 8.37057C12.1134 9.98032 12.5391 11.4801 13.8111 13.9677C15.6256 17.5171 18.7017 20.8056 21.3993 22.0799C22.8323 22.7569 23.3426 22.8372 24.1117 22.5063C24.8427 22.1917 25.2127 21.5122 25.3162 20.2933C25.442 18.8137 25.0131 17.2765 23.8525 15.048C21.6711 10.8591 18.2795 7.44451 15.3273 6.46452C13.952 6.00825 13.6386 6.03098 12.9169 6.64ZM8.79476 14.1493L6.83491 17.8559L8.89025 20.745L10.9456 23.634L12.2825 23.538C13.0177 23.4852 15.0313 23.345 16.7572 23.2267L19.8948 23.0116L19.2399 22.5499C17.8967 21.6035 15.6351 19.4015 14.5664 17.9998C13.2269 16.2429 11.7397 13.5491 11.3251 12.1288C11.1572 11.5531 10.9601 10.9383 10.8872 10.7625C10.7915 10.5315 10.2111 11.4709 8.79476 14.1493ZM16.1021 11.7403C14.8938 12.1632 14.4791 12.9506 15.2576 13.3441C15.5641 13.499 15.7988 13.4799 16.2891 13.2602C18.5619 12.2418 20.7143 14.2074 19.6339 16.3147C19.4059 16.7596 19.144 17.1237 19.052 17.1237C18.7098 17.1237 18.4672 17.8298 18.6803 18.2058C19.0913 18.931 20.123 18.4446 20.929 17.1457C21.9566 15.49 21.4274 13.3398 19.7126 12.2029C18.824 11.6137 17.096 11.3922 16.1021 11.7403ZM28.8406 13.1922C28.5428 13.4734 28.5478 13.9637 28.8507 14.2013C29.1499 14.4359 35.0822 15.4644 35.5281 15.3589C35.9798 15.2521 36.1616 14.6179 35.8301 14.3048C35.6823 14.1652 34.1909 13.8106 32.516 13.517C28.987 12.8981 29.1379 12.9114 28.8406 13.1922ZM4.23947 19.9046C3.39438 20.439 2.47671 21.1299 2.20055 21.4399C0.975024 22.8152 1.44388 24.9708 3.21543 26.1074C3.7729 26.465 4.063 26.5223 5.02517 26.4652C6.0347 26.4053 6.35287 26.2825 7.69891 25.4329C8.53923 24.9025 9.30468 24.402 9.40017 24.3205C9.53195 24.2078 6.66589 19.9082 5.897 19.0653C5.83054 18.9926 5.08475 19.3703 4.23947 19.9046ZM9.94046 25.6949C9.39024 26.0446 8.94029 26.4134 8.94029 26.5142C8.94029 26.615 10.1568 28.3938 11.6438 30.4668C13.4992 33.0533 14.5068 34.2984 14.8556 34.4347C15.9262 34.8535 17.1767 33.8425 16.8442 32.827C16.5807 32.0226 11.5539 25.0747 11.2296 25.0662C11.0705 25.0623 10.4905 25.3451 9.94046 25.6949Z" fill="#0D5EF4"/>
</svg>
