<svg width="36" height="36" viewBox="0 0 36 36" fill="none" xmlns="http://www.w3.org/2000/svg">
<path fill-rule="evenodd" clip-rule="evenodd" d="M16.3518 0.0523945C15.7058 0.114609 15.0953 0.250572 14.9953 0.354577C14.8951 0.458582 14.6522 1.09528 14.4556 1.76943L14.098 2.99517L12.7814 3.48457C12.0573 3.75366 11.1738 4.12637 10.818 4.31245L10.1713 4.65113L9.01126 4.03239C8.16528 3.5812 7.71766 3.44712 7.35793 3.53714C6.71994 3.69712 3.63776 6.77075 3.47788 7.40651C3.38904 7.76013 3.52637 8.21 3.97911 9.04714L4.6027 10.2007L4.25832 10.8561C4.06909 11.2165 3.69345 12.103 3.42389 12.8259L2.93365 14.1402L1.70578 14.4946C1.03047 14.6893 0.371261 14.9864 0.241124 15.1545C-0.0473752 15.527 -0.0917013 20.3395 0.188463 20.8619C0.300225 21.0703 0.865857 21.3387 1.6283 21.5446C2.52809 21.7878 2.92911 21.9952 3.04276 22.2762C3.1299 22.492 3.50951 23.4061 3.88629 24.3075L4.57126 25.9469L3.99275 26.9703C3.67451 27.5332 3.41404 28.1663 3.41404 28.3774C3.41404 29.1529 6.83947 32.5962 7.61101 32.5962C7.80631 32.5962 8.43313 32.3332 9.00387 32.0115L10.0417 31.4268L11.7004 32.1178C12.6127 32.4979 13.5357 32.8798 13.7519 32.9668C14.0338 33.0805 14.2416 33.4816 14.4871 34.3875C14.9118 35.9533 15.0133 36 18 36C20.9867 36 21.0882 35.9533 21.5129 34.3875C21.7584 33.4816 21.9662 33.0805 22.2481 32.9668C22.4643 32.8798 23.3854 32.4986 24.2955 32.1195L25.9497 31.4304L26.9704 32.0132C27.5318 32.3339 28.1605 32.5962 28.3676 32.5962C29.1569 32.5962 32.586 29.1669 32.586 28.3774C32.586 28.1663 32.3255 27.5332 32.0073 26.9703L31.4287 25.9469L32.1137 24.3075C32.4905 23.4061 32.8701 22.492 32.9572 22.2762C33.0709 21.9952 33.4719 21.7878 34.3717 21.5446C35.1341 21.3387 35.6998 21.0703 35.8115 20.8619C36.0917 20.3395 36.0474 15.5269 35.7589 15.1551C35.6287 14.9872 34.968 14.6835 34.2908 14.48L33.0595 14.1103L32.5727 12.811C32.305 12.0962 31.9309 11.2165 31.7417 10.8561L31.3973 10.2007L32.0209 9.04714C32.4736 8.21 32.611 7.76013 32.5221 7.40651C32.3622 6.77075 29.2801 3.69712 28.6421 3.53714C28.2823 3.44712 27.8347 3.5812 26.9887 4.03239L25.8287 4.65113L25.182 4.31245C24.8262 4.12637 23.9441 3.75422 23.2214 3.48551L21.9073 2.99707L21.5165 1.70854C21.3015 0.999787 20.9977 0.352686 20.8414 0.270427C20.4275 0.0527727 17.7157 -0.0790302 16.3518 0.0523945ZM16.8896 1.56709L16.0633 1.67828L15.6583 2.97286L15.2533 4.26763L13.9228 4.68819C13.1908 4.91965 12.0501 5.39732 11.3874 5.74999L10.1829 6.39085L9.08495 5.78384C8.48124 5.44989 7.87204 5.17664 7.73149 5.17664C7.40586 5.17664 5.1189 7.46891 5.1189 7.7953C5.1189 7.92975 5.39262 8.53317 5.72715 9.13583L6.33521 10.2319L5.69324 11.4343C5.33996 12.0958 4.86146 13.2346 4.6296 13.9653L4.20831 15.2935L2.9113 15.6986L1.61448 16.1036L1.49305 17.0695C1.42637 17.6007 1.42637 18.4702 1.49305 19.0014L1.61448 19.9673L2.9113 20.3724L4.20831 20.7774L4.6296 22.1057C4.86146 22.8363 5.33996 23.9751 5.69324 24.6366L6.33521 25.8391L5.72715 26.9351C5.39262 27.5378 5.1189 28.1459 5.1189 28.2862C5.1189 28.6113 7.41514 30.8943 7.74209 30.8943C7.87678 30.8943 8.48124 30.621 9.08495 30.2871L10.1829 29.6801L11.3874 30.3209C12.0501 30.6736 13.1908 31.1513 13.9228 31.3827L15.2533 31.8033L15.659 33.0981L16.0648 34.3926L17.0324 34.5139C17.5645 34.5804 18.4355 34.5804 18.9676 34.5139L19.9352 34.3926L20.3444 33.0829L20.7533 31.7734L22.0759 31.3703C22.8035 31.1484 23.9429 30.6774 24.608 30.3236L25.8171 29.6801L26.9151 30.2871C27.5188 30.621 28.128 30.8943 28.2685 30.8943C28.5547 30.8943 30.8781 28.6241 30.8864 28.3363C30.8894 28.2352 30.6151 27.6297 30.277 26.9907L29.6621 25.8292L30.216 24.816C30.5206 24.2589 30.9991 23.1223 31.2793 22.2902L31.7887 20.7774L33.087 20.372L34.3855 19.9664V18.0355V16.1046L33.087 15.6989L31.7887 15.2935L31.2793 13.7807C30.9991 12.9487 30.5206 11.812 30.216 11.2549L29.6621 10.2417L30.277 9.08024C30.6151 8.44127 30.8894 7.83104 30.8864 7.72401C30.8786 7.43809 28.5451 5.17664 28.2579 5.17664C28.1232 5.17664 27.5188 5.44989 26.9151 5.78384L25.8171 6.39085L24.6126 5.74999C23.9499 5.39732 22.8092 4.91965 22.0772 4.68819L20.7467 4.26763L20.3567 3.02486C20.1422 2.34145 19.9291 1.74938 19.8831 1.70929C19.7085 1.55688 17.6808 1.46044 16.8896 1.56709ZM15.5374 6.02456C13.9798 6.3744 12.0732 7.17278 11.6311 7.66028C11.3717 7.94639 11.3391 8.1111 11.493 8.35522C11.8046 8.84915 12.2279 8.83913 13.3448 8.31173C17.4918 6.35322 22.3159 7.2019 25.5841 10.4645C26.8897 11.7677 27.9622 13.5829 28.4373 15.2935C28.7752 16.5102 28.7752 19.5607 28.4373 20.7774C27.3718 24.6141 24.1083 27.7359 20.3275 28.5356C16.5747 29.3295 13.0968 28.3065 10.4066 25.6174C8.05351 23.2656 7.07834 20.7474 7.2511 17.4684C7.34221 15.7409 7.4947 15.1687 8.54868 12.5996C8.76728 12.0665 8.76046 11.9455 8.49621 11.6819C7.97282 11.1594 7.48693 11.5221 6.84345 12.9158C4.55686 17.8679 5.79345 23.6086 9.94931 27.3345C12.6 29.7107 16.8729 30.8209 20.4626 30.0657C24.0437 29.3125 27.422 26.7008 28.9442 23.5088C29.9304 21.4412 30.2079 20.2392 30.2079 18.0355C30.2079 15.8317 29.9304 14.6298 28.9442 12.5621C27.5309 9.59875 24.4767 7.08693 21.2203 6.20969C19.6463 5.78573 16.9869 5.69912 15.5374 6.02456ZM9.31927 9.39622C8.83528 9.91058 8.79475 10.3317 9.19728 10.6653C9.85706 11.2118 11.1645 9.9066 10.617 9.24797C10.274 8.83535 9.79568 8.89 9.31927 9.39622ZM11.1357 14.7385C10.8504 14.893 10.488 15.2684 10.3306 15.5726C9.55719 17.0654 10.4301 18.478 12.3765 18.8832C12.8235 18.9762 12.8998 19.0768 12.85 19.5076C12.7943 19.99 12.722 20.0269 11.6542 20.1163C10.3704 20.2239 10.044 20.3718 10.044 20.8453C10.044 21.4173 10.4651 21.6284 11.6068 21.6284C12.9154 21.6284 13.7155 21.2681 14.1135 20.5C14.8877 19.0055 14.0158 17.5932 12.0684 17.1877C11.6214 17.0947 11.5451 16.9941 11.5949 16.5633C11.6506 16.0809 11.7229 16.044 12.7907 15.9546C13.4158 15.9022 14.0339 15.7908 14.1641 15.7071C14.4645 15.514 14.4694 14.9649 14.1736 14.6695C13.8538 14.3503 11.7648 14.3977 11.1357 14.7385ZM16.003 14.6789C15.9502 14.8162 15.9303 16.4147 15.9589 18.2312L16.011 21.5338H18C19.9325 21.5338 19.9907 21.5215 20.0509 21.0979C20.1568 20.3516 19.7723 20.1156 18.4505 20.1156H17.2423V19.4537V18.7919H18.3633C19.8242 18.7919 20.0837 18.6776 20.0837 18.0355C20.0837 17.3933 19.8242 17.2791 18.3633 17.2791H17.2423V16.6172V15.9554H18.4505C19.7723 15.9554 20.1568 15.7194 20.0509 14.973C19.9915 14.5543 19.9121 14.535 18.0439 14.4832C16.5683 14.4422 16.0758 14.4895 16.003 14.6789ZM22.6908 14.7385C21.8318 15.2039 21.5991 15.9066 21.5991 18.0355C21.5991 20.1905 21.8348 20.8795 22.7295 21.3415C23.4353 21.7059 24.1199 21.7059 24.8257 21.3415C25.7203 20.8795 25.956 20.1905 25.956 18.0355C25.956 15.8805 25.7203 15.1914 24.8257 14.7294C24.1312 14.3709 23.3633 14.3743 22.6908 14.7385ZM23.2006 16.1932C23.1451 16.3381 23.1242 17.2584 23.1543 18.2387L23.2093 20.021H23.7776H24.3458V18.0355V16.0499L23.8238 15.99C23.5071 15.9537 23.2621 16.0335 23.2006 16.1932Z" fill="#0D5EF4"/>
</svg>
