<svg width="36" height="36" viewBox="0 0 36 36" fill="none" xmlns="http://www.w3.org/2000/svg">
<path fill-rule="evenodd" clip-rule="evenodd" d="M18.5459 0.073958C18.2499 0.148276 17.807 0.323592 17.5618 0.463463C16.7544 0.924047 12.178 5.44585 12.178 5.78295C12.178 5.9758 13.219 7.01664 14.6868 8.29129L17.1955 10.4702L17.198 12.0307L17.2005 13.5912L16.1978 15.0796C15.6463 15.8983 15.1289 16.594 15.048 16.6258C14.836 16.7093 10.5278 14.3865 10.5961 14.2257C10.6275 14.1514 10.9226 13.521 11.2516 12.8247C12.5646 10.046 12.0797 7.4856 9.96635 6.0364C9.32222 5.59468 9.0275 5.52284 7.84542 5.5194C6.57455 5.51597 6.42118 5.55961 5.78261 6.10747C4.74654 6.99644 4.37703 7.79241 4.37685 9.13624C4.37667 10.0454 4.47945 10.4658 4.87874 11.1884C5.38278 12.1006 6.63482 13.2876 7.90605 14.0584C8.28094 14.2859 8.58839 14.5346 8.58911 14.6114C8.59001 14.6882 7.54874 15.6351 6.27553 16.7158C3.68356 18.9158 2.73808 19.9968 2.56911 20.9546C2.47852 21.467 2.28282 21.7119 1.64766 22.1073C0.379118 22.897 0.141267 23.6758 0.028799 27.4085C-0.0895885 31.3416 0.155438 33.6169 0.793295 34.5055C1.64443 35.6908 1.93143 35.7579 6.88218 35.9277C12.7163 36.1279 20.1348 35.8909 20.882 35.4804C21.9364 34.9011 22.556 33.6996 22.5764 32.194C22.5983 30.5725 22.4747 30.6461 25.4209 30.5011C29.2791 30.3109 34.0024 29.4894 35.3535 28.7733L35.841 28.5151L35.9018 29.9734C35.9354 30.7755 35.9777 30.1026 35.996 28.4781C36.0145 26.8536 35.9673 25.6283 35.8912 25.7554C35.8127 25.8867 35.6581 25.3443 35.5325 24.4958C35.0435 21.1943 33.5529 17.6093 31.355 14.4489C30.6872 13.4882 30.6537 13.3722 30.6537 12.0207V10.6013L33.246 8.34427C34.6718 7.10296 35.8423 5.9535 35.8469 5.79019C35.8545 5.53084 34.7192 4.34536 32.408 2.19928C31.9315 1.75679 31.6366 1.61483 31.3765 1.70249C30.7044 1.92925 31.0069 2.4571 32.7405 4.08411L34.4641 5.70139L33.5902 6.5208C33.1097 6.97128 32.2523 7.72838 31.6851 8.20306L30.6537 9.0663V7.74C30.6537 6.69116 30.5927 6.38893 30.3618 6.29498C29.6727 6.01391 29.5774 6.46306 29.5774 9.99223V13.3743L28.7254 13.4976C26.8402 13.7703 21.7554 13.8147 20.0705 13.573L18.3665 13.3286L18.3175 9.84321C18.2772 6.96461 18.2221 6.33881 18.0015 6.24887C17.482 6.03716 17.2005 6.55777 17.2005 7.73028C17.2005 8.34636 17.158 8.8504 17.106 8.8504C16.9726 8.8504 13.7144 5.9657 13.648 5.78867C13.5721 5.58705 17.7308 1.61826 18.2436 1.40254C18.472 1.3065 18.8807 1.22799 19.152 1.22799C19.6155 1.22799 19.6704 1.32213 20.0707 2.80011C21.009 6.26449 22.7669 9.04096 24.022 9.04096C25.2276 9.04096 26.9252 6.33405 27.8463 2.94303L28.2861 1.32327H29.191C29.6886 1.32327 30.1835 1.23047 30.291 1.11689C30.9023 0.470514 29.3561 -0.193398 27.9241 0.100827C27.5015 0.187532 27.115 0.262231 27.0649 0.266805C27.0149 0.271378 26.5311 0.661074 25.9899 1.13271C25.4486 1.60454 24.7481 2.04168 24.4333 2.10438C23.7267 2.2452 22.7364 1.91591 22.2898 1.39168C21.4334 0.386286 19.7136 -0.218933 18.5459 0.073958ZM20.9674 1.98509C20.9674 2.08665 21.2103 2.87691 21.5072 3.7411C22.1337 5.56476 22.9578 7.08028 23.5972 7.58489C24.043 7.93647 24.0502 7.93495 24.5843 7.39433C25.1858 6.78568 26.356 4.32974 26.7736 2.80011C26.9239 2.24977 27.0219 1.79967 26.9915 1.79967C26.9611 1.79967 26.6369 2.05216 26.2714 2.36087C24.8453 3.56483 23.3271 3.60123 21.8413 2.4672C21.3606 2.10037 20.9674 1.88352 20.9674 1.98509ZM6.6985 6.8316C5.68808 7.29924 5.19641 8.69604 5.57256 10.0302C5.81005 10.8719 7.14371 12.283 8.49942 13.1269C9.48114 13.7383 9.63648 13.6601 10.3287 12.209C10.9949 10.8124 11.0675 9.36167 10.5249 8.28882C9.79325 6.84227 8.08309 6.19094 6.6985 6.8316ZM28.2321 14.6857C26.1399 14.9883 22.4609 15.0072 20.0334 14.7278C18.4441 14.5449 18.0619 14.5518 17.8172 14.7675C17.5344 15.0169 16.1243 17.1241 16.1243 17.2975C16.1243 17.3433 16.647 17.7425 17.2857 18.1848C18.6094 19.1008 19.6302 20.2205 20.0008 21.1625C20.1405 21.5179 20.3746 21.8085 20.521 21.8085C20.9961 21.8085 22.211 23.1493 22.3954 23.8776C22.4923 24.2593 22.627 25.6767 22.695 27.0274L22.8184 29.4831L25.2563 29.3533C26.5969 29.2819 28.1288 29.1712 28.6603 29.1073L29.6267 28.9911L29.5014 27.0672C29.4325 26.009 29.2732 24.4708 29.1473 23.6491C28.9559 22.4002 28.9586 22.112 29.1634 21.8944C29.4811 21.5569 29.9157 21.7401 30.026 22.2582C30.2187 23.1639 30.4675 25.242 30.5835 26.9159L30.7066 28.6883L31.3477 28.6309L31.9889 28.5734L31.9391 27.6206C31.8901 26.6878 31.6409 24.6945 31.4461 23.6798C31.3387 23.1195 31.827 22.6624 32.2419 22.9347C32.4845 23.094 32.9837 25.9972 32.9848 27.2553C32.9852 27.6833 33.0277 28.0783 33.0794 28.133C33.1308 28.1879 33.5441 28.1425 33.9978 28.0322L34.8223 27.8317L34.7027 26.4292C34.4342 23.2796 33.2923 19.759 31.6133 16.9038C30.1268 14.3763 30.1711 14.4052 28.2321 14.6857ZM9.12652 15.7325C8.78248 16.0419 8.01655 16.6933 7.42461 17.1802C4.75676 19.3741 3.56805 20.6777 3.56805 21.4096C3.56805 21.5152 4.1503 21.6263 4.86654 21.6572C5.97167 21.7048 6.17472 21.7666 6.22961 22.0715C6.32809 22.6193 5.94584 22.755 4.28555 22.7611C1.72604 22.7708 1.21734 23.3509 1.21178 26.2664C1.20586 29.3674 1.56748 29.7285 4.86852 29.9176L7.15555 30.0485V28.7679C7.15555 27.1949 7.50945 26.3276 8.31754 25.9202C9.16221 25.4945 14.2839 25.4857 15.054 25.9088C15.8289 26.3345 16.1243 27.1015 16.1243 28.6871V30.0584L17.4967 29.9353C18.2515 29.8675 19.1785 29.812 19.5566 29.812C20.0616 29.812 20.3986 29.6655 20.8248 29.2609C21.3977 28.7172 21.4063 28.6837 21.4743 26.7303C21.5258 25.2515 21.474 24.5745 21.2695 24.0544C20.7748 22.7967 20.6257 22.7685 13.6608 22.6138C7.75986 22.4829 7.42568 22.4564 7.36434 22.1172C7.32882 21.9202 7.40846 21.6856 7.54156 21.596C7.67448 21.5064 8.97566 21.4319 10.4329 21.4302L13.0826 21.4274L13.285 20.9033C13.3962 20.615 13.7216 19.824 14.008 19.1454C14.6254 17.6827 14.8166 17.9333 11.8476 16.3133L9.75218 15.1699L9.12652 15.7325ZM14.8836 19.8288C14.5684 20.6263 14.3352 21.3024 14.3653 21.3308C14.3955 21.3593 15.4646 21.4451 16.741 21.5215L19.0617 21.6604L18.7277 21.1188C18.5439 20.8208 18.226 20.4229 18.0214 20.2345C17.5727 19.8217 15.6364 18.3784 15.5313 18.3784C15.4902 18.3784 15.1987 19.0311 14.8836 19.8288ZM0.0526559 28.6687C0.0526559 30.2932 0.0802796 30.9577 0.113823 30.1455C0.147545 29.3333 0.147545 28.004 0.113823 27.1918C0.0802796 26.3796 0.0526559 27.0441 0.0526559 28.6687ZM8.59055 27.1442C8.28292 27.471 8.2318 27.7793 8.2318 29.3061C8.2318 31.8379 8.19825 31.814 11.7658 31.8087C15.1652 31.8036 15.048 31.896 15.048 29.2148C15.048 26.7267 15.0993 26.7631 11.5999 26.7631C9.1884 26.7631 8.91701 26.7973 8.59055 27.1442ZM9.23109 27.8247C8.88687 28.1905 8.83665 30.3784 9.16455 30.7267C9.30912 30.8803 10.1212 30.9554 11.6399 30.9554C13.1587 30.9554 13.9707 30.8803 14.1153 30.7267C14.2403 30.5939 14.3305 29.9574 14.3305 29.2089C14.3305 28.1294 14.274 27.8877 13.9836 27.7225C13.7928 27.6141 12.7088 27.5253 11.5748 27.5253C9.93962 27.5253 9.45477 27.5872 9.23109 27.8247ZM10.1452 28.7958C10.0794 28.8655 10.0255 29.1228 10.0255 29.3674C10.0255 29.8002 10.0682 29.812 11.6399 29.812H13.2543V29.2403V28.6687H11.7596C10.9373 28.6687 10.2108 28.7258 10.1452 28.7958ZM1.14559 31.4743C1.3081 33.2484 1.53035 33.9134 2.09735 34.3222C2.54382 34.6442 3.16696 34.6763 10.1152 34.7361C14.2588 34.7717 18.2364 34.7428 18.9545 34.6717C20.6262 34.5063 21.2591 34.0121 21.406 32.7575C21.4607 32.2904 21.5515 31.5175 21.6078 31.04L21.7099 30.1718L21.0248 30.5424C20.5267 30.8119 19.764 30.951 18.2314 31.0524C16.2108 31.186 16.1139 31.2119 15.8995 31.6757C15.7765 31.9419 15.448 32.339 15.1695 32.558C14.7031 32.9246 14.4249 32.9563 11.6638 32.9563C8.36328 32.9563 7.97296 32.8442 7.43699 31.7431L7.17295 31.2006L4.78762 31.067C2.94651 30.9639 2.24516 30.8479 1.71474 30.5582L1.0272 30.1828L1.14559 31.4743Z" fill="#0D5EF4"/>
</svg>
