<svg width="36" height="36" viewBox="0 0 36 36" fill="none" xmlns="http://www.w3.org/2000/svg">
<path fill-rule="evenodd" clip-rule="evenodd" d="M30.5104 0.239834C27.6958 0.62605 27.5897 0.659768 27.2082 1.28904C27.0161 1.60602 26.8587 2.04326 26.8584 2.26089C26.8575 2.80415 27.583 3.60597 28.3134 3.86886L28.9189 4.08667L26.9457 6.04119C22.5661 10.379 17.6429 13.3863 11.5326 15.4566C8.71392 16.4117 5.3417 17.169 2.92914 17.389C1.70009 17.5011 1.43087 17.5889 1.00482 18.0175C0.269577 18.7571 0.404544 19.9679 1.28389 20.5221C2.35503 21.1972 8.26744 20.1821 13.0562 18.5009C15.8398 17.5238 18.8349 16.1317 21.2263 14.7038C23.3892 13.4123 23.6939 13.1476 23.5256 12.7066C23.346 12.2356 23.0087 12.3485 21.0711 13.5275C17.3972 15.7633 13.2731 17.4946 9.12492 18.5427C4.95024 19.5975 1.86768 19.9266 1.64435 19.341C1.45579 18.8467 1.98257 18.6053 3.73571 18.3828C9.61675 17.636 15.8267 15.4442 20.6991 12.3956C22.8316 11.0615 25.8129 8.72109 27.4868 7.06714C29.1664 5.4076 30.9802 3.31604 30.9802 3.03855C30.9802 2.7149 30.507 2.60239 29.3469 2.64999C28.3561 2.69074 28.1392 2.64674 28.0396 2.3853C27.8302 1.83681 28.3226 1.64568 30.7618 1.3287C32.6423 1.08421 33.1977 1.06546 33.4056 1.23891C33.6119 1.41129 33.6688 1.95707 33.6688 3.76591C33.6688 5.03472 33.6198 6.20131 33.56 6.35817C33.5001 6.51504 33.2597 6.64342 33.0256 6.64342C32.5655 6.64342 32.4569 6.38846 32.3723 5.11081C32.292 3.90005 31.8104 4.05332 30.3528 5.75342C29.1394 7.16883 27.0487 9.16807 25.4608 10.4315C24.6532 11.0739 24.4933 11.7203 25.1124 11.8391C25.4961 11.9127 27.6173 10.1509 29.7135 8.01771L31.225 6.47934L31.7758 7.12033C32.2339 7.65367 32.446 7.76132 33.0364 7.76132C33.6084 7.76132 33.8455 7.64953 34.2574 7.18596L34.7684 6.61042L34.7116 3.72606L34.6546 0.841517L34.1516 0.406798C33.5756 -0.0912086 33.086 -0.113747 30.5104 0.239834ZM25.368 13.6112C25.3 13.6795 25.2445 18.509 25.2445 24.3436V34.9515H23.2728H21.3012V27.5718C21.3012 21.1035 21.2664 20.1572 21.0196 19.9087C20.6031 19.4899 15.1882 19.4899 14.7717 19.9087C14.5249 20.1572 14.4901 21.1035 14.4901 27.5718V34.9515H12.5185H10.5468V28.8245V22.6975L10.1435 22.5975C9.92182 22.5425 8.44972 22.5207 6.87241 22.549L4.00457 22.6005L3.95743 28.7699L3.91029 34.9394L1.9858 34.9905C0.0661395 35.0415 0.0613 35.0428 0.0613 35.4925V35.9432L17.7867 35.9892C30.735 36.0227 35.5775 35.9804 35.7555 35.8318C36.0103 35.619 36.0971 34.936 35.8644 34.9728C35.7906 34.9847 34.8636 34.9847 33.8046 34.9728L31.8792 34.9515L31.833 24.2684L31.7867 13.5852L28.6391 13.5362C26.9078 13.5091 25.4359 13.5428 25.368 13.6112ZM26.3199 24.7642V34.9515H28.5604H30.8009V24.7642V14.5769H28.5604H26.3199V24.7642ZM15.5655 27.9196V34.9515H17.8957H20.2258V27.9196V20.8876H17.8957H15.5655V27.9196ZM4.99039 29.2719V34.9515H7.23089H9.47139V29.2719V23.5922H7.23089H4.99039V29.2719ZM0 35.4925C0 35.7404 0.0406874 35.8419 0.0903368 35.7178C0.140165 35.594 0.140165 35.3911 0.0903368 35.2671C0.0406874 35.1432 0 35.2445 0 35.4925Z" fill="#0D5EF4"/>
</svg>
