<svg width="36" height="36" viewBox="0 0 36 36" fill="none" xmlns="http://www.w3.org/2000/svg">
<path fill-rule="evenodd" clip-rule="evenodd" d="M4.53641 0.382775C4.38842 0.618922 4.17564 1.02284 4.06357 1.28054C3.95167 1.53806 3.47883 1.9561 3.01284 2.20952C1.89155 2.81912 1.88614 3.26132 2.99227 3.86293C3.58441 4.18491 3.94283 4.5539 4.25559 5.1635C4.88094 6.38177 5.35468 6.39923 5.93274 5.22481C6.2724 4.53477 6.55683 4.23619 7.12568 3.97217C8.44261 3.36072 8.42383 2.7697 7.06558 2.07129C6.58967 1.8266 6.24406 1.45463 5.96938 0.891485C5.49708 -0.0766997 4.94663 -0.271972 4.53641 0.382775ZM4.49833 2.46462L3.94337 3.04245L4.57521 3.65038C5.04373 4.10093 5.24495 4.19699 5.35306 4.0216C5.43337 3.89135 5.50015 3.73566 5.50177 3.67546C5.50321 3.61507 5.72772 3.46105 6.0006 3.33322L6.49655 3.10042L6.01287 2.83956C5.74685 2.69613 5.47759 2.41111 5.41442 2.20637C5.2686 1.73314 5.17565 1.75934 4.49833 2.46462ZM28.9539 2.22903C28.7065 2.70542 28.9905 3.5062 29.4071 3.5062C29.8397 3.5062 30.1201 2.79255 29.8909 2.27511C29.6487 1.72757 29.2255 1.70695 28.9539 2.22903ZM27.2259 3.9731C27.0815 4.36012 27.4821 4.80677 27.9736 4.80677C28.465 4.80677 28.8657 4.36012 28.7213 3.9731C28.6549 3.79493 28.3811 3.69199 27.9736 3.69199C27.5661 3.69199 27.2923 3.79493 27.2259 3.9731ZM30.1135 3.9731C29.9691 4.36012 30.3697 4.80677 30.8612 4.80677C31.3526 4.80677 31.7533 4.36012 31.6089 3.9731C31.5425 3.79493 31.2687 3.69199 30.8612 3.69199C30.4537 3.69199 30.1799 3.79493 30.1135 3.9731ZM14.8002 4.54944C13.2963 4.92382 11.0317 6.0975 9.74996 7.16713C7.57398 8.9831 5.87824 11.7713 5.22474 14.6073C4.79828 16.4579 4.93743 19.9893 5.50448 21.7102C6.89738 25.937 9.80465 28.954 13.8697 30.3913C15.2156 30.8671 15.5621 30.9112 17.9572 30.9112C20.2318 30.9112 20.7394 30.8538 21.8374 30.4719C23.6862 29.8293 25.3567 28.8401 25.3567 28.388C25.3567 27.7716 24.8552 27.7719 23.7306 28.389C21.9038 29.3913 20.7299 29.7267 18.6616 29.8371C17.2207 29.914 16.4068 29.8609 15.3613 29.6214C11.2391 28.6771 7.91454 25.5108 6.47417 21.1569C6.20941 20.3566 6.13614 19.5908 6.13614 17.6267C6.13614 15.6627 6.20941 14.8968 6.47417 14.0966C7.85985 9.90781 11.0476 6.76005 14.9646 5.71234C16.5486 5.28873 19.2745 5.25677 20.7618 5.64453C24.8483 6.71007 28.0178 9.79689 29.4403 14.0966C29.9232 15.5564 29.9232 19.6971 29.4403 21.1569C28.9124 22.7523 27.9007 24.6268 27.0282 25.626C26.1569 26.6237 26.0719 27.1952 26.7951 27.1952C27.3964 27.1952 28.7839 25.4107 29.6845 23.4793C32.297 17.8755 30.8256 11.0571 26.1645 7.16713C24.8479 6.06852 22.6023 4.91992 21.0253 4.53848C19.5479 4.18138 16.2564 4.18714 14.8002 4.54944ZM28.9539 5.20178C28.7065 5.67816 28.9905 6.47894 29.4071 6.47894C29.8397 6.47894 30.1201 5.7653 29.8909 5.24785C29.6487 4.70031 29.2255 4.67969 28.9539 5.20178ZM16.586 7.21525C14.8567 7.48819 12.543 8.49093 12.543 8.9675C12.543 9.54365 13.0281 9.67464 13.7529 9.29394C15.1866 8.54091 16.4504 8.29157 18.3868 8.37964C20.5608 8.47848 21.7613 8.89634 23.3671 10.1133C24.6465 11.083 25.895 12.7505 26.4574 14.2406C27.0573 15.8299 27.1457 18.675 26.6476 20.3585C25.4886 24.2762 22.0668 26.9097 18.1377 26.908C16.2557 26.9073 15.323 26.6966 13.8099 25.9298C11.7135 24.8676 9.89831 22.617 9.22099 20.2405C8.81384 18.8115 8.84488 16.2886 9.28795 14.8128C9.67344 13.5292 10.4686 12.1041 11.3035 11.2015C11.6475 10.8295 11.7926 10.5204 11.7175 10.319C11.2396 9.03661 8.9436 11.9679 8.11613 14.9169C7.71204 16.3568 7.71168 18.8976 8.11522 20.3267C9.13075 23.9232 11.7937 26.6927 15.2378 27.7348C16.5336 28.1268 19.3808 28.1268 20.6766 27.7348C24.0993 26.6992 26.7868 23.912 27.7906 20.3572C28.1835 18.9661 28.1835 16.2873 27.7906 14.8963C26.7837 11.3305 24.0372 8.49149 20.6643 7.5298C19.3678 7.16025 17.734 7.0341 16.586 7.21525ZM1.09945 10.9845C0.262591 12.9532 0 14.5399 0 17.6267C0 19.8412 0.0790479 20.8286 0.34236 21.9C0.849314 23.9626 1.4364 25.2444 1.87441 25.2444C2.4725 25.2444 2.47828 24.9495 1.91339 23.2497C0.662522 19.4854 0.662522 15.768 1.91339 12.0038C2.47828 10.3039 2.4725 10.0091 1.87441 10.0091C1.61272 10.0091 1.40066 10.2762 1.09945 10.9845ZM33.5762 10.1815C33.5123 10.2881 33.7035 11.1081 34.0011 12.0038C35.2543 15.7753 35.2523 19.4845 33.9947 23.2684C33.4338 24.9566 33.4622 25.3464 34.1357 25.2128C34.9464 25.0521 36 20.7648 36 17.6267C36 14.3571 34.9406 10.1711 34.0814 10.0449C33.8675 10.0135 33.6403 10.075 33.5762 10.1815ZM18.1498 13.074C16.5342 13.3794 15.8395 13.592 15.6683 13.8329C15.4997 14.0704 15.4306 14.8916 15.4306 16.6602C15.4306 18.8734 15.3981 19.14 15.1406 19.0382C14.2046 18.6685 12.543 19.9141 12.543 20.9854C12.543 22.5147 14.7845 22.9217 15.9828 21.61C16.3927 21.1615 16.4273 20.9681 16.4831 18.8197C16.54 16.6262 16.5623 16.5071 16.9343 16.4246C18.0395 16.1797 20.4705 15.7688 20.8138 15.7688C21.1116 15.7688 21.2058 15.8804 21.2058 16.2332C21.2058 16.6271 21.1222 16.6977 20.6553 16.6977C19.4994 16.6977 18.3295 17.6587 18.3221 18.6144C18.316 19.4117 18.6161 19.8219 19.3768 20.0566C20.3664 20.3618 21.6469 19.7771 22.024 18.848C22.3328 18.0873 22.3978 13.859 22.1127 13.0868C21.9596 12.6726 21.8356 12.6128 21.1652 12.6299C20.7409 12.6409 19.3839 12.8406 18.1498 13.074ZM2.77714 14.4111C2.42937 15.3162 2.36241 15.8345 2.36241 17.6267C2.36241 19.4189 2.42937 19.9373 2.77714 20.8423C3.12221 21.7399 3.25739 21.9117 3.58116 21.8642C4.05202 21.7952 4.06321 21.3672 3.63548 19.7708C3.25829 18.3628 3.25829 16.8906 3.63548 15.4826C4.06321 13.8863 4.05202 13.4582 3.58116 13.3893C3.25739 13.3417 3.12221 13.5136 2.77714 14.4111ZM31.9299 13.6029C31.8787 13.7402 32.003 14.4702 32.2062 15.2249C32.6744 16.964 32.6722 18.0918 32.1972 20.0257C31.9169 21.1669 31.8713 21.6208 32.0216 21.7756C32.3497 22.1133 32.8065 21.6853 33.1989 20.6729C33.7352 19.2889 33.7036 15.8845 33.1411 14.4217C32.8361 13.6286 32.6392 13.3534 32.3766 13.3534C32.1821 13.3534 31.981 13.4658 31.9299 13.6029ZM18.5438 14.1416C16.6722 14.4903 16.5134 14.5524 16.5134 14.9351V15.3502L18.4535 15.001C21.2198 14.5033 21.2058 14.5079 21.2058 14.0931C21.2058 13.6501 21.178 13.6507 18.5438 14.1416ZM19.9441 18.0496C18.9993 18.547 19.4972 19.353 20.4568 18.8795C20.9757 18.6235 21.1146 17.9428 20.6643 17.8618C20.5155 17.835 20.1913 17.9195 19.9441 18.0496ZM13.9018 20.4796C13.495 20.7858 13.647 21.3426 14.1373 21.3426C14.5663 21.3426 15.4694 20.6288 15.3315 20.3988C15.1776 20.1424 14.2824 20.1931 13.9018 20.4796ZM31.4226 27.5488C29.4506 28.1207 29.3271 28.3089 29.3271 30.746V32.6762H28.5913C28.0187 32.6762 27.7386 32.7966 27.328 33.2193C26.2805 34.2977 26.8882 35.7859 28.45 35.9671C29.1804 36.0518 29.3455 35.9985 29.8843 35.5028L30.4932 34.9428L30.5605 32.9204L30.6278 30.8982L32.1882 30.4848C33.0476 30.2572 33.8502 29.9311 33.9744 29.759C34.262 29.3607 34.2685 27.6189 33.9834 27.3253C33.6829 27.0159 33.0781 27.0689 31.4226 27.5488ZM32.5757 28.4076C32.3275 28.4962 31.7794 28.6601 31.3575 28.7717C30.7828 28.9237 30.5905 29.066 30.5905 29.3391C30.5905 29.7795 30.532 29.7776 31.9595 29.386C32.9559 29.1127 33.1171 29.0092 33.1171 28.6428C33.1171 28.4087 33.0967 28.2238 33.072 28.2318C33.0473 28.2398 32.8238 28.3189 32.5757 28.4076ZM6.03363 29.1695C5.7862 29.6459 6.07027 30.4467 6.4868 30.4467C6.9194 30.4467 7.19986 29.733 6.97065 29.2156C6.72846 28.668 6.30524 28.6474 6.03363 29.1695ZM4.42361 30.723C4.05563 31.1793 4.34258 31.5615 5.05329 31.5615C5.4608 31.5615 5.73458 31.4585 5.801 31.2803C5.94538 30.8933 5.54472 30.4467 5.05329 30.4467C4.8295 30.4467 4.54598 30.571 4.42361 30.723ZM7.31121 30.723C6.94322 31.1793 7.23018 31.5615 7.94088 31.5615C8.3484 31.5615 8.62218 31.4585 8.68859 31.2803C8.83297 30.8933 8.43232 30.4467 7.94088 30.4467C7.7171 30.4467 7.43357 30.571 7.31121 30.723ZM6.03688 32.0371C5.74108 32.404 6.01071 33.2966 6.44349 33.3824C6.88926 33.4707 7.21339 32.7366 6.97065 32.1883C6.74578 31.6802 6.37328 31.6198 6.03688 32.0371ZM28.0714 34.0602C27.7433 34.4673 28.154 34.9424 28.7702 34.8688C29.1333 34.8253 29.2369 34.7098 29.2369 34.3484C29.2369 33.987 29.1333 33.8715 28.7702 33.828C28.5107 33.797 28.2006 33.9001 28.0714 34.0602Z" fill="#0D5EF4"/>
</svg>
