<svg width="36" height="36" viewBox="0 0 36 36" fill="none" xmlns="http://www.w3.org/2000/svg">
<path fill-rule="evenodd" clip-rule="evenodd" d="M4.87611 0.166227C4.63008 0.332016 4.58614 0.416842 4.44287 1.00151C4.38726 1.22859 4.31067 1.33994 4.15479 1.42054C3.84442 1.58109 3.647 1.55478 3.27935 1.30402C3.00272 1.11534 2.90143 1.08583 2.63186 1.11534C2.34824 1.14639 2.24709 1.21555 1.73135 1.73135C1.21555 2.24709 1.14639 2.34823 1.11534 2.63186C1.08583 2.90143 1.11534 3.00272 1.30402 3.27935C1.55478 3.647 1.58109 3.84442 1.42054 4.15479C1.33994 4.31067 1.22859 4.38726 1.00151 4.44287C0.416842 4.58614 0.332016 4.63008 0.166227 4.87611C0.0196032 5.09364 0 5.21235 0 5.88083C0 6.4158 0.032502 6.70168 0.110551 6.85261C0.229628 7.08289 0.554721 7.28745 0.80162 7.28745C0.88579 7.28745 1.05041 7.337 1.16745 7.39749C1.59041 7.61626 1.64296 8.02829 1.31043 8.51903C0.92813 9.0833 1.0209 9.38922 1.80321 10.1435C2.48094 10.7969 2.75553 10.8523 3.3421 10.4538C3.87248 10.0933 4.37619 10.3063 4.48258 10.9361C4.60028 11.6324 4.87669 11.8057 5.86997 11.8057C6.92198 11.8057 7.19789 11.6229 7.32258 10.8432C7.41287 10.2784 7.963 10.1185 8.51903 10.4952C8.85483 10.7228 9.15573 10.7681 9.42384 10.6314C9.65398 10.5142 10.4867 9.69027 10.6087 9.45911C10.7682 9.15697 10.7336 8.87079 10.4952 8.51903C10.1185 7.963 10.2784 7.41287 10.8432 7.32258C11.6229 7.19789 11.8057 6.92198 11.8057 5.86997C11.8057 4.87669 11.6324 4.60028 10.9361 4.48258C10.3063 4.37619 10.0933 3.87248 10.4538 3.3421C10.8523 2.75553 10.7969 2.48094 10.1435 1.80321C9.38922 1.0209 9.0833 0.92813 8.51903 1.31043C8.02829 1.64296 7.61626 1.59041 7.39749 1.16745C7.33701 1.05041 7.28745 0.885789 7.28745 0.801619C7.28745 0.554721 7.08289 0.229628 6.85261 0.110551C6.70168 0.032502 6.4158 0 5.88083 0C5.21235 0 5.09364 0.0196032 4.87611 0.166227ZM30.4866 0.163968C30.4063 0.254186 30.0706 0.79681 29.7408 1.36989C29.0761 2.52474 29.0272 2.74598 29.3791 3.00746C29.5326 3.12151 29.6144 3.13681 29.7799 3.08237C29.9479 3.02706 30.1172 2.79117 30.6619 1.85313C31.0669 1.15557 31.336 0.612364 31.336 0.491903C31.3361 0.0527611 30.7777 -0.162875 30.4866 0.163968ZM23.2012 0.379822C22.204 0.701053 21.541 2.02802 21.8981 2.98785C22.1125 3.56444 22.1122 3.56568 21.5915 4.38908C20.5244 6.07642 18.7215 8.05307 16.9384 9.49015C16.1727 10.1073 16.0253 10.1977 15.7988 10.1892C15.3904 10.1739 12.6778 11.7538 12.0225 12.3887C11.2383 13.1485 10.8569 14.0554 10.8601 15.1529C10.8633 16.2823 11.1647 17.0482 11.9218 17.8508C13.0965 19.096 14.8135 19.4297 16.3901 18.7193C16.6469 18.6035 16.8626 18.5173 16.8694 18.5277C17.2296 19.075 20.8052 23.7749 20.9452 23.8849C21.2142 24.0965 21.5916 24.1602 21.9466 24.0538C22.2791 23.9541 23.3349 23.06 23.5024 22.7361C23.6327 22.4842 23.6412 21.8876 23.5177 21.6703C23.469 21.5848 22.6093 20.411 21.6073 19.0619C20.6053 17.7128 19.7769 16.5849 19.7665 16.5553C19.7257 16.4398 21.9651 15.6521 23.4292 15.2669C24.8821 14.8848 25.9919 14.7129 27.2941 14.6683L28.4628 14.6283L28.9045 15.07C29.2627 15.4282 29.4267 15.5351 29.7711 15.6353C31.1052 16.0231 32.3749 15.1682 32.484 13.8088C32.5086 13.5029 32.4841 13.2433 32.4104 13.0268C32.3496 12.8484 31.8204 11.8751 31.2342 10.8638L30.1685 9.02492L30.4825 8.7198C31.6848 7.55125 31.3381 5.53686 29.8191 4.86488C29.3525 4.6585 28.6647 4.61514 28.2109 4.76359C28.0108 4.82903 27.8316 4.88259 27.8128 4.88259C27.7939 4.88259 27.3115 4.07099 26.7409 3.07895C26.1702 2.08691 25.6085 1.15426 25.4927 1.0064C25.3728 0.853287 25.09 0.641441 24.8359 0.514494C24.4652 0.329247 24.3084 0.292737 23.9094 0.298931C23.6453 0.303012 23.3265 0.339449 23.2012 0.379822ZM5.50581 1.11134C5.49037 1.16147 5.45954 1.28638 5.43731 1.38906C5.41509 1.49167 5.29557 1.71547 5.17183 1.88628C4.71855 2.51198 3.74633 2.7376 3.04134 2.38074L2.70576 2.21079L2.45828 2.45828L2.21079 2.70576L2.38074 3.04134C2.85136 3.97093 2.27638 5.2595 1.30278 5.45735C1.06535 5.5056 1.05588 5.52068 1.03482 5.88345L1.01288 6.25963L1.29709 6.33615C1.6936 6.44291 2.03356 6.68908 2.29168 7.05629C2.47751 7.32075 2.5157 7.45105 2.53669 7.89326C2.55804 8.34056 2.53552 8.46488 2.38256 8.74494L2.20351 9.07287L2.45624 9.33748L2.70904 9.60209L3.03253 9.42129C3.41126 9.20959 4.04271 9.17606 4.44848 9.34601C4.96574 9.56274 5.3597 10.03 5.49306 10.585C5.53744 10.7695 5.56936 10.7854 5.89475 10.7854H6.24826L6.3403 10.4568C6.45872 10.0337 6.90843 9.52455 7.30305 9.36663C7.76303 9.18262 8.30842 9.20077 8.74042 9.41458L9.10144 9.59327L9.35104 9.34368L9.60063 9.09408L9.42056 8.7719C9.20157 8.37998 9.17876 7.77061 9.36576 7.3045C9.52462 6.90843 10.0334 6.45887 10.4568 6.3403L10.7854 6.24826V5.89474C10.7854 5.56936 10.7695 5.53744 10.585 5.49306C10.03 5.3597 9.56274 4.96574 9.34601 4.44848C9.17607 4.04271 9.20959 3.41125 9.42129 3.03253L9.60209 2.70904L9.33748 2.45623L9.07288 2.20351L8.75172 2.37709C8.51466 2.50513 8.31549 2.55061 7.99127 2.55061C7.21472 2.55061 6.62735 2.13056 6.36296 1.38607L6.23303 1.02024H5.88345C5.66738 1.02024 5.52316 1.055 5.50581 1.11134ZM23.4015 1.43636C22.9189 1.67415 22.7134 2.27813 22.9418 2.7876C23.2465 3.46715 29.531 14.2599 29.7267 14.4397C30.0277 14.7162 30.4414 14.7686 30.8603 14.5834C31.135 14.4618 31.2234 14.3729 31.3467 14.0939C31.4475 13.8663 31.4842 13.6707 31.4574 13.5054C31.4252 13.307 25.686 3.22929 24.8387 1.8833C24.4995 1.34446 23.9408 1.17073 23.4015 1.43636ZM5.21053 2.87279C3.63024 3.2682 2.56322 4.82152 2.8303 6.33782C3.0138 7.37971 3.66143 8.26586 4.53709 8.67338C7.2137 9.9188 9.9188 7.2137 8.67338 4.53709C8.27891 3.68949 7.40113 3.02954 6.4209 2.84364C5.93147 2.75079 5.67328 2.75699 5.21053 2.87279ZM33.481 3.75413C32.3835 4.38129 32.1377 4.57419 32.1377 4.80797C32.1377 5.02834 32.422 5.31984 32.637 5.31984C32.8315 5.31984 34.6851 4.31125 34.9783 4.04585C35.1622 3.8794 35.173 3.48938 34.998 3.33568C34.7107 3.08347 34.6024 3.11334 33.481 3.75413ZM5.1155 3.98478C4.68875 4.1357 4.12951 4.70755 3.98026 5.14552C3.78743 5.71147 3.82416 6.31319 4.08316 6.83162C4.32036 7.30625 4.6096 7.57151 5.15106 7.81098C5.58452 8.00279 6.37433 7.97014 6.81377 7.7424C7.16065 7.56255 7.58573 7.13128 7.76485 6.77733C7.96985 6.37236 7.9928 5.56207 7.81098 5.15106C7.57151 4.6096 7.30625 4.32036 6.83162 4.08316C6.46718 3.90112 6.30539 3.86337 5.90939 3.86811C5.6453 3.87124 5.28799 3.92378 5.1155 3.98478ZM22.2785 5.24128C21.0655 7.08668 18.6854 9.56274 16.8745 10.8633L16.5448 11.1L16.6808 11.3253C16.7556 11.4492 17.3347 12.4524 17.9676 13.5547C18.6006 14.6569 19.1287 15.5718 19.1411 15.5879C19.1535 15.6039 19.5621 15.4621 20.0492 15.2727C22.4418 14.3427 24.6474 13.8092 26.8543 13.6266C27.4154 13.5802 27.8805 13.5363 27.8878 13.5291C27.9076 13.5095 22.8359 4.73378 22.7629 4.66142C22.7283 4.62702 22.5122 4.88565 22.2785 5.24128ZM28.5121 5.73202C28.4219 5.7514 28.3482 5.78777 28.3482 5.81283C28.3482 5.83798 28.6352 6.35845 28.9858 6.96957L29.6235 8.08069L29.8222 7.8907C30.3921 7.34575 30.2213 6.23208 29.5117 5.86509C29.2778 5.74419 28.7704 5.67663 28.5121 5.73202ZM32.8676 8.10751C32.4775 8.31002 32.5088 8.88661 32.9183 9.04234C33.0383 9.08796 33.6362 9.10917 34.4197 9.09554C35.6872 9.07346 35.7253 9.06828 35.8608 8.90082C36.0379 8.68198 36.0379 8.44353 35.8608 8.22469C35.7249 8.05664 35.6907 8.05219 34.3851 8.0331C33.4036 8.01875 33.0005 8.03849 32.8676 8.10751ZM14.2475 12.1254C12.7842 12.9804 12.542 13.1893 12.1908 13.8999C11.9269 14.4339 11.915 14.4898 11.915 15.1905C11.915 15.8328 11.939 15.9745 12.1103 16.3398C12.7557 17.7169 14.3468 18.3803 15.7477 17.8564C16.1054 17.7226 18.2654 16.4979 18.3311 16.3917C18.3814 16.3103 15.5828 11.4441 15.4858 11.4444C15.4458 11.4444 14.8886 11.7509 14.2475 12.1254ZM8.45344 14.3504C6.3779 14.8917 4.69778 15.6867 3.24175 16.8167C-1.27829 20.3245 -1.03788 25.667 3.78896 28.9729C4.1443 29.2164 4.6424 29.5246 4.89571 29.658C5.14902 29.7912 5.36713 29.9091 5.38047 29.9197C5.39381 29.9304 5.12322 31.1502 4.77926 32.6304C4.43529 34.1107 4.15385 35.4088 4.15385 35.5152C4.15385 35.7621 4.3904 36 4.63591 36C4.76796 36 5.7925 35.3229 7.96992 33.7967L11.1134 31.5934L12.8623 31.5834C14.5806 31.5735 15.6195 31.4814 16.7965 31.2347L17.2713 31.1352V33.156C17.2713 35.1317 17.2749 35.1822 17.4352 35.4177C17.5254 35.5502 17.6917 35.7272 17.8049 35.8111C18.0076 35.9613 18.0759 35.9639 22.4179 35.9835C27.3325 36.0056 27.1353 36.0241 27.5324 35.5036L27.7287 35.2463L27.7504 31.9977C27.7623 30.2109 27.7523 28.6405 27.7281 28.5078C27.6685 28.1813 27.232 27.713 26.9018 27.6213C26.7554 27.5807 26.0494 27.5472 25.3328 27.547L24.0299 27.5466L24.2228 27.3097C25.0603 26.2812 25.6141 25.2767 25.8823 24.2997C26.1071 23.4809 26.1094 21.9276 25.8869 21.1192C25.5438 19.872 24.8917 18.7811 23.8664 17.7389C23.1162 16.9763 22.6444 16.6154 22.398 16.6154C22.1504 16.6154 21.9352 16.8632 21.9352 17.1483C21.9352 17.3617 22.0076 17.4511 22.5565 17.916C24.3415 19.4281 25.2762 21.5074 24.9975 23.3461C24.8898 24.0563 24.636 24.8074 24.3012 25.4059C23.9753 25.9886 23.257 26.887 22.8339 27.2409L22.512 27.5101L20.3051 27.5466L18.0982 27.583L17.8054 27.7769C17.3696 28.0656 17.2713 28.3373 17.2713 29.2537C17.2713 30.1685 17.3801 30.0751 16.0262 30.3229C15.2351 30.4677 14.8547 30.4902 12.998 30.502L10.8747 30.5154L8.19496 32.3838C6.72107 33.4113 5.5072 34.2437 5.49736 34.2333C5.48752 34.223 5.71948 33.1816 6.01288 31.919C6.46521 29.9728 6.53335 29.5958 6.46113 29.4413C6.40509 29.3214 6.13778 29.1339 5.67969 28.8931C4.72518 28.3913 4.29777 28.1093 3.54957 27.4876C1.41245 25.7119 0.554356 23.2257 1.31524 21.0142C2.21415 18.4015 5.02229 16.2824 8.84339 15.3334C9.62665 15.1389 9.83806 14.9984 9.83806 14.6728C9.83806 14.4625 9.53519 14.1349 9.34943 14.1443C9.27751 14.1479 8.87429 14.2407 8.45344 14.3504ZM32.9381 16.0932C32.6412 16.2496 32.2817 16.7531 31.8035 17.6824C31.4958 18.2804 31.4658 18.3811 31.5109 18.6662C31.5832 19.1241 31.8499 19.4802 32.3238 19.7512C32.7251 19.9808 32.7354 19.9945 32.6946 20.2454C32.5887 20.8984 31.2253 23.2232 30.7755 23.5179C30.6259 23.6159 30.5799 23.6066 30.2272 23.4072C29.7378 23.1305 29.4554 23.0722 29.0863 23.1715C28.6385 23.2921 28.4052 23.5377 27.889 24.4319C27.3561 25.355 27.2847 25.5851 27.3994 26.011C27.617 26.8189 28.8369 27.4726 29.9524 27.3791C31.0225 27.2894 31.7966 26.8655 32.9076 25.7611C35.0281 23.6533 36.3499 20.3998 35.9188 18.3497C35.7901 17.738 35.4962 17.195 35.0536 16.7514C34.3213 16.0174 33.5424 15.7751 32.9381 16.0932ZM33.4076 17.0355C33.2639 17.1337 32.5749 18.3757 32.5749 18.5364C32.5749 18.6505 32.6859 18.7611 32.9721 18.9323C33.5583 19.2829 33.7045 19.5258 33.7045 20.1498C33.7045 20.6015 33.6654 20.7461 33.3633 21.4126C32.7269 22.8169 31.7565 24.1825 31.1923 24.4676C30.7515 24.6904 30.415 24.676 29.915 24.413C29.6864 24.2927 29.439 24.1943 29.3653 24.1943C29.1927 24.1943 28.4016 25.5139 28.4347 25.7466C28.4508 25.8597 28.5846 25.9704 28.8888 26.1224C29.2455 26.3006 29.4065 26.3371 29.8192 26.3333C30.2447 26.3293 30.4011 26.2878 30.8817 26.051C31.3345 25.828 31.589 25.6289 32.1757 25.0385C33.5308 23.675 34.5491 21.7985 34.8755 20.0632C35.132 18.7 34.828 17.7335 33.9721 17.1907C33.625 16.9705 33.5376 16.9465 33.4076 17.0355ZM18.3765 17.597C18.0826 17.7719 17.8244 17.9327 17.8027 17.9544C17.7683 17.9888 20.9294 22.2985 21.4329 22.9035L21.6229 23.1318L22.107 22.7068C22.3733 22.473 22.5901 22.2448 22.5889 22.1996C22.5866 22.1086 19.044 17.3162 18.9622 17.2933C18.934 17.2855 18.6704 17.4221 18.3765 17.597ZM6.65454 20.3317C6.27304 20.4874 6.26225 21.0519 6.63712 21.2458C6.82047 21.3406 7.47394 21.3527 11.4836 21.3356L16.1182 21.3158L16.2575 21.1437C16.4347 20.9249 16.4347 20.6864 16.2575 20.4676L16.1182 20.2955L11.466 20.2811C8.87123 20.2731 6.74337 20.2954 6.65454 20.3317ZM6.64922 24.1234C6.21102 24.3011 6.29009 24.9335 6.76786 25.072C6.94654 25.1239 9.0387 25.1417 13.2148 25.1271L19.3973 25.1053L19.5785 24.8946C19.7136 24.7375 19.7478 24.6356 19.7131 24.4938C19.6067 24.0595 20.024 24.0863 13.1331 24.0708C9.43856 24.0625 6.74541 24.0843 6.64922 24.1234ZM18.3089 31.7909L18.3279 34.9433H22.5182H26.7085V31.8097V28.6761L22.4992 28.6573L18.29 28.6385L18.3089 31.7909ZM20.7426 29.7381L20.5506 29.8891V31.7623C20.5506 33.3399 20.5685 33.6612 20.6641 33.7975C20.8822 34.1091 21.1383 34.022 22.7693 33.0821C23.6067 32.5995 24.3344 32.1487 24.3865 32.0801C24.5194 31.9053 24.5081 31.6702 24.3583 31.4916C24.202 31.3054 21.2213 29.587 21.0545 29.587C20.9885 29.587 20.8482 29.655 20.7426 29.7381ZM21.5709 31.8077V32.5831L21.8806 32.3949C22.0509 32.2913 22.3451 32.1208 22.5343 32.0159C22.7235 31.9111 22.8621 31.7991 22.8423 31.767C22.8128 31.7193 21.8267 31.1429 21.6271 31.0567C21.5961 31.0433 21.5709 31.3813 21.5709 31.8077Z" fill="#0D5EF4"/>
</svg>
