<svg width="25" height="25" viewBox="0 0 25 25" fill="none" xmlns="http://www.w3.org/2000/svg">
<path d="M5.86101 0.867432C4.28105 1.01609 3.21754 1.35208 2.42375 2.11143C1 3.47342 1 5.66549 1 10.0496V14.6998C1 19.084 1 21.276 2.42375 22.638C3.84752 24 6.13901 24 10.722 24H13.1525C17.7355 24 20.0271 24 21.4508 22.638C22.7429 21.4019 22.8624 19.4956 22.8734 15.8765" stroke="white" stroke-width="1.5" stroke-linecap="round" stroke-linejoin="round"/>
<path d="M11.9449 6.46044C11.8345 5.99301 11.3469 5.69921 10.8558 5.80423C10.3648 5.90925 10.056 6.37332 10.1663 6.84076L11.9449 6.46044ZM21.4271 6.91711C21.5399 6.45019 21.2335 5.98471 20.743 5.87744C20.2524 5.77018 19.7634 6.06174 19.6506 6.52867L21.4271 6.91711ZM19.5445 10.8429L18.6562 10.6487L18.6553 10.6528L19.5445 10.8429ZM24.3416 5.21658C24.3416 4.73748 23.9336 4.34911 23.4302 4.34911C22.9269 4.34911 22.5188 4.73748 22.5188 5.21658H24.3416ZM22.5188 10.6265C22.5188 11.1056 22.9269 11.494 23.4302 11.494C23.9336 11.494 24.3416 11.1056 24.3416 10.6265H22.5188ZM9.20242 4.48193C9.20242 4.64325 9.13933 4.7364 9.13819 4.73815C9.13295 4.74619 9.14723 4.72313 9.20523 4.66932C9.32115 4.56178 9.52032 4.41476 9.81014 4.23613C10.3827 3.88328 11.1865 3.48146 12.0602 3.09911C12.9298 2.71857 13.8413 2.36915 14.6186 2.11688C15.0076 1.99064 15.3535 1.89184 15.6377 1.82555C15.9375 1.75565 16.1152 1.73494 16.1898 1.73494V0C15.8905 0 15.5407 0.0619258 15.204 0.140438C14.8518 0.22257 14.452 0.337943 14.0304 0.474772C13.1864 0.74865 12.2168 1.12099 11.2987 1.52281C10.3847 1.92283 9.49422 2.36401 8.81952 2.7798C8.48573 2.9855 8.173 3.20421 7.93293 3.42693C7.81291 3.53827 7.68818 3.67149 7.58842 3.82482C7.49276 3.97189 7.37964 4.19935 7.37964 4.48193H9.20242ZM24.9999 4.48193C24.9999 4.19935 24.8868 3.97189 24.7911 3.82482C24.6914 3.67149 24.5666 3.53827 24.4466 3.42693C24.2065 3.20421 23.8938 2.9855 23.56 2.7798C22.8853 2.36401 21.9948 1.92283 21.0808 1.52281C20.1627 1.12099 19.1931 0.74865 18.3492 0.474772C17.9275 0.337943 17.5277 0.22257 17.1755 0.140438C16.8388 0.0619258 16.4891 0 16.1898 0V1.73494C16.2644 1.73494 16.442 1.75565 16.7418 1.82555C17.0261 1.89184 17.3719 1.99064 17.7609 2.11688C18.5382 2.36915 19.4498 2.71857 20.3193 3.09911C21.1931 3.48146 21.9968 3.88328 22.5694 4.23613C22.8592 4.41476 23.0584 4.56178 23.1743 4.66932C23.2323 4.72313 23.2466 4.74619 23.2414 4.73815C23.2402 4.7364 23.1771 4.64325 23.1771 4.48193H24.9999ZM23.1771 4.48193C23.1771 4.3206 23.2402 4.22746 23.2414 4.2257C23.2466 4.21766 23.2323 4.24072 23.1743 4.29453C23.0584 4.40207 22.8592 4.5491 22.5694 4.72772C21.9968 5.08057 21.1931 5.4824 20.3193 5.86474C19.4498 6.24529 18.5382 6.5947 17.7609 6.84697C17.3719 6.97322 17.0261 7.07203 16.7418 7.13831C16.442 7.2082 16.2644 7.22892 16.1898 7.22892V8.96385C16.4891 8.96385 16.8388 8.90193 17.1755 8.82342C17.5277 8.74129 17.9275 8.62591 18.3492 8.48908C19.1931 8.21521 20.1627 7.84286 21.0808 7.44104C21.9948 7.04102 22.8853 6.59985 23.56 6.18405C23.8938 5.97836 24.2065 5.75964 24.4466 5.53692C24.5666 5.42558 24.6914 5.29236 24.7911 5.13903C24.8868 4.99197 24.9999 4.7645 24.9999 4.48193H23.1771ZM7.37964 4.48193C7.37964 4.7645 7.49276 4.99197 7.58842 5.13903C7.68818 5.29236 7.81291 5.42558 7.93293 5.53692C8.173 5.75964 8.48573 5.97836 8.81952 6.18405C9.49422 6.59985 10.3847 7.04102 11.2987 7.44104C12.2168 7.84286 13.1864 8.21521 14.0304 8.48908C14.452 8.62591 14.8518 8.74129 15.204 8.82342C15.5407 8.90193 15.8905 8.96385 16.1898 8.96385V7.22892C16.1152 7.22892 15.9375 7.2082 15.6377 7.13831C15.3535 7.07203 15.0076 6.97322 14.6186 6.84697C13.8413 6.5947 12.9298 6.24529 12.0602 5.86474C11.1865 5.4824 10.3827 5.08057 9.81014 4.72772C9.52032 4.5491 9.32115 4.40207 9.20523 4.29453C9.14723 4.24072 9.13295 4.21766 9.13819 4.2257C9.13933 4.22746 9.20242 4.3206 9.20242 4.48193H7.37964ZM10.1663 6.84076L11.156 11.0331L12.9344 10.6528L11.9449 6.46044L10.1663 6.84076ZM19.6506 6.52867L18.6562 10.6487L20.4327 11.0371L21.4271 6.91711L19.6506 6.52867ZM12.0132 12.2837C13.0799 12.9832 14.4663 13.3012 15.7948 13.3012C17.1234 13.3012 18.5098 12.9832 19.5765 12.2837L18.5423 10.8552C17.8517 11.308 16.8522 11.5663 15.7948 11.5663C14.7375 11.5663 13.738 11.308 13.0474 10.8552L12.0132 12.2837ZM18.6553 10.6528C18.6246 10.7827 18.5698 10.837 18.5423 10.8552L19.5765 12.2837C20.0706 11.9596 20.3288 11.4774 20.4337 11.0331L18.6553 10.6528ZM11.156 11.0331C11.2608 11.4774 11.5191 11.9596 12.0132 12.2837L13.0474 10.8552C13.0198 10.837 12.965 10.7827 12.9344 10.6528L11.156 11.0331ZM22.5188 5.21658V10.6265H24.3416V5.21658H22.5188Z" fill="white"/>
</svg>
