<svg width="26" height="20" viewBox="0 0 26 20" fill="none" xmlns="http://www.w3.org/2000/svg">
<path d="M22.5716 16.75C23.389 16.75 24.0392 16.2196 24.623 15.4777C25.818 13.9593 23.8559 12.7459 23.1077 12.1517C22.3469 11.5475 21.4975 11.2053 20.6363 11.125M19.5454 8.875C21.0516 8.875 22.2727 7.6158 22.2727 6.0625C22.2727 4.5092 21.0516 3.25 19.5454 3.25" stroke="white" stroke-width="1.5" stroke-linecap="round"/>
<path d="M3.42832 16.75C2.6109 16.75 1.96073 16.2196 1.37696 15.4777C0.181913 13.9593 2.144 12.7459 2.89234 12.1517C3.65305 11.5475 4.50245 11.2053 5.36363 11.125M5.90909 8.875C4.40286 8.875 3.18181 7.6158 3.18181 6.0625C3.18181 4.5092 4.40286 3.25 5.90909 3.25" stroke="white" stroke-width="1.5" stroke-linecap="round"/>
<path d="M8.72787 13.5001C7.61321 14.2109 4.69062 15.6622 6.47067 17.4783C7.34021 18.3655 8.30865 19 9.52623 19H16.474C17.6915 19 18.6599 18.3655 19.5295 17.4783C21.3095 15.6622 18.387 14.2109 17.2723 13.5001C14.6584 11.8333 11.3418 11.8333 8.72787 13.5001Z" stroke="white" stroke-width="1.5" stroke-linecap="round" stroke-linejoin="round"/>
<path d="M16.8182 4.9375C16.8182 7.11212 15.1088 8.875 13.0001 8.875C10.8913 8.875 9.18188 7.11212 9.18188 4.9375C9.18188 2.76288 10.8913 1 13.0001 1C15.1088 1 16.8182 2.76288 16.8182 4.9375Z" stroke="white" stroke-width="1.5"/>
</svg>
