<svg width="26" height="24" viewBox="0 0 26 24" fill="none" xmlns="http://www.w3.org/2000/svg">
<path d="M19 10.5388C19 10.1162 19 9.90503 19.0624 9.71681C19.2438 9.16979 19.7222 8.95752 20.2013 8.73522C20.74 8.48532 21.0093 8.36037 21.2762 8.33839C21.5792 8.31343 21.8826 8.37992 22.1416 8.52794C22.4849 8.72417 22.7243 9.09706 22.9695 9.40028C24.1016 10.8007 24.6675 11.501 24.8746 12.2732C25.0418 12.8963 25.0418 13.548 24.8746 14.1711C24.5726 15.2974 23.6182 16.2415 22.9118 17.1154C22.5504 17.5624 22.3697 17.7859 22.1416 17.9163C21.8826 18.0643 21.5792 18.1308 21.2762 18.1059C21.0093 18.0839 20.74 17.959 20.2013 17.709C19.7222 17.4867 19.2438 17.2745 19.0624 16.7275C19 16.5393 19 16.3281 19 15.9055V10.5388Z" stroke="white" stroke-width="1.5"/>
<path d="M7.00001 10.5389C7.00001 10.007 6.98534 9.52885 6.5631 9.15483C6.40952 9.0188 6.20591 8.92434 5.7987 8.73543C5.26002 8.48552 4.99068 8.36057 4.7238 8.33859C3.9231 8.27263 3.49231 8.82925 3.03056 9.40048C1.8985 10.8009 1.33247 11.5011 1.12535 12.2733C0.958216 12.8965 0.958216 13.5482 1.12535 14.1713C1.42744 15.2976 2.38183 16.2416 3.08825 17.1157C3.53355 17.6665 3.95893 18.1691 4.7238 18.1061C4.99068 18.0841 5.26002 17.9591 5.7987 17.7093C6.20591 17.5203 6.40952 17.4259 6.5631 17.2898C6.98534 16.9158 7.00001 16.4378 7.00001 15.9058V10.5389Z" stroke="white" stroke-width="1.5"/>
<path d="M4.6001 8.33333C4.6001 4.28324 8.36091 1 13.0001 1C17.6393 1 21.4001 4.28324 21.4001 8.33333" stroke="white" stroke-width="1.5" stroke-linecap="square" stroke-linejoin="round"/>
<path d="M21.4 18.1113V19.0891C21.4 21.2491 19.2509 23.0002 16.6 23.0002H14.2" stroke="white" stroke-width="1.5" stroke-linecap="round" stroke-linejoin="round"/>
</svg>
