<svg width="24" height="26" viewBox="0 0 24 26" fill="none" xmlns="http://www.w3.org/2000/svg">
<path d="M22.93 18.8025C22.1278 14.0639 19.6306 10.5354 17.4597 8.4628C16.8279 7.8597 16.5121 7.55816 15.8143 7.27908C15.1166 7 14.5168 7 13.3173 7H10.6827C9.48322 7 8.88346 7 8.18572 7.27908C7.48798 7.55816 7.17212 7.8597 6.54039 8.4628C4.36945 10.5354 1.87219 14.0639 1.06999 18.8025C0.473133 22.3281 3.78577 25 7.48795 25H16.5121C20.2142 25 23.5269 22.3281 22.93 18.8025Z" stroke="white" stroke-width="1.5" stroke-linecap="round"/>
<path d="M12.8104 11.7999C12.8104 11.3029 12.4001 10.8999 11.8937 10.8999C11.3875 10.8999 10.977 11.3029 10.977 11.7999H12.8104ZM10.977 20.1999C10.977 20.6969 11.3875 21.0999 11.8937 21.0999C12.4001 21.0999 12.8104 20.6969 12.8104 20.1999H10.977ZM13.2048 14.1446C13.5111 14.5402 14.0861 14.6171 14.4892 14.3164C14.8923 14.0156 14.9706 13.451 14.6642 13.0552L13.2048 14.1446ZM10.4688 17.9225C10.0915 17.5911 9.51207 17.6227 9.17445 17.993C8.83683 18.3634 8.86895 18.9323 9.2462 19.2639L10.4688 17.9225ZM11.8937 14.9791C11.1026 14.9791 10.7424 14.8523 10.5991 14.7575C10.5334 14.7141 10.4723 14.6648 10.4723 14.4273H8.63892C8.63892 15.1251 8.89661 15.8018 9.5749 16.2505C10.1755 16.6477 10.9844 16.7791 11.8937 16.7791V14.9791ZM10.4723 14.4273C10.4723 14.3127 10.5343 14.1351 10.7847 13.9538C11.0346 13.7726 11.4238 13.6334 11.8937 13.6334V11.8334C11.0724 11.8334 10.2925 12.0734 9.69614 12.5054C9.10022 12.937 8.63892 13.6064 8.63892 14.4273H10.4723ZM13.5278 17.573C13.5278 17.8393 13.4314 17.9805 13.2254 18.1021C12.9638 18.2564 12.5148 18.3668 11.8937 18.3668V20.1668C12.6814 20.1668 13.5079 20.0353 14.1694 19.645C14.8866 19.2221 15.3611 18.5164 15.3611 17.573H13.5278ZM11.8937 16.7791C12.6923 16.7791 13.1087 16.8998 13.306 17.0261C13.421 17.0997 13.5278 17.2075 13.5278 17.573H15.3611C15.3611 16.7285 15.0429 15.9893 14.3076 15.5185C13.6547 15.1004 12.7957 14.9791 11.8937 14.9791V16.7791ZM12.8104 12.7334V11.7999H10.977V12.7334H12.8104ZM10.977 19.2668V20.1999H12.8104V19.2668H10.977ZM11.8937 13.6334C12.5475 13.6334 13.0129 13.8968 13.2048 14.1446L14.6642 13.0552C14.0554 12.2689 12.9932 11.8334 11.8937 11.8334V13.6334ZM11.8937 18.3668C11.2418 18.3668 10.7352 18.1565 10.4688 17.9225L9.2462 19.2639C9.91113 19.8481 10.8821 20.1668 11.8937 20.1668V18.3668Z" fill="white"/>
<path d="M6.20256 3.93144C5.95041 3.5711 5.58492 3.08199 6.3399 2.97046C7.11593 2.85581 7.92173 3.37737 8.71048 3.36665C9.42404 3.35696 9.78757 3.04623 10.1776 2.60258C10.5882 2.1354 11.2242 1 12 1C12.7759 1 13.4118 2.1354 13.8225 2.60258C14.2125 3.04623 14.576 3.35696 15.2895 3.36665C16.0784 3.37737 16.8842 2.85581 17.6602 2.97046C18.4151 3.08199 18.0497 3.5711 17.7975 3.93144L16.6573 5.56077C16.1697 6.25775 15.9258 6.60624 15.4154 6.80313C14.9051 7 14.2456 7 12.9267 7H11.0733C9.75444 7 9.09493 7 8.5846 6.80313C8.07428 6.60624 7.83042 6.25775 7.34269 5.56077L6.20256 3.93144Z" stroke="white" stroke-width="1.5"/>
</svg>
