<svg width="36" height="36" viewBox="0 0 36 36" fill="none" xmlns="http://www.w3.org/2000/svg">
<path d="M18.001 12.9895L11.5355 10.8396C10.603 13.3644 8.8989 16.8974 5.81934 20.8589C5.81934 20.8589 13.0384 25.8577 17.7947 36C17.3669 32.6014 16.3192 27.0942 13.813 23.1093C13.8646 23.1722 14.9994 24.5018 18.001 24.5798C21.0017 24.5009 22.1364 23.1713 22.189 23.1093C19.6829 27.0942 18.6352 32.6014 18.2074 36C22.9637 25.8577 30.1828 20.8589 30.1828 20.8589C27.1032 16.8964 25.3991 13.3644 24.4666 10.8396L18.001 12.9895ZM19.3502 22.678C19.3421 23.3677 18.7403 23.923 18.001 23.9286C17.2618 23.923 16.66 23.3686 16.6519 22.678C16.6499 22.5079 16.6843 22.3463 16.747 22.1978L15.6739 21.7534L17.9889 20.7348L18.001 20.7395L18.0132 20.7348L20.3282 21.7534L19.2551 22.1978C19.3188 22.3463 19.3522 22.5079 19.3502 22.678Z" fill="white"/>
<path d="M33.0125 14.9504L32.5523 7.1299L36 5.98356L18 0L0 5.98356L18 11.9681L31.8484 7.36387L31.4024 14.9504C30.7228 15.2351 30.2505 15.8703 30.2505 16.6079C30.2505 17.6124 31.1263 18.4261 32.2074 18.4261C33.2886 18.4261 34.1644 17.6124 34.1644 16.6079C34.1644 15.8703 33.6921 15.2361 33.0125 14.9504Z" fill="#F20F10"/>
</svg>
