<svg width="40" height="30" viewBox="0 0 40 30" fill="none" xmlns="http://www.w3.org/2000/svg">
<path fill-rule="evenodd" clip-rule="evenodd" d="M7.31628 0.798051C3.93488 1.96279 2.32558 3.05376 2.32558 4.18161C2.32558 4.66643 1.80233 5.31189 1.16279 5.61569L0 6.16845V17.5664C0 28.3387 0.0493024 28.9919 0.899535 29.467C2.26 30.2265 38.7098 30.1508 39.4419 29.387C39.8442 28.9672 40 25.6423 40 17.4868V6.16845L38.8372 5.61569C38.1977 5.31189 37.6744 4.67371 37.6744 4.19762C37.6744 2.97853 36.087 1.94823 32.3958 0.771844C28.6795 -0.412303 25.9647 -0.250696 22.3544 1.36974L20 2.42625L17.5828 1.34111C14.2405 -0.158973 10.647 -0.348728 7.31628 0.798051ZM8.3693 2.24572C7.72791 2.46556 6.52419 3.01153 5.69488 3.45899L4.18605 4.27284L4.18651 14.5735L4.18698 24.8736H9.41907C13.8237 24.8736 15.0005 25.042 16.8605 25.9384L19.0698 27.0031V15.4727V3.94235L17.3256 3.062C15.4065 2.09285 10.2019 1.6187 8.3693 2.24572ZM23.3721 2.82129L20.9302 3.83073V15.4169V27.0031L23.1395 25.9384C24.9995 25.042 26.1763 24.8736 30.5814 24.8736H35.814V14.5706V4.26799L33.8372 3.21439C30.9777 1.69101 26.513 1.52358 23.3721 2.82129ZM1.39535 17.594V28.0281L8.95349 27.9883C16.2251 27.9505 16.4498 27.9199 14.8837 27.1846C12.9893 26.2956 6.48977 26.15 4.59395 26.9541C2.47116 27.8548 2.32558 27.2021 2.32558 16.769C2.32558 10.6867 2.15488 7.15993 1.86047 7.15993C1.56465 7.15993 1.39535 10.9613 1.39535 17.594ZM8.44512 7.67581C6.59628 8.09269 5.66837 8.90509 6.30233 9.55201C6.90512 10.1674 11.1628 9.10892 11.1628 8.34359C11.1628 7.49722 10.2409 7.27058 8.44512 7.67581ZM25.6907 7.66028C23.2567 8.1781 22.7907 8.46201 22.7907 9.42631C22.7907 10.0456 23.1009 10.1072 24.5349 9.77282C26.4465 9.32731 30.1651 9.24481 32.2767 9.60151C33.8354 9.86503 34.4447 8.92014 33.1679 8.21935C31.846 7.49382 27.8702 7.19681 25.6907 7.66028ZM37.6744 16.769C37.6744 27.1987 37.5293 27.851 35.406 26.9599C33.6 26.2019 27.5158 26.3373 25.1163 27.189C23.0679 27.9165 23.1893 27.933 30.814 27.9801L38.6047 28.0281V17.594C38.6047 10.9613 38.4353 7.15993 38.1395 7.15993C37.8451 7.15993 37.6744 10.6867 37.6744 16.769ZM12.093 8.31545C12.093 8.89636 15.1879 10.0718 16.7177 10.0718C17.6777 10.0718 17.1907 8.7629 16.0247 8.20868C14.3698 7.422 12.093 7.48363 12.093 8.31545ZM6.71674 12.7317C5.37302 13.8013 6.58605 14.4279 8.93488 13.8771C10.2809 13.5616 11.5847 13.6499 13.6209 14.1944C15.5465 14.7089 16.594 14.7904 16.9191 14.4512C18.6712 12.623 8.91814 10.9793 6.71674 12.7317ZM24.6512 12.6997C23.7558 13.0365 22.9558 13.6752 22.873 14.1187C22.6888 15.1063 22.9814 15.1136 26.3344 14.2022C28.0474 13.7368 29.8758 13.5878 31.4735 13.7839C34.0633 14.1013 34.8144 13.4985 33.054 12.5153C31.8316 11.8329 26.6526 11.946 24.6512 12.6997ZM6.86047 17.3591C5.25581 18.3957 5.95767 18.9514 8.48837 18.6481C9.83163 18.487 11.7674 18.5845 12.7907 18.8641C16.493 19.8759 17.2093 19.9274 17.2093 19.1829C17.2093 18.7951 16.634 18.1939 15.9302 17.8464C14.2498 17.017 7.91628 16.6768 6.86047 17.3591ZM24.8837 17.6023C23.8605 17.99 22.9712 18.3108 22.907 18.3147C22.4563 18.3428 22.914 19.7764 23.3721 19.7706C24.8595 19.7517 28.1395 18.3889 28.1395 17.7896C28.1395 16.8466 27.0437 16.7831 24.8837 17.6023ZM29.0693 17.3523C28.9107 17.6197 29.3307 18.0565 30.0023 18.3229C31.5591 18.9403 33.9535 18.9504 33.9535 18.339C33.9535 17.132 29.7079 16.274 29.0693 17.3523Z" fill="white"/>
</svg>
