<svg width="189" height="63" viewBox="0 0 189 63" fill="none" xmlns="http://www.w3.org/2000/svg">
<path d="M4.02177 55.959C6.44171 52.0691 10.6538 46.8209 16.8305 41.1355C19.9096 38.2871 23.4527 35.2649 27.3429 32.1756C31.2481 29.0827 35.5454 25.9121 40.3679 23.0893C42.7756 21.663 45.3163 20.3311 47.9931 19.1718C50.6627 17.9827 53.4789 17.0109 56.4041 16.2971C59.3257 15.5684 62.3598 15.1125 65.4189 15.0923C68.4822 15.0237 71.5485 15.3646 74.5544 16.1142C74.7216 16.1532 74.8775 16.2106 75.0447 16.2496C74.9387 16.4011 74.8142 16.5412 74.7232 16.6891C72.7207 19.5487 71.2178 22.715 70.2757 26.0472C69.3301 29.3645 68.8299 32.8278 69.0114 36.3019C69.2228 39.7689 70.0376 43.2497 71.6451 46.4782C73.2604 49.6733 75.6307 52.6566 78.7891 54.7737C80.3008 55.8799 82.0529 56.8025 83.9907 57.4442C85.9249 58.071 88.1345 58.3955 90.3695 58.0987C94.8993 57.491 98.5555 54.6784 100.756 51.3928C103.044 48.0077 103.654 44.0133 103.295 40.4554C102.94 36.8492 101.717 33.5131 100.089 30.463C98.4427 27.4016 96.2824 24.6362 93.7828 22.2358C90.664 19.226 87.0059 16.8023 83.0612 15.0306C83.7726 14.3719 84.521 13.7358 85.3321 13.1637C90.0321 9.62884 95.5962 7.46507 101.111 6.354C106.642 5.23937 112.131 5.14402 117.199 5.66952C122.257 6.21351 126.898 7.33001 130.935 8.82726C134.991 10.3359 138.584 12.223 141.756 14.1317C148.156 17.9201 152.91 21.9592 156.683 25.4596C160.407 29.0191 163.179 32.096 165.18 34.7257C167.238 37.3262 168.661 39.3842 169.717 40.962C170.645 42.2705 171.238 43.2332 171.722 43.9379C171.321 43.7811 170.939 43.6357 170.553 43.4754C167.207 42.1603 164.172 41.0233 161.589 40.1255C156.422 38.3299 153.093 37.4839 152.812 38.0243C152.53 38.5647 155.345 40.3693 160.143 42.8681C162.54 44.1101 165.423 45.5357 168.658 47.0507C169.066 47.2373 169.474 47.4239 169.885 47.6254C170.345 47.8312 170.857 48.0561 171.514 48.2304C171.849 48.3083 172.202 48.3976 172.619 48.4243C173.054 48.4623 173.572 48.4491 174.039 48.3535C174.991 48.1736 175.883 47.6768 176.551 46.9655C177.732 45.6269 177.948 44.5499 178.33 43.7016C178.698 42.7937 179.062 41.8708 179.438 40.9294C185.355 25.9521 189.207 13.5026 188.012 13.1254C186.82 12.7632 181.056 24.6122 175.138 39.5894C174.885 40.2493 174.628 40.8941 174.375 41.5539C174.114 40.859 173.765 40.0589 173.251 39.0934C172.384 37.3129 171.079 35.0217 169.083 32.1538C167.13 29.2604 164.339 25.9042 160.51 22.0384C156.633 18.2317 151.699 13.9042 144.904 9.78422C141.521 7.72068 137.699 5.66744 133.205 3.97936C128.697 2.29484 123.636 1.07348 118.043 0.468082C112.453 -0.122395 106.353 -0.00737098 100.117 1.25993C93.8958 2.52367 87.4523 5.03926 81.959 9.22088C80.423 10.3288 78.9852 11.6498 77.6541 13.0874C76.993 12.8981 76.3504 12.7202 75.6815 12.5644C72.307 11.7923 68.8344 11.4696 65.4273 11.6201C62.0246 11.7223 58.6987 12.2794 55.5558 13.1398C52.3909 13.9739 49.4054 15.0965 46.6077 16.4108C43.788 17.6988 41.1675 19.1602 38.7065 20.6938C33.7695 23.7648 29.4516 27.1139 25.6006 30.3673C21.753 33.6357 18.3018 36.7779 15.2619 39.7905C9.19699 45.8121 5.14506 51.4006 3.00197 55.5241C1.91371 57.582 1.23237 59.2273 0.82489 60.3655C0.450852 61.5116 0.29516 62.1166 0.395499 62.14C0.659508 62.1874 1.57976 59.8226 4.02177 55.959ZM79.3142 19.316C79.6208 18.8801 79.9345 18.474 80.2632 18.0643C84.1082 19.7494 87.6553 22.1049 90.5998 25.0459C92.7777 27.2234 94.632 29.699 96.033 32.3932C97.419 35.0909 98.4152 38.0078 98.6549 40.9318C98.8911 43.8408 98.326 46.7676 96.7134 49.0767C95.1228 51.4122 92.5323 53.1976 89.9024 53.494C87.2945 53.8166 84.3782 52.7144 81.9982 50.9478C79.5244 49.2511 77.6951 46.8799 76.4158 44.2987C75.1443 41.684 74.4904 38.8116 74.3439 35.8812C74.2123 32.9472 74.6771 29.9971 75.509 27.1959C76.3039 24.3721 77.6226 21.6914 79.3142 19.316Z" fill="#D0DBE9"/>
</svg>
