<svg width="40" height="32" viewBox="0 0 40 32" fill="none" xmlns="http://www.w3.org/2000/svg">
<path fill-rule="evenodd" clip-rule="evenodd" d="M17.1912 0.571614C14.4469 1.55769 12.4301 3.16346 10.9652 5.52956C10.2114 6.74657 9.55321 7.40222 9.21574 7.27197C8.91807 7.1573 7.79622 7.25239 6.72293 7.48373C4.18913 8.0291 1.45277 10.3976 0.518758 12.8532C-0.851413 16.4551 0.587605 21.0798 3.71715 23.1299L5.09011 24.0296L5.20472 27.8253C5.33167 32.0317 5.10881 31.8092 8.36809 30.9773C9.89227 30.5882 10.5481 30.6113 12.0492 31.1076C13.6769 31.6454 14.0736 31.6458 15.6965 31.1092C17.3174 30.5738 17.7535 30.5734 19.6657 31.108C20.8473 31.438 21.9082 31.6138 22.0232 31.4979C22.1382 31.3825 22.2326 29.7899 22.2326 27.9584V24.629H24.2458C25.4867 24.629 26.1648 24.7824 26.0132 25.0285C25.8779 25.2483 25.1512 25.4281 24.3979 25.4281C23.5522 25.4281 23.0285 25.623 23.0285 25.9383C23.0285 26.2188 24.282 27.6975 25.8146 29.2241L28.6007 31.9998L31.5651 29.0431C33.1959 27.417 34.4387 25.9387 34.3269 25.7573C34.2155 25.5763 33.5083 25.4281 32.755 25.4281C32.0016 25.4281 31.3856 25.2483 31.3856 25.0285C31.3856 24.8088 31.9284 24.629 32.5922 24.629C34.007 24.629 36.411 23.6884 37.4823 22.7159C38.9046 21.4246 39.7897 19.0561 39.954 16.1031C40.0484 14.4074 39.9942 13.7302 39.8215 14.4406L39.5302 15.6392L39.0077 14.3803C38.289 12.6494 37.0143 11.5403 34.7535 10.6789C33.0582 10.0324 32.7808 9.75554 32.3435 8.26843C31.3884 5.02054 28.7893 2.2533 25.2519 0.717847C23.1881 -0.177931 19.4656 -0.245853 17.1912 0.571614ZM16.4594 2.39473C14.4123 3.35204 12.3704 5.34896 11.2859 7.45376C10.7371 8.51935 10.4729 8.6472 8.81738 8.6472C3.82022 8.6472 0.274412 13.1233 1.53873 17.8359C1.95658 19.3945 4.0383 22.2317 4.76378 22.2317C4.95997 22.2317 5.12035 21.5333 5.12035 20.6795C5.12035 19.4309 5.33246 18.9878 6.2032 18.4149C7.71623 17.4196 10.5859 17.215 12.3946 17.9738C13.7011 18.5219 14.0378 18.5267 15.2556 18.0161C17.0818 17.2498 19.1002 17.2841 20.8262 18.1104C22.2003 18.7685 22.2326 18.838 22.2326 21.129V23.4743L24.1229 23.3524L26.0132 23.2306L26.1266 19.1165L26.2404 15.0023L28.7133 15.121L31.1866 15.2397L31.3 19.335C31.4254 23.8614 31.4003 23.8287 34.1439 23.0388C37.1552 22.1718 38.983 18.9419 38.1724 15.9197C37.6268 13.8848 35.8762 12.291 33.5246 11.6889C31.7438 11.2326 31.5715 11.0808 31.3609 9.77951C31.0493 7.8549 29.2593 4.89268 27.6742 3.67887C24.4695 1.22487 20.0454 0.718247 16.4594 2.39473ZM0.0662795 15.839C0.0662795 17.0476 0.140698 17.5422 0.23183 16.9377C0.322963 16.3332 0.322963 15.3448 0.23183 14.7402C0.140698 14.1357 0.0662795 14.6304 0.0662795 15.839ZM27.3189 21.5149C27.2106 26.2319 27.1772 26.3993 26.2921 26.6091C25.4075 26.8193 25.4294 26.8776 26.9523 28.3707C28.5151 29.9021 28.5358 29.9089 29.4818 29.1926C30.0067 28.795 30.7473 28.0551 31.1281 27.5484C31.7959 26.6594 31.7915 26.6267 31.0063 26.6267C30.2291 26.6267 30.1917 26.3981 30.1917 21.6324V16.6381H28.8112H27.4307L27.3189 21.5149ZM7.80657 19.0873L6.71218 19.5016V24.5622V29.6233H9.89585H13.0795V24.7428C13.0795 20.4845 12.99 19.8145 12.3759 19.4844C11.1868 18.8456 8.95786 18.6518 7.80657 19.0873ZM15.9647 19.134L14.6714 19.5504L14.6718 24.587V29.6233L17.8554 29.6341L21.0387 29.6452V24.5586V19.4724L19.5463 19.0565C17.8204 18.5751 17.6911 18.5779 15.9647 19.134ZM7.80657 21.4646C6.48097 22.2397 7.12168 22.5545 9.79636 22.4427C13.1161 22.3036 13.0433 22.3296 12.1081 21.6196C11.2242 20.9484 8.83649 20.8625 7.80657 21.4646ZM15.7657 21.4646C14.4803 22.2161 15.0518 22.5314 17.656 22.5066C19.3967 22.4902 20.2428 22.3244 20.2428 22C20.2428 21.0351 17.1363 20.6631 15.7657 21.4646ZM7.60759 24.0944C7.33419 24.2054 7.11014 24.5227 7.11014 24.8C7.11014 25.1656 7.84716 25.2766 9.79636 25.2039C11.2736 25.1492 12.5494 25.0872 12.6306 25.0665C12.7122 25.0457 12.5562 24.7588 12.2836 24.4292C11.8037 23.8483 8.75371 23.6301 7.60759 24.0944ZM15.5668 24.0944C15.2934 24.2054 15.0693 24.5187 15.0693 24.7912C15.0693 25.1372 15.8481 25.2778 17.656 25.2574C19.3139 25.2387 20.2428 25.0645 20.2428 24.7716C20.2428 24.5203 19.9594 24.2058 19.6132 24.0724C18.877 23.7887 16.2867 23.8027 15.5668 24.0944ZM7.99441 26.7198C6.4754 27.4545 7.22476 27.9664 9.81984 27.9664C12.4376 27.9664 12.9983 27.54 11.4431 26.7326C10.2954 26.1364 9.20858 26.1325 7.99441 26.7198ZM15.9313 26.6515C14.3124 27.3031 15.1756 27.9356 17.7742 28.0027C19.5913 28.0495 20.2428 27.9264 20.2428 27.5364C20.2428 26.9699 18.6382 26.2108 17.5307 26.2523C17.1618 26.2663 16.4423 26.4461 15.9313 26.6515Z" fill="white"/>
</svg>
