<svg width="40" height="30" viewBox="0 0 40 30" fill="none" xmlns="http://www.w3.org/2000/svg">
<path fill-rule="evenodd" clip-rule="evenodd" d="M1.66336 0.137554C0.941704 0.404865 0.42972 0.943822 0.15018 1.7305C0.00428862 2.14114 0 2.51859 0 14.9894C0 27.6917 0.00163747 27.8304 0.158523 28.2788C0.370381 28.8842 0.840259 29.4371 1.38686 29.7241L1.83241 29.9581L13.7236 29.9813C20.2638 29.9941 25.6931 29.9842 25.7888 29.9592C25.9658 29.9132 26.1996 29.533 26.1996 29.2914C26.1996 29.2183 26.1134 29.0663 26.0082 28.9538L25.8168 28.7491L14.0975 28.7486C6.64698 28.7483 2.27757 28.7182 2.10189 28.666C1.78836 28.5729 1.37548 28.1548 1.25236 27.8057C1.13633 27.4765 1.13633 2.50683 1.25236 2.17765C1.37548 1.82855 1.78836 1.41041 2.10189 1.31727C2.48093 1.20463 37.4423 1.20463 37.8213 1.31727C38.1349 1.41041 38.5477 1.82855 38.6709 2.17765C38.7869 2.50683 38.7869 27.4765 38.6709 27.8057C38.5477 28.1548 38.1349 28.5729 37.8213 28.666C37.6683 28.7115 36.4982 28.7483 35.1998 28.7486L32.8547 28.7491L32.6851 28.942C32.4432 29.2174 32.4612 29.6084 32.7259 29.8311C32.932 30.0044 32.9873 30.0074 35.5135 29.983L38.0908 29.9581L38.5364 29.7241C39.0646 29.4468 39.5504 28.8892 39.7372 28.3461C39.8108 28.1321 39.9003 27.9213 39.9361 27.8778C40.019 27.777 40.0224 1.96079 39.9396 2.01548C39.9057 2.03791 39.8185 1.87724 39.7458 1.65837C39.5635 1.10966 39.0712 0.540021 38.5364 0.259203L38.0908 0.025243L20.0786 0.00673296C2.94652 -0.0108599 2.04661 -0.00443972 1.66336 0.137554ZM0.0380518 14.9917C0.0380518 22.1226 0.0472529 25.0397 0.0584813 21.4743C0.0697097 17.9089 0.0697097 12.0744 0.0584813 8.50899C0.0472529 4.94356 0.0380518 7.86072 0.0380518 14.9917ZM5.02939 3.39114C4.31303 3.59209 3.67777 4.14855 3.34887 4.86335C3.19136 5.20562 3.15814 5.4019 3.15908 5.98679C3.16002 6.59262 3.1905 6.75729 3.36922 7.12141C3.63434 7.66153 4.26071 8.26711 4.73184 8.43878C5.59081 8.7517 6.65813 8.51583 7.27257 7.87723C7.81583 7.31268 7.99267 6.83709 7.99111 5.94511C7.99002 5.3266 7.9586 5.13175 7.81232 4.83659C7.37059 3.94536 6.65096 3.42675 5.76633 3.36221C5.48968 3.34203 5.15805 3.35504 5.02939 3.39114ZM9.54843 4.19041C9.31451 4.44046 9.30421 4.72528 9.51865 5.01669L9.68021 5.23639H13.6817C17.3831 5.23639 17.6957 5.22538 17.8523 5.08981C18.1063 4.86986 18.0931 4.4267 17.8252 4.18024L17.6136 3.98571H13.6767H9.73978L9.54843 4.19041ZM5.18534 4.69193C4.20621 5.07063 4.0101 6.44237 4.84412 7.07838C5.19961 7.34953 5.96337 7.36479 6.28596 7.10723C6.84387 6.66183 7.00177 6.01506 6.70983 5.3703C6.42483 4.74071 5.78972 4.45814 5.18534 4.69193ZM9.69729 6.75137C9.53128 6.83734 9.357 7.14659 9.357 7.3552C9.357 7.41565 9.42975 7.56398 9.51865 7.68479L9.68021 7.9045H11.8189C13.8536 7.9045 13.9651 7.89641 14.1135 7.73774C14.3457 7.48944 14.3214 7.0432 14.064 6.82666C13.8679 6.66166 13.768 6.65407 11.8612 6.65949C10.6562 6.66291 9.7978 6.69935 9.69729 6.75137ZM19.2208 8.36208C19.0064 8.42436 16.0414 9.77175 12.632 11.3564C5.99308 14.4419 6.08268 14.3924 5.96875 15.0418C5.94138 15.1977 5.94138 15.4527 5.96875 15.6085C6.07114 16.1922 6.29812 16.3526 8.40275 17.3293C9.48621 17.8321 10.4774 18.2434 10.6055 18.2434C10.7346 18.2434 10.9082 18.169 10.9945 18.0767C11.1802 17.878 11.2003 17.44 11.0328 17.242C10.968 17.1655 10.0732 16.7148 9.0444 16.2402C8.01552 15.7658 7.1737 15.3558 7.1737 15.3291C7.1737 15.2475 19.4354 9.59291 19.7294 9.53879C19.8804 9.51103 20.1787 9.53763 20.3922 9.59799C20.8181 9.71848 32.7495 15.251 32.7495 15.3281C32.7495 15.3543 31.5653 15.9252 30.1179 16.5967L27.4862 17.8176L27.4472 16.7438C27.4138 15.8236 27.3848 15.6363 27.2447 15.4351C26.6395 14.5654 23.9353 14.0519 19.9616 14.0519C15.8941 14.0519 13.2271 14.5748 12.6536 15.4849C12.4773 15.7647 12.476 15.7875 12.476 18.655C12.476 21.4843 12.4796 21.5508 12.6514 21.9152C12.7796 22.187 12.9206 22.3378 13.1748 22.4749L13.5227 22.6625H19.9616H26.4005L26.7484 22.4749C27.0026 22.3378 27.1436 22.187 27.2718 21.9152C27.4284 21.583 27.4472 21.42 27.4472 20.3915V19.2398L28.0418 18.95C28.3688 18.7907 28.6671 18.6603 28.7046 18.6603C28.7425 18.6603 28.7728 20.1781 28.7728 22.0732C28.7728 25.4725 28.7722 25.4863 28.6082 25.5419C28.3385 25.6335 27.8229 26.1821 27.6707 26.5396C27.5517 26.819 27.5283 27.0987 27.5269 28.2636L27.5252 29.6542L27.7306 29.8269C27.9216 29.9876 28.0374 29.9998 29.3716 29.9998C30.7919 29.9998 30.8093 29.9976 30.9986 29.7951C31.1855 29.5953 31.1899 29.5603 31.1866 28.3151C31.1843 27.4697 31.148 26.9344 31.0787 26.727C30.9268 26.2716 30.6011 25.8533 30.249 25.6612L29.9408 25.4931L29.9611 21.7698L29.9814 18.0466L31.7358 17.2297C33.5881 16.3672 33.7654 16.2401 33.9286 15.6575C34.0464 15.2375 33.92 14.728 33.6197 14.4119C33.3846 14.1645 21.4059 8.56252 20.6788 8.35999C20.1467 8.21183 19.7367 8.21241 19.2208 8.36208ZM17.5054 15.3759C15.6277 15.5726 14.4683 15.7829 13.926 16.0252L13.6456 16.1504V17.4054V18.6603H19.9616H26.2776V17.4125C26.2776 15.9729 26.3506 16.1008 25.3771 15.8352C24.1171 15.4916 23.0904 15.3955 20.3905 15.3687C18.9752 15.3547 17.6769 15.3579 17.5054 15.3759ZM13.662 20.6822L13.6846 21.3701H19.9616H26.2386L26.2612 20.6822L26.2839 19.9944H19.9616H13.6393L13.662 20.6822ZM28.8862 26.8693C28.7084 27.0594 28.6948 27.1334 28.6948 27.9115V28.7491H29.3649H30.035L30.0082 27.908C29.9826 27.1059 29.9713 27.0575 29.7626 26.8657C29.4767 26.6029 29.134 26.6043 28.8862 26.8693Z" fill="white"/>
</svg>
