<svg width="50" height="50" viewBox="0 0 50 50" fill="none" xmlns="http://www.w3.org/2000/svg">
<path fill-rule="evenodd" clip-rule="evenodd" d="M23.427 0.599126C22.7983 0.92325 17.3969 3.5774 11.4238 6.49702C5.45083 9.41689 0.411773 11.9783 0.226295 12.1891C0.0405309 12.4002 -0.0489216 12.7153 0.0270986 12.8895C0.103405 13.0637 1.50921 13.7456 3.15136 14.4043L6.13672 15.6023V16.804C6.13672 17.9286 6.08643 18.0105 5.3508 18.085L4.56488 18.1642V22.3004V26.4365H7.13699H9.7091V22.3004V18.1642L8.92318 18.085C8.25958 18.0178 8.13726 17.888 8.13726 17.2492C8.13726 16.8334 8.24614 16.5306 8.37961 16.5767C8.51279 16.6226 9.95946 17.2016 11.5947 17.8634C13.8985 18.7959 14.7122 19.2607 15.2106 19.928C15.9651 20.9387 15.9879 21.047 15.4469 21.047C14.7467 21.047 13.3341 22.278 12.9925 23.186C12.3915 24.783 13.972 27.0632 15.6798 27.0632C16.1297 27.0632 16.4612 27.3241 16.7976 27.9431C17.0608 28.4269 17.7918 29.3138 18.4226 29.9139C19.7201 31.1485 20.0261 32.3853 18.9747 32.1441C18.5329 32.0429 18.0007 32.3306 16.9027 33.2647C15.8139 34.1906 15.1351 34.5596 14.3238 34.6662C10.964 35.1079 6.86406 37.8899 5.15361 40.8884C3.89327 43.0982 3.5226 44.7361 3.62463 47.6434L3.70751 50H24.9989H46.2903L46.3731 47.6434C46.4752 44.7361 46.1045 43.0982 44.8442 40.8884C43.1354 37.8929 39.0532 35.1207 35.674 34.6614C34.8829 34.5539 34.1462 34.1613 33.0582 33.2682C31.9933 32.3938 31.3783 32.0627 30.9862 32.1527C29.9719 32.3853 30.304 31.1236 31.5752 29.9139C32.2059 29.3138 32.937 28.4269 33.2002 27.9431C33.5366 27.3241 33.8681 27.0632 34.3179 27.0632C35.2408 27.0632 36.6551 25.9184 36.9706 24.9164C37.1415 24.3732 37.1415 23.737 36.9706 23.1938C36.6874 22.2941 35.2679 21.047 34.5271 21.047C34.0516 21.047 34.061 21.0131 34.8541 19.8816C35.3179 19.2201 36.5737 18.6154 42.623 16.1415C46.5918 14.5186 49.8995 13.0517 49.9741 12.8817C50.0484 12.7118 49.9572 12.3999 49.7715 12.1889C49.3519 11.7116 25.4762 -0.0135248 24.9514 1.17117e-05C24.7417 0.0052759 24.0558 0.275003 23.427 0.599126ZM16.5032 5.82646L8.1504 9.89192L8.14383 12.2909L8.13726 14.6898L10.9006 15.8003C12.4204 16.411 13.7708 16.9484 13.9014 16.9943C14.032 17.0404 14.1389 15.7302 14.1389 14.0827C14.1389 10.5723 14.4172 10.0539 16.6432 9.41814C20.8809 8.20763 29.1671 8.20563 33.3545 9.41413C35.582 10.0569 35.8589 10.5733 35.8589 14.0827C35.8589 15.7302 35.9701 17.0404 36.1061 16.9943C37.768 16.4325 46.719 12.6504 46.719 12.51C46.719 12.3423 25.275 1.73293 24.9766 1.75299C24.9103 1.7575 21.0973 3.59069 16.5032 5.82646ZM21.1407 10.2767C19.8832 10.3963 18.2757 10.6452 17.5683 10.8297L16.2823 11.1654L16.1954 12.6293C16.1111 14.0526 16.1271 14.089 16.767 13.9288C20.9309 12.8862 29.0668 12.8862 33.2308 13.9288C33.871 14.089 33.8867 14.0531 33.8024 12.6195L33.7155 11.1453L31.841 10.7344C29.4924 10.2196 24.1484 9.99094 21.1407 10.2767ZM4.49343 11.6905C3.82554 12.0317 3.27882 12.3927 3.27882 12.4929C3.27882 12.6544 5.65917 13.7774 6.00155 13.7774C6.07585 13.7774 6.13672 13.157 6.13672 12.3987C6.13672 11.6404 6.04041 11.0312 5.92238 11.045C5.80435 11.0588 5.16132 11.3493 4.49343 11.6905ZM19.9976 14.94C19.526 15.0032 18.4651 15.2218 17.6398 15.4258L16.1394 15.7968V16.9304C16.1394 17.5538 16.3357 18.3966 16.5755 18.8034C16.959 19.4539 17.1642 19.5429 18.2802 19.5429C19.9833 19.5429 21.4399 18.4665 21.7783 16.9577C21.9607 16.1458 22.1567 15.8901 22.6443 15.8287C23.1635 15.763 23.3945 15.9873 23.9578 17.1049C25.0049 19.1815 25.8731 19.5429 29.8122 19.5429H32.9864L33.4223 18.8034C33.662 18.3966 33.8584 17.5548 33.8584 16.9329V15.8021L32.358 15.3872C31.258 15.0832 29.5227 14.9528 25.8563 14.8989C23.1055 14.8586 20.4691 14.8771 19.9976 14.94ZM22.4596 19.489C22.0152 20.2175 20.2636 21.0417 18.7818 21.2199L17.4897 21.3754L17.6486 23.7122C17.9001 27.4121 19.5877 29.6101 22.8235 30.4531C24.6068 30.9176 25.3916 30.9178 27.1617 30.4546C30.4043 29.606 32.0988 27.3916 32.352 23.6726L32.5095 21.3556L29.3972 21.2523C26.092 21.1427 25.0255 20.8454 23.5239 19.6141C22.78 19.0042 22.7571 19.0015 22.4596 19.489ZM6.34049 19.6986C6.22846 19.7969 6.13672 21.0427 6.13672 22.4676V25.0578H7.14671H8.15669L8.07553 22.363C7.99493 19.6861 7.9895 19.6678 7.26931 19.5941C6.87035 19.5532 6.45224 19.6003 6.34049 19.6986ZM15.1834 23.0095C14.5421 23.6309 14.5875 24.6319 15.282 25.1831C15.8476 25.6321 15.8536 25.6211 15.8536 24.0939C15.8536 23.2454 15.8093 22.551 15.755 22.551C15.7007 22.551 15.4435 22.7573 15.1834 23.0095ZM34.1536 24.0789L34.1633 25.6845L34.7252 25.0926C35.4448 24.3351 35.4414 23.5028 34.7158 22.927C34.1499 22.4778 34.1442 22.4891 34.1536 24.0789ZM21.5694 33.0421C21.5694 34.153 21.6711 34.3115 23.2841 35.7115L24.9989 37.1998L26.7136 35.7115C28.3266 34.3115 28.4284 34.153 28.4284 33.0421V31.8611L27.5016 32.0942C26.9917 32.2223 25.8654 32.3274 24.9989 32.3274C24.1324 32.3274 23.0061 32.2223 22.4962 32.0942L21.5694 31.8611V33.0421ZM18.0413 34.5406C17.7813 34.7928 17.5683 35.1054 17.5683 35.2355C17.5683 35.3656 18.6358 36.4031 19.9401 37.5414L22.3119 39.611L22.9984 38.9703L23.6845 38.3298L21.2756 36.2058C19.951 35.0379 18.7875 34.0821 18.6906 34.0821C18.5938 34.0821 18.3014 34.2884 18.0413 34.5406ZM28.7222 36.2058L26.3132 38.3298L26.9994 38.9703L27.6859 39.611L30.0577 37.5414C31.362 36.4031 32.4294 35.3458 32.4294 35.1918C32.4294 34.9291 31.5349 34.0821 31.2574 34.0821C31.1877 34.0821 30.0468 35.0379 28.7222 36.2058ZM13.649 36.4512C10.7565 37.2441 7.8066 39.522 6.56198 41.9237C5.78092 43.431 5.19705 46.0794 5.33051 47.5105L5.42225 48.4959L8.4945 48.5671L11.5667 48.6383V47.2817C11.5667 45.8621 12.0386 45.179 12.8345 45.447C13.1192 45.5427 13.2795 46.0509 13.3384 47.0418L13.4244 48.4959H24.9989H36.5734L36.6594 47.0418C36.7183 46.0509 36.8786 45.5427 37.1633 45.447C37.9592 45.179 38.431 45.8621 38.431 47.2817V48.6383L41.5033 48.5671L44.5755 48.4959L44.6673 47.5105C44.801 46.0764 44.2163 43.43 43.4312 41.915C42.0983 39.3433 38.9097 37.016 35.77 36.3236L34.3948 36.0203L31.1697 38.8114C29.3958 40.3465 27.8334 41.6024 27.697 41.6024C27.561 41.6024 26.8983 41.1276 26.2244 40.5475L24.9989 39.4927L23.7454 40.5716C22.7091 41.4637 22.3996 41.6059 21.9592 41.3928C21.6663 41.2509 20.1427 39.9993 18.574 38.6111C17.005 37.2231 15.5261 36.095 15.2874 36.1043C15.0485 36.1136 14.3115 36.2695 13.649 36.4512Z" fill="#0D5EF4"/>
</svg>
