<svg width="44" height="45" viewBox="0 0 44 45" fill="none" xmlns="http://www.w3.org/2000/svg">
<path d="M21.7422 0.585938C21.9141 0.471354 22.0859 0.471354 22.2578 0.585938L42.7969 9.86719C43.5417 10.2109 43.9427 10.8125 44 11.6719V12.1875C43.8854 13.4479 43.1979 14.1354 41.9375 14.25H2.0625C0.802083 14.1354 0.114583 13.4479 0 12.1875V11.6719C0.0572917 10.8125 0.458333 10.2109 1.20312 9.86719L21.7422 0.585938ZM41.9375 12.875C42.3385 12.8177 42.5677 12.5885 42.625 12.1875V11.6719C42.625 11.3854 42.4818 11.1849 42.1953 11.0703L22 1.96094L1.80469 11.0703C1.51823 11.1849 1.375 11.3854 1.375 11.6719V12.1875C1.43229 12.5885 1.66146 12.8177 2.0625 12.875H19.1641C18.763 12.3021 18.5625 11.5859 18.5625 10.7266C18.5625 9.8099 18.9062 9.00781 19.5938 8.32031C20.224 7.6901 21.026 7.34635 22 7.28906C22.974 7.34635 23.776 7.6901 24.4062 8.32031C25.0938 9.00781 25.4375 9.8099 25.4375 10.7266C25.4375 11.5859 25.2083 12.3021 24.75 12.875H41.9375ZM22 12.875C23.2604 12.7604 23.9479 12.0443 24.0625 10.7266C24.0625 10.1536 23.862 9.66667 23.4609 9.26562C23.0599 8.86458 22.5729 8.66406 22 8.66406C21.4271 8.66406 20.9401 8.86458 20.5391 9.26562C20.138 9.66667 19.9375 10.1536 19.9375 10.7266C20.0521 12.0443 20.7396 12.7604 22 12.875ZM6.1875 17C6.58854 17.0573 6.81771 17.2865 6.875 17.6875V32.125H15.8125V17.6875C15.8698 17.2865 16.099 17.0573 16.5 17C16.901 17.0573 17.1302 17.2865 17.1875 17.6875V32.125H26.8125V17.6875C26.8698 17.2865 27.099 17.0573 27.5 17C27.901 17.0573 28.1302 17.2865 28.1875 17.6875V32.125H37.125V17.6875C37.1823 17.2865 37.4115 17.0573 37.8125 17C38.2135 17.0573 38.4427 17.2865 38.5 17.6875V32.8125C38.4427 33.2135 38.2135 33.4427 37.8125 33.5H6.1875C5.78646 33.4427 5.55729 33.2135 5.5 32.8125V17.6875C5.55729 17.2865 5.78646 17.0573 6.1875 17ZM2.75 38.3125C2.80729 37.9115 3.03646 37.6823 3.4375 37.625H40.5625C40.9635 37.6823 41.1927 37.9115 41.25 38.3125C41.1927 38.7135 40.9635 38.9427 40.5625 39H3.4375C3.03646 38.9427 2.80729 38.7135 2.75 38.3125ZM0 43.8125C0.0572917 43.4115 0.286458 43.1823 0.6875 43.125H43.3125C43.7135 43.1823 43.9427 43.4115 44 43.8125C43.9427 44.2135 43.7135 44.4427 43.3125 44.5H0.6875C0.286458 44.4427 0.0572917 44.2135 0 43.8125Z" fill="#0D5EF4"/>
</svg>
