<svg width="45" height="45" viewBox="0 0 45 45" fill="none" xmlns="http://www.w3.org/2000/svg">
<path d="M20.8516 31.4375L20.7656 31.7812C20.4219 32.8698 19.7057 33.5859 18.6172 33.9297L18.2734 34.0156C17.9297 34.1302 17.6719 34.2161 17.5 34.2734V43.8125C17.5 44.0417 17.3854 44.2422 17.1562 44.4141C16.9271 44.5286 16.6979 44.5286 16.4688 44.4141L12 41.8359L7.53125 44.4141C7.41667 44.4714 7.30208 44.5 7.1875 44.5C7.07292 44.5 6.95833 44.4714 6.84375 44.4141C6.61458 44.2422 6.5 44.0417 6.5 43.8125V34.2734C6.32812 34.2161 6.07031 34.1302 5.72656 34.0156L5.38281 33.9297C4.29427 33.5859 3.57812 32.8698 3.23438 31.7812L3.14844 31.4375C3.03385 30.9792 2.91927 30.6354 2.80469 30.4062C2.6901 30.2344 2.46094 29.9766 2.11719 29.6328L1.85938 29.375C1.11458 28.5729 0.856771 27.599 1.08594 26.4531L1.17188 26.2812C1.17188 26.1667 1.17188 26.0807 1.17188 26.0234C1.28646 25.6797 1.3724 25.3932 1.42969 25.1641C1.3724 25.1068 1.3151 24.9349 1.25781 24.6484C1.20052 24.5339 1.17188 24.4193 1.17188 24.3047L1.08594 24.0469C0.856771 22.901 1.11458 21.9271 1.85938 21.125L2.11719 20.8672C2.46094 20.5234 2.6901 20.237 2.80469 20.0078C2.91927 19.8359 3.03385 19.5208 3.14844 19.0625L3.23438 18.7188C3.57812 17.6302 4.29427 16.9141 5.38281 16.5703L5.72656 16.4844C6.1849 16.3125 6.5 16.1693 6.67188 16.0547C6.90104 15.9974 7.1875 15.7682 7.53125 15.3672L7.70312 15.1953C8.5625 14.3932 9.53646 14.1068 10.625 14.3359L10.9688 14.4219C11.4271 14.5938 11.7708 14.6797 12 14.6797C12.2292 14.6797 12.5729 14.5938 13.0312 14.4219L13.375 14.3359C14.4635 14.1068 15.4375 14.3932 16.2969 15.1953L16.4688 15.3672C16.8125 15.7682 17.099 15.9974 17.3281 16.0547C17.5 16.1693 17.8151 16.3125 18.2734 16.4844L18.6172 16.5703C19.7057 16.9141 20.3932 17.6302 20.6797 18.7188L20.7656 19.0625C20.9375 19.5208 21.0807 19.8646 21.1953 20.0938C21.3099 20.2656 21.5391 20.5234 21.8828 20.8672L22.1406 21.125C22.8854 21.9271 23.1432 22.901 22.9141 24.0469L22.8281 24.3047C22.8281 24.362 22.8281 24.4193 22.8281 24.4766C22.7135 24.8203 22.6276 25.0781 22.5703 25.25C22.6276 25.4219 22.7135 25.7083 22.8281 26.1094C22.8281 26.1094 22.8281 26.1667 22.8281 26.2812L22.9141 26.4531C23.1432 27.599 22.8854 28.5729 22.1406 29.375L21.8828 29.6328C21.5391 29.9766 21.3099 30.2344 21.1953 30.4062C21.0807 30.6354 20.9661 30.9792 20.8516 31.4375ZM16.0391 42.6094V35.4766C15.4661 35.9922 14.8073 36.25 14.0625 36.25C13.776 36.25 13.5182 36.2214 13.2891 36.1641L12.9453 36.0781C12.487 35.9062 12.1432 35.8203 11.9141 35.8203C11.6849 35.8203 11.3411 35.9062 10.8828 36.0781L10.625 36.1641C9.53646 36.3932 8.59115 36.1641 7.78906 35.4766V42.6094L11.5703 40.4609C11.7995 40.3464 12.0286 40.3464 12.2578 40.4609L16.0391 42.6094ZM19.5625 31.0938C19.6771 30.4635 19.8203 30.0339 19.9922 29.8047C20.1641 29.5182 20.4792 29.1458 20.9375 28.6875L21.1094 28.4297C21.5677 27.9714 21.7109 27.4271 21.5391 26.7969V26.625C21.3672 26.0521 21.2526 25.5938 21.1953 25.25V25.1641C21.2526 24.9349 21.3672 24.5052 21.5391 23.875V23.7031C21.7109 23.0729 21.5677 22.5286 21.1094 22.0703L20.9375 21.8125C20.4792 21.3542 20.1641 21.0104 19.9922 20.7812C19.8203 20.4948 19.6771 20.0365 19.5625 19.4062L19.3906 19.0625C19.2188 18.4323 18.8464 18.0312 18.2734 17.8594L17.9297 17.7734C17.2995 17.6016 16.8698 17.4297 16.6406 17.2578C16.3542 17.1432 15.9818 16.8281 15.5234 16.3125L15.3516 16.1406C14.8932 15.6823 14.349 15.5391 13.7188 15.7109L13.375 15.7969C12.7448 15.9688 12.2865 16.0547 12 16.0547C11.6562 16.0547 11.1979 15.9688 10.625 15.7969L10.2812 15.7109C9.65104 15.5391 9.13542 15.6823 8.73438 16.1406L8.47656 16.3125C8.01823 16.8281 7.64583 17.1432 7.35938 17.2578C7.13021 17.4297 6.70052 17.6016 6.07031 17.7734L5.72656 17.8594C5.15365 18.0312 4.78125 18.4323 4.60938 19.0625L4.52344 19.4062C4.35156 20.0365 4.17969 20.4661 4.00781 20.6953C3.83594 20.9818 3.52083 21.3542 3.0625 21.8125L2.89062 22.0703C2.43229 22.5286 2.28906 23.0729 2.46094 23.7031V23.875C2.63281 24.5052 2.7474 24.9349 2.80469 25.1641C2.7474 25.5651 2.63281 26.0521 2.46094 26.625V26.7969C2.28906 27.4271 2.43229 27.9714 2.89062 28.4297L3.0625 28.6875C3.52083 29.1458 3.83594 29.4896 4.00781 29.7188C4.17969 30.0052 4.35156 30.4635 4.52344 31.0938L4.60938 31.4375C4.78125 32.0677 5.15365 32.4688 5.72656 32.6406L6.07031 32.7266C6.70052 32.8984 7.15885 33.0703 7.44531 33.2422C7.67448 33.3568 8.01823 33.6719 8.47656 34.1875L8.73438 34.3594C9.19271 34.8177 9.70833 34.9609 10.2812 34.7891L10.625 34.7031C11.2552 34.5312 11.7135 34.4453 12 34.4453C12.3438 34.4453 12.8021 34.5312 13.375 34.7031L13.7188 34.7891C14.349 34.9609 14.8932 34.8177 15.3516 34.3594L15.5234 34.1875C15.9818 33.6719 16.3542 33.3568 16.6406 33.2422C16.8698 33.0703 17.2995 32.8984 17.9297 32.7266L18.2734 32.6406C18.8464 32.4688 19.2474 32.0677 19.4766 31.4375L19.5625 31.0938ZM44.2266 13.4766C44.7422 13.9922 44.9714 14.6224 44.9141 15.3672V38.8281C44.8568 40.375 44.3125 41.6641 43.2812 42.6953C42.25 43.7839 40.9609 44.3281 39.4141 44.3281H20.9375C20.5365 44.3281 20.3073 44.099 20.25 43.6406C20.3073 43.2396 20.5365 43.0104 20.9375 42.9531H39.4141C40.5599 42.9531 41.5339 42.5521 42.3359 41.75C43.138 41.0052 43.5391 40.0312 43.5391 38.8281V15.4531H33.2266C32.2526 15.4531 31.4505 15.1094 30.8203 14.4219C30.1901 13.7917 29.8464 12.9896 29.7891 12.0156V1.78906H17.4141C16.2682 1.84635 15.2943 2.2474 14.4922 2.99219C13.7474 3.79427 13.3464 4.76823 13.2891 5.91406V10.7266C13.2318 11.1276 13.0026 11.3568 12.6016 11.4141C12.2005 11.3568 11.9714 11.1276 11.9141 10.7266V6C11.9714 4.45312 12.5156 3.16406 13.5469 2.13281C14.5781 1.10156 15.8672 0.557292 17.4141 0.5H30.1328C30.8776 0.5 31.5078 0.757812 32.0234 1.27344L44.2266 13.4766ZM33.2266 14.1641V14.25H43.0234L31.1641 2.47656V12.1016C31.2786 13.362 31.9661 14.0495 33.2266 14.1641Z" fill="#0D5EF4"/>
</svg>
