<svg width="50" height="50" viewBox="0 0 50 50" fill="none" xmlns="http://www.w3.org/2000/svg">
<path fill-rule="evenodd" clip-rule="evenodd" d="M30.7076 0.0925007C30.5701 0.153455 30.3521 0.311959 30.2229 0.444671C29.7143 0.968021 29.7073 1.02887 29.7073 4.92258V8.56366L17.6793 8.59298L5.65139 8.6223L5.25129 8.8606C5.03124 8.99177 4.70686 9.26469 4.53041 9.46728C3.86225 10.2343 3.90096 9.21332 3.90096 26.0518V41.3041H2.19604C0.519128 41.3041 0.48702 41.3085 0.24556 41.5747L0 41.8452L0.00220054 44.9091C0.00420103 47.6377 0.024406 48.0213 0.187146 48.4161C0.396697 48.9245 0.878816 49.4915 1.33593 49.7671C1.6301 49.9446 3.03335 49.959 23.1057 49.9906C39.1834 50.0159 44.697 49.9921 45.1037 49.8957C45.5495 49.79 45.7378 49.6657 46.1573 49.2006C46.4794 48.8436 46.7132 48.4664 46.7899 48.1804C46.8718 47.8748 46.9115 46.7838 46.9115 44.8376V41.9485L46.6191 41.6263L46.3268 41.3041H44.6687H43.0106V30.1163V18.9284H45.9965C48.9343 18.9284 48.9879 18.9243 49.3223 18.6782C50.0516 18.1413 50.017 18.6245 49.9882 9.37436C49.9626 1.19949 49.9595 1.08387 49.756 0.783614C49.6426 0.616182 49.4255 0.376993 49.2736 0.251997C48.9999 0.0268064 48.9163 0.0244916 39.9775 0.00321811C34.1213 -0.0106703 30.8699 0.0206337 30.7076 0.0925007ZM31.3077 9.43807V17.1428L32.2166 17.1814C33.0683 17.2175 33.1407 17.2394 33.3669 17.5292C33.5735 17.7939 33.6083 17.9522 33.6083 18.6293V19.4202L34.6103 18.32L35.6124 17.2199L42.0121 17.1899L48.4119 17.16V9.44656V1.73321H39.8598H31.3077V9.43807ZM35.169 6.28177C34.4719 6.72234 34.4085 6.98942 34.4085 9.48735C34.4085 11.5359 34.4227 11.7065 34.6269 12.107C34.7661 12.3799 34.9953 12.6152 35.2587 12.7557C35.6398 12.959 35.8763 12.9762 38.3009 12.9762C40.5308 12.9762 40.9824 12.9488 41.2756 12.7953C41.6696 12.5893 42.0624 12.0719 42.1635 11.6259C42.2012 11.4592 42.2531 11.3228 42.2788 11.3228C42.3046 11.3228 42.6007 11.5584 42.9368 11.8464C44.3637 13.0685 44.6365 13.1786 45.0656 12.7056L45.3111 12.4351V9.5041V6.57309L45.0656 6.3026C44.6587 5.85409 44.37 5.94316 43.262 6.85924L42.2631 7.68505L42.1348 7.27677C42.0642 7.05224 41.9061 6.74824 41.7834 6.60142C41.3384 6.0687 41.1082 6.03189 38.2376 6.03376C35.6499 6.03552 35.5454 6.04401 35.169 6.28177ZM36.0088 9.5041V11.2126H38.3094H40.61V9.5041V7.79561H38.3094H36.0088V9.5041ZM43.1736 9.15182L42.7864 9.51281L43.1236 9.79179C43.7262 10.2907 43.7107 10.2981 43.7107 9.5106C43.7107 9.11302 43.677 8.78841 43.6357 8.78929C43.5944 8.79017 43.3865 8.9533 43.1736 9.15182ZM5.95146 10.4581C5.48145 10.7414 5.50135 10.0485 5.50135 26.1141V41.3041H23.4558H41.4102V30.1163V18.9284H40.6615H39.9129L39.8863 29.0236L39.8598 39.1188L39.5791 39.3848L39.2985 39.6508H23.3956H7.49274L7.24728 39.3802L7.00172 39.1097V25.8898C7.00172 13.0381 7.00702 12.6627 7.19297 12.4098L7.38411 12.1495L18.5207 12.0944L29.6573 12.0393L29.6865 11.185L29.7157 10.3308L17.9336 10.3341C9.59846 10.3365 6.093 10.3728 5.95146 10.4581ZM8.60211 19.4244V24.9908H10.1403H11.6784L11.7209 24.0123C11.7564 23.1944 11.815 22.9185 12.078 22.3314C12.251 21.945 12.6172 21.3859 12.8917 21.0888L13.3906 20.5487L13.1395 20.1859C11.9591 18.4805 12.5161 15.9496 14.2821 14.994C15.0526 14.577 16.2052 14.5567 16.9278 14.9475C17.9124 15.4798 18.6425 16.6098 18.7703 17.7992C18.8433 18.4778 18.6224 19.3559 18.2034 20.053L17.8944 20.5671L18.3495 21.0294C18.6121 21.296 18.9422 21.7993 19.1297 22.2187C19.4117 22.8494 19.4594 23.0813 19.4895 23.9683L19.5241 24.9908H21.0649H22.6056V19.4244V13.858H15.6038H8.60211V19.4244ZM24.2059 19.4244V24.9908H31.2593H38.3126L38.286 21.9871L38.2594 18.9835L37.3144 18.9515L36.3692 18.9196L34.8138 20.6215C33.9581 21.5577 33.1535 22.3578 33.0257 22.3996C32.7082 22.5034 32.2577 22.278 32.1209 21.9469C32.0562 21.7906 32.0079 21.0864 32.0079 20.301V18.9284H31.3725C30.8785 18.9284 30.6615 18.8727 30.3973 18.6782C29.7848 18.2273 29.7076 17.9007 29.7075 15.7594L29.7073 13.858H26.9566H24.2059V19.4244ZM15.0487 16.5422C14.0286 17.0519 13.8154 18.5435 14.6474 19.3484C15.5096 20.1827 16.771 19.7565 17.1079 18.5172C17.4519 17.252 16.1423 15.9958 15.0487 16.5422ZM14.8922 21.7259C13.9124 22.1117 13.3978 22.9159 13.3245 24.1758L13.277 24.9908H15.5906H17.9044V24.2148C17.9044 23.2848 17.6985 22.7662 17.1084 22.2096C16.4657 21.6033 15.6534 21.4261 14.8922 21.7259ZM8.60211 32.3208V37.8871H10.1386H11.6752L11.7257 36.911C11.7875 35.7146 12.1615 34.7792 12.8969 33.981L13.378 33.4588L13.0438 32.9116C12.6463 32.2607 12.5044 31.7518 12.5037 30.9747C12.5024 29.7229 13.2311 28.4591 14.2821 27.8904C14.7684 27.6271 14.9729 27.582 15.6538 27.587C16.3195 27.592 16.5413 27.6427 16.9729 27.8885C18.742 28.8961 19.2999 31.2277 18.1952 32.997L17.9026 33.4657L18.4098 34.0246C19.1552 34.846 19.4442 35.6077 19.4883 36.8676L19.5241 37.8871H21.0649H22.6056V32.3208V26.7544H15.6038H8.60211V32.3208ZM24.2059 32.3208V37.8871H25.7563H27.3067L27.3091 37.2534C27.3142 35.9551 27.68 34.9451 28.4716 34.0438L28.9913 33.4521L28.6965 33.0037C27.5717 31.2925 28.1787 28.8168 29.96 27.8509C30.3621 27.6328 30.6109 27.5811 31.2577 27.5811C31.9878 27.5811 32.1149 27.6157 32.708 27.9756C34.4074 29.0066 34.9195 31.3294 33.8172 33.0061L33.524 33.4521L34.0438 34.0438C34.8347 34.9442 35.2086 36.0061 35.2086 37.351V37.8871H36.759H38.3094V32.3208V26.7544H31.2577H24.2059V32.3208ZM15.0537 29.4452C13.8903 30.015 13.7896 31.7829 14.882 32.4594C15.5594 32.8791 16.3204 32.7241 16.8244 32.064C17.4391 31.259 17.187 30.0261 16.3078 29.5376C15.8018 29.2564 15.4866 29.2331 15.0537 29.4452ZM30.6525 29.4386C29.6293 29.9499 29.4193 31.44 30.2565 32.25C31.4236 33.3793 33.2137 32.0686 32.6979 30.4623C32.414 29.5777 31.3949 29.0677 30.6525 29.4386ZM14.8922 34.6157C13.9026 35.0234 13.3977 35.8146 13.3245 37.0721L13.277 37.8871H15.5906H17.9044V37.1101C17.9044 36.2715 17.7655 35.8461 17.3179 35.3143C16.7401 34.6279 15.6349 34.3097 14.8922 34.6157ZM30.5075 34.6142C30.3149 34.6811 29.9293 34.9863 29.6504 35.2923C29.1016 35.8945 28.9071 36.4424 28.9071 37.3848V37.8871H31.2577H33.6083V37.3848C33.6083 36.5237 33.4158 35.9363 32.9442 35.3582C32.2945 34.5619 31.4237 34.296 30.5075 34.6142ZM1.60039 45.3702C1.60039 47.473 1.617 47.6953 1.79164 47.933L1.98279 48.1932L23.1719 48.2246C34.8259 48.2419 44.507 48.2273 44.6858 48.1921C45.2493 48.0812 45.3111 47.7931 45.3111 45.2778V43.0677H23.4558H1.60039V45.3702Z" fill="#0D5EF4"/>
</svg>
