<svg width="39" height="45" viewBox="0 0 39 45" fill="none" xmlns="http://www.w3.org/2000/svg">
<path d="M38.75 33.5C38.75 34.3021 38.4922 34.9609 37.9766 35.4766C37.4609 35.9922 36.8021 36.25 36 36.25V43.0391H38.0625C38.4635 43.0964 38.6927 43.3255 38.75 43.7266C38.75 44.1849 38.4635 44.4141 37.8906 44.4141H4.97656C3.65885 44.3568 2.54167 43.8984 1.625 43.0391C0.765625 42.1224 0.307292 40.9766 0.25 39.6016V6C0.307292 4.45312 0.851562 3.16406 1.88281 2.13281C2.91406 1.10156 4.20312 0.557292 5.75 0.5H36C36.8021 0.5 37.4609 0.757812 37.9766 1.27344C38.4922 1.78906 38.75 2.44792 38.75 3.25V33.5ZM1.625 6V36.25C2.54167 35.3333 3.6875 34.8464 5.0625 34.7891H9.875V1.875H5.75C4.60417 1.93229 3.63021 2.33333 2.82812 3.07812C2.08333 3.88021 1.68229 4.85417 1.625 6ZM34.625 43.0391V36.25L5.23438 36.1641C4.31771 36.1641 3.51562 36.4505 2.82812 37.0234C2.14062 37.5964 1.73958 38.3411 1.625 39.2578C1.56771 40.3464 1.85417 41.2344 2.48438 41.9219C3.17188 42.6667 4.03125 43.0391 5.0625 43.0391H34.625ZM11.25 34.7891L36 34.875C36.8594 34.8177 37.3177 34.3594 37.375 33.5V3.25C37.3177 2.39062 36.8594 1.93229 36 1.875H11.25V34.7891ZM32.5625 11.4141C32.9635 11.4714 33.1927 11.7005 33.25 12.1016C33.1927 12.5026 32.9635 12.7318 32.5625 12.7891H16.0625C15.6615 12.7318 15.4323 12.5026 15.375 12.1016C15.4323 11.7005 15.6615 11.4714 16.0625 11.4141H32.5625ZM32.5625 18.2891C32.9635 18.3464 33.1927 18.5755 33.25 18.9766C33.1927 19.3776 32.9635 19.6068 32.5625 19.6641H16.0625C15.6615 19.6068 15.4323 19.3776 15.375 18.9766C15.4323 18.5755 15.6615 18.3464 16.0625 18.2891H32.5625Z" fill="#0D5EF4"/>
</svg>
