<svg width="51" height="45" viewBox="0 0 51 45" fill="none" xmlns="http://www.w3.org/2000/svg">
<path d="M5.66406 29.375L5.75 25.9375H2.3125C1.05208 25.8229 0.364583 25.1354 0.25 23.875V21.125C0.364583 19.8646 1.05208 19.1771 2.3125 19.0625H5.75V15.625C5.86458 14.3646 6.55208 13.6771 7.8125 13.5625H10.5625C11.8229 13.6771 12.5104 14.3646 12.625 15.625V19.0625H15.9766C17.237 19.1771 17.9245 19.8646 18.0391 21.125V23.875C17.9245 25.1354 17.237 25.8229 15.9766 25.9375H12.5391V29.375C12.4245 30.6354 11.737 31.3229 10.4766 31.4375H7.72656C6.46615 31.3229 5.77865 30.6354 5.66406 29.375ZM2.3125 24.5625H7.03906V29.375C7.09635 29.776 7.32552 30.0052 7.72656 30.0625H10.4766C10.8776 30.0052 11.1068 29.776 11.1641 29.375L11.25 24.5625H16.0625C16.4635 24.5052 16.6927 24.276 16.75 23.875V21.125C16.6927 20.724 16.4635 20.4948 16.0625 20.4375H11.25V15.625C11.1927 15.224 10.9635 14.9948 10.5625 14.9375H7.8125C7.41146 14.9948 7.18229 15.224 7.125 15.625V20.4375H2.3125C1.91146 20.4948 1.68229 20.724 1.625 21.125V23.875C1.68229 24.276 1.91146 24.5052 2.3125 24.5625ZM49.6641 38.7422C49.8932 39.7161 49.7786 40.6042 49.3203 41.4062C48.862 42.151 48.1458 42.6667 47.1719 42.9531L41.8438 44.4141C41.5 44.4714 41.1849 44.5 40.8984 44.5C39.237 44.4427 38.1198 43.5833 37.5469 41.9219L29.125 10.8984V41.0625C29.125 42.0365 28.7812 42.8385 28.0938 43.4688C27.4635 44.1562 26.6615 44.5 25.6875 44.5H20.1875C18.9844 44.4427 18.0677 43.9557 17.4375 43.0391C16.8073 43.9557 15.8906 44.4427 14.6875 44.5H9.1875C8.21354 44.5 7.41146 44.1562 6.78125 43.4688C6.09375 42.8385 5.75 42.0365 5.75 41.0625V34.1875C5.80729 33.7865 6.03646 33.5573 6.4375 33.5C6.83854 33.5573 7.06771 33.7865 7.125 34.1875V34.875H16.75V28.6875C16.8073 28.2865 17.0365 28.0573 17.4375 28C17.8385 28.0573 18.0677 28.2865 18.125 28.6875V34.875H27.75V10.125H18.125V16.3125C18.0677 16.7135 17.8385 16.9427 17.4375 17C17.0365 16.9427 16.8073 16.7135 16.75 16.3125V10.125H7.125V10.8125C7.06771 11.2135 6.83854 11.4427 6.4375 11.5C6.03646 11.4427 5.80729 11.2135 5.75 10.8125V3.9375C5.75 2.96354 6.09375 2.16146 6.78125 1.53125C7.41146 0.84375 8.21354 0.5 9.1875 0.5H14.6875C15.8906 0.557292 16.8073 1.04427 17.4375 1.96094C18.0677 1.04427 18.9844 0.557292 20.1875 0.5H25.6875C27.2917 0.614583 28.3516 1.38802 28.8672 2.82031C29.2682 2.47656 29.7552 2.21875 30.3281 2.04688L35.6562 0.585938C36 0.528646 36.3151 0.5 36.6016 0.5C38.263 0.557292 39.3802 1.41667 39.9531 3.07812L49.6641 38.7422ZM16.75 8.75V3.9375C16.6354 2.67708 15.9479 1.98958 14.6875 1.875H9.1875C7.92708 1.98958 7.23958 2.67708 7.125 3.9375V8.75H16.75ZM16.75 41.0625V36.25H7.125V41.0625C7.23958 42.3229 7.92708 43.0104 9.1875 43.125H14.6875C15.9479 43.0104 16.6354 42.3229 16.75 41.0625ZM27.75 41.0625V36.25H18.125V41.0625C18.2396 42.3229 18.9271 43.0104 20.1875 43.125H25.6875C26.9479 43.0104 27.6354 42.3229 27.75 41.0625ZM27.75 8.75V3.9375C27.6354 2.67708 26.9479 1.98958 25.6875 1.875H20.1875C18.9271 1.98958 18.2396 2.67708 18.125 3.9375V8.75H27.75ZM29.2109 5.82812L30.5 10.4688L39.8672 8.0625L38.5781 3.42188C38.2917 2.44792 37.6328 1.93229 36.6016 1.875C36.4297 1.875 36.2292 1.90365 36 1.96094L30.6719 3.33594C30.099 3.50781 29.6693 3.85156 29.3828 4.36719C29.0964 4.82552 29.0391 5.3125 29.2109 5.82812ZM37.2891 35.6484L46.6562 33.1562L40.2109 9.35156L30.8438 11.8438L37.2891 35.6484ZM48.1172 40.6328C48.3464 40.1745 48.4036 39.6875 48.2891 39.1719L47 34.5312L37.6328 36.9375L38.9219 41.5781C39.2083 42.5521 39.8672 43.0677 40.8984 43.125C41.0703 43.125 41.2708 43.0964 41.5 43.0391L46.8281 41.6641C47.401 41.4922 47.8307 41.1484 48.1172 40.6328Z" fill="#0D5EF4"/>
</svg>
