<svg width="50" height="50" viewBox="0 0 50 50" fill="none" xmlns="http://www.w3.org/2000/svg">
<path fill-rule="evenodd" clip-rule="evenodd" d="M2.44456 0.342707C1.49636 0.764049 0.636341 1.67223 0.270521 2.63843C-0.125976 3.68508 -0.0749318 7.82037 0.347088 8.83067C0.729149 9.74504 2.13287 11.0666 2.72221 11.0666C3.0344 11.0666 3.08906 12.8736 3.08906 23.1731V35.2796L1.6067 35.3569L0.124348 35.4343L0.0480393 37.0286C-0.021567 38.4843 0.0382429 38.6972 0.735594 39.4783L1.49946 40.3336L12.8641 40.4084L24.2287 40.4829V41.9945C24.2287 43.4524 24.1965 43.5249 23.3138 44.0458C20.5636 45.6687 21.7917 50 25.0021 50C28.2125 50 29.4407 45.6687 26.6905 44.0458C25.8078 43.5249 25.7755 43.4524 25.7755 41.9945V40.4829L37.1402 40.4084L48.5048 40.3336L49.2687 39.4783C49.966 38.6972 50.0258 38.4843 49.9562 37.0286L49.8799 35.4343L48.3976 35.3569L46.9152 35.2796V21.9003V8.52072L48.264 7.7951C49.7817 6.97898 50.2669 6.11412 49.8652 4.9424C49.6657 4.36067 48.8814 3.85321 45.4973 2.1173L41.3725 0.00155883L22.2952 1.166e-05C6.95349 -0.00101978 3.06663 0.0660238 2.44456 0.342707ZM2.43295 2.41667C1.84465 3.00485 1.80005 3.2328 1.80005 5.65152C1.80005 8.07024 1.84465 8.29819 2.43295 8.88637C3.01636 9.47016 3.2574 9.51941 5.52656 9.51941H7.98727V5.65152V1.78363H5.52656C3.2574 1.78363 3.01636 1.83288 2.43295 2.41667ZM9.79188 5.65152V9.51941H10.5653H11.3387V5.65152V1.78363H10.5653H9.79188V5.65152ZM12.8855 3.33078V4.87794H26.5489H40.2124V3.33078V1.78363H26.5489H12.8855V3.33078ZM42.017 5.65152C42.017 7.49521 42.0737 9.00369 42.1431 9.00369C42.2124 9.00369 43.6045 8.33893 45.2367 7.52616C47.0977 6.59967 48.2042 5.90061 48.2042 5.65152C48.2042 5.40243 47.0977 4.70337 45.2367 3.77688C43.6045 2.96411 42.2124 2.29934 42.1431 2.29934C42.0737 2.29934 42.017 3.80782 42.017 5.65152ZM12.8855 7.97225V9.51941H26.5489H40.2124V7.97225V6.4251H26.5489H12.8855V7.97225ZM43.0482 10.4219L41.3725 11.2994L23.1331 11.3118L4.89366 11.3244V23.3149V35.3054H25.0021H45.1106V22.4124C45.1106 15.3212 45.0235 9.52508 44.9172 9.53205C44.811 9.53875 43.9698 9.93921 43.0482 10.4219ZM6.44047 17.7709V22.6782L13.7233 22.6099L21.0062 22.5413V17.7709V13.0005L13.7233 12.9319L6.44047 12.8636V17.7709ZM31.2453 13.2741C30.9292 13.4953 30.4892 14.0281 30.2669 14.4577C29.8697 15.2261 29.8395 15.2359 28.3788 15.0662C27.0065 14.9071 26.8299 14.9481 26.0421 15.6113C24.9134 16.5613 24.4043 17.7789 24.7526 18.6951C25.1107 19.637 24.8549 20.2791 23.9323 20.7562C22.9482 21.2652 22.3264 22.6875 22.5419 23.9369C22.6561 24.599 23.0356 25.1599 23.8773 25.9095C24.9967 26.9069 25.0416 26.9994 24.8132 27.8434C24.4811 29.0706 24.8493 30.2317 25.8335 31.06C26.5827 31.6904 26.8044 31.7438 28.1638 31.6205C29.145 31.5316 29.7498 31.5878 29.9081 31.7833C30.0414 31.9475 30.444 32.4493 30.8032 32.8982C32.03 34.432 34.7993 34.2128 35.6784 32.5125C36.1732 31.5556 36.4 31.4728 38.0804 31.6358C39.3841 31.7621 39.4635 31.7314 40.4854 30.7095C41.5254 29.6691 41.5406 29.6273 41.4573 28.0399C41.3764 26.4995 41.4045 26.4115 42.0822 26.0815C43.0013 25.6338 43.5638 24.5214 43.5638 23.1524C43.5638 22.1901 43.4259 21.933 42.3918 20.9699C41.2441 19.9011 41.2232 19.8526 41.3738 18.6314C41.655 16.3529 39.9796 14.7176 37.713 15.0575C36.6052 15.2235 36.5372 15.1931 35.4732 14.0503C34.4552 12.9567 34.2835 12.8716 33.0979 12.8716C32.3569 12.8716 31.5784 13.0407 31.2453 13.2741ZM8.24507 17.7709V20.8652H13.7878H19.3305V17.7709V14.6766H13.7878H8.24507V17.7709ZM31.8467 15.1516C31.764 15.4128 31.3984 15.9058 31.0347 16.2475C30.4814 16.7668 30.1097 16.8684 28.7596 16.8684C26.566 16.8684 26.2615 17.1541 26.4574 19.0298C26.5966 20.3609 26.5469 20.5702 25.9124 21.3245C25.5283 21.7811 25.0627 22.1545 24.8779 22.1545C24.4842 22.1545 24.2287 22.7185 24.2287 23.5872C24.2287 24.0111 24.4693 24.3285 24.9977 24.6019C26.0924 25.1681 26.6374 26.354 26.47 27.8058C26.3602 28.7593 26.435 29.0969 26.8583 29.5523C27.3015 30.0293 27.5703 30.0945 28.5954 29.9731C30.0795 29.7972 31.2631 30.3336 31.8362 31.4419C32.441 32.612 33.3268 32.479 34.6918 31.0128L35.8076 29.8145L37.3394 29.9746C39.29 30.1786 39.5679 29.8924 39.5679 27.6792C39.5679 26.3288 39.6695 25.9569 40.1887 25.4036C40.5303 25.0397 41.0232 24.6741 41.2843 24.5913C41.6388 24.4786 41.7592 24.1852 41.7592 23.433C41.7592 22.5759 41.6445 22.3662 40.9902 22.0279C39.8711 21.449 39.3611 20.3059 39.564 18.8305C39.7904 17.1838 39.2188 16.625 37.5624 16.8733C36.1492 17.0853 34.9847 16.5579 34.4095 15.4458C34.0713 14.7913 33.8617 14.6766 33.0048 14.6766C32.2528 14.6766 31.9594 14.797 31.8467 15.1516ZM30.2345 18.5455C25.8109 21.0829 26.7817 27.533 31.79 28.8818C35.1463 29.7859 38.6746 26.9752 38.6599 23.409C38.6419 18.9669 34.085 16.3364 30.2345 18.5455ZM31.8645 19.5847C30.3546 20.037 29.1269 21.7077 29.1269 23.3103C29.1269 25.4363 30.5278 27.0136 32.6266 27.2501C34.0326 27.4087 35.0935 26.9866 36.0626 25.8827C37.7336 23.9789 37.1232 21.0658 34.8084 19.8983C33.589 19.2833 33.06 19.2268 31.8645 19.5847ZM32.0548 21.121C30.5809 21.7159 30.2092 23.8332 31.3665 25.0413C32.5253 26.2511 34.4103 25.9742 35.1827 24.4804C35.7718 23.3409 35.6588 22.7056 34.6954 21.742C33.8076 20.8539 33.118 20.6917 32.0548 21.121ZM32.3729 23.0893C32.2773 23.3381 32.3564 23.6903 32.5521 23.8858C33.045 24.3791 33.813 24.0232 33.7166 23.3466C33.6176 22.6532 32.6137 22.4609 32.3729 23.0893ZM6.49925 29.0523L6.56937 33.8871H13.7878H21.0062L21.0763 29.0523L21.1465 24.2174H13.7878H6.42913L6.49925 29.0523ZM8.24507 28.9878V32.211H13.7878H19.3305V28.9878V25.7646H13.7878H8.24507V28.9878ZM1.84749 37.8195L1.92895 38.5286H25.0021H48.0753L48.1568 37.8195L48.2385 37.1104H25.0021H1.76577L1.84749 37.8195ZM23.9709 45.6197C23.3275 46.2634 23.3081 47.2115 23.9268 47.7716C24.9134 48.6648 26.5489 47.9933 26.5489 46.6953C26.5489 45.9936 25.6843 45.104 25.0021 45.104C24.7185 45.104 24.2545 45.3361 23.9709 45.6197Z" fill="#0D5EF4"/>
</svg>
