<svg width="1287" height="126" viewBox="0 0 1287 126" fill="none" xmlns="http://www.w3.org/2000/svg">
<path d="M0.226497 120L6 125.774L11.7735 120L6 114.226L0.226497 120ZM1286.77 6L1281 0.226497L1275.23 6L1281 11.7735L1286.77 6ZM465.014 18.3422L465.822 18.9308L465.014 18.3422ZM399.986 107.658L399.178 107.069L399.986 107.658ZM6 121H375.733V119H6V121ZM400.794 108.246L465.822 18.9308L464.206 17.7536L399.178 107.069L400.794 108.246ZM489.267 7H1281V5H489.267V7ZM465.822 18.9308C471.28 11.4344 479.994 7 489.267 7V5C479.355 5 470.04 9.74018 464.206 17.7536L465.822 18.9308ZM375.733 121C385.645 121 394.96 116.26 400.794 108.246L399.178 107.069C393.72 114.566 385.006 119 375.733 119V121Z" fill="#E0E0E0"/>
</svg>
